<svg id="svg" xmlns="http://www.w3.org/2000/svg" width="22" height="22" viewBox="0 0 22 22">
  <path id="Path_10809" data-name="Path 10809" d="M19,12.7a.945.945,0,0,0-1,1V19a.945.945,0,0,1-1,1H3a.945.945,0,0,1-1-1V5A.945.945,0,0,1,3,4H8.3a.945.945,0,0,0,1-1,.945.945,0,0,0-1-1H3A2.946,2.946,0,0,0,0,5V19a2.946,2.946,0,0,0,3,3H17a2.946,2.946,0,0,0,3-3V13.7A.945.945,0,0,0,19,12.7Z"/>
  <path id="Path_10810" data-name="Path 10810" d="M21.7,4.3l-4-4a.967.967,0,0,0-1.4,0l-10,10A.908.908,0,0,0,6,11v4a.945.945,0,0,0,1,1h4a.908.908,0,0,0,.7-.3l10-10A.967.967,0,0,0,21.7,4.3ZM10.6,14H8V11.4l9-9L19.6,5Z"/>
</svg>
