<svg xmlns="http://www.w3.org/2000/svg" width="110" height="90.664" viewBox="0 0 110 90.664">
  <g id="Group_3528" data-name="Group 3528" transform="translate(-268.478 -747.566)">
    <g id="Group_3200" data-name="Group 3200" transform="translate(268.478 747.566)">
      <path id="Path_4987" data-name="Path 4987" d="M268.491,800.253c-.31,1.4,5.2,47.974,5.2,47.974l98.871.377,1.071-9.374-1.09-19.364,5.48-19.074S269.889,793.963,268.491,800.253Z" transform="translate(-268.478 -757.941)" fill="#6b3c2d"/>
      <path id="Path_4988" data-name="Path 4988" d="M378.455,800.961c-.431-.027-36.612-2.579-67.83-3.193-17.392,1.172-30.807,2.07-30.807,2.07s-2.475,29.929,6.752,37.805c7.126,6.084,62.031,4.379,89.771,1.422l3.854-33.736S378.452,801.032,378.455,800.961Z" transform="translate(-270.767 -757.978)" fill="#ffecc5"/>
      <path id="Path_4989" data-name="Path 4989" d="M378.008,805.294l.514-4.5s-108.135-6.828-109.534-.538a42.287,42.287,0,0,0,.319,4.469C292.712,807.891,347.23,807.761,378.008,805.294Z" transform="translate(-268.581 -757.941)" fill="#995946"/>
      <path id="Path_4990" data-name="Path 4990" d="M314.091,747.571c-8.109-.491-45.746,39.433-45.613,42.245,3.9,4.5,106.6,4.51,109.6.61C370.051,781.858,323.992,748.171,314.091,747.571Z" transform="translate(-268.478 -747.566)" fill="#885b40"/>
      <path id="Path_4991" data-name="Path 4991" d="M368.061,779.787c.945,2.612,1.437,5.475.877,6.037-2.123,2.123-17.511,2.028-17.511,2.028-2.2-5.811-7.778-13.776-7.778-13.776,1.729-.553,7.226-1.969,12.153-3.45-15.588-11.245-33.467-22.706-39.2-23.054-2.81-.17-9.163,4.512-16.262,10.82a25.03,25.03,0,0,1-.656,6.067,19.4,19.4,0,0,0-.686,2.465c-3.376,16.652,16.2,15.527,16.2,15.527a11.932,11.932,0,0,0,1.125,6.977c-5.9,1.347-27.5,1.925-37.662,2.1,24.62,2.7,99.376,2.216,101.93-1.1A130.583,130.583,0,0,0,368.061,779.787Z" transform="translate(-270.589 -747.566)" fill="#744c35"/>
      <path id="Path_5000" data-name="Path 5000" d="M287.989,842.454c-2.764-2.211-5.978-9.242-7.053-11.723.985,5.776,2.771,11.054,5.928,13.749,7.126,6.084,62.031,4.379,89.771,1.422l.377-3.293C337.345,848.443,291.22,845.039,287.989,842.454Z" transform="translate(-271.061 -764.814)" fill="#ffd188"/>
    </g>
    <g id="Group_3204" data-name="Group 3204" transform="translate(278.54 752.458)">
      <g id="Group_3201" data-name="Group 3201" transform="translate(35.953)">
        <path id="Path_5002" data-name="Path 5002" d="M326.654,771.86c-1.668-11.216,14.4-20.111,23.794-17.734-.606.456-.908,1.212-1.363,1.668,4.092-.758,12.58,3.335,15.309,6.366-3.031-1.97-6.063.606-8.337,2.274a19.616,19.616,0,0,1-9.395,3.788c1.363.759,3.03,1.213,4.394,2.123a45.831,45.831,0,0,0-11.518,4.244C337.565,775.5,326.654,771.86,326.654,771.86Z" transform="translate(-326.533 -753.738)" fill="#65b133"/>
        <path id="Path_5003" data-name="Path 5003" d="M329.706,768.679l-1.431-1.8a11.678,11.678,0,0,0-1.621,7.707s10.911,3.637,12.883,2.728a49.486,49.486,0,0,1,5.21-2.35C339.5,766.288,329.706,768.679,329.706,768.679Z" transform="translate(-326.533 -756.463)" fill="#603813" opacity="0.2" style="mix-blend-mode: multiply;isolation: isolate"/>
        <path id="Path_5004" data-name="Path 5004" d="M359.4,760.116c-3.394-1.588-7.3-1.825-10.988-2.364a19.351,19.351,0,0,1,1.938-2.2c.6-.514-8.079.935-10.2,2.941-1.58,1.492-2.95,5.663,1.534,4.366,4.783-1.385,12.389-2.123,17.807-2.276C359.732,760.581,359.628,760.221,359.4,760.116Z" transform="translate(-329.045 -754.094)" fill="#9cd221"/>
      </g>
      <g id="Group_3202" data-name="Group 3202" transform="translate(0 4.523)">
        <path id="Path_5005" data-name="Path 5005" d="M315.248,778.228c-5.494,1.125-12.492,1.792-17.342-1.391a10.935,10.935,0,0,0,2.819-1.672c-2.421-.843-7.915-1.9-10.63-4.218a12.489,12.489,0,0,1,2.78-2.051,15.658,15.658,0,0,0-11.7-5.25c5.153-3.636,15-4.546,21.068-4.091,7.73.758,16.066,4.85,17.733,13.338C320.125,774.1,315.248,778.228,315.248,778.228Z" transform="translate(-281.173 -759.446)" fill="#65b133"/>
        <path id="Path_5006" data-name="Path 5006" d="M311.032,768.678c-7.612-8.5-20.473-5.076-20.355-4.6s3.3,1.18,7.787,5.192c-.445.509-2.926,1.714-2.911,2.095.041.992,6.27,2.389,7.277,2.389C307.549,773.749,311.811,769.547,311.032,768.678Z" transform="translate(-283.144 -760.182)" fill="#9cd221"/>
      </g>
      <g id="Group_3203" data-name="Group 3203" transform="translate(31.612 13.858)">
        <path id="Path_5007" data-name="Path 5007" d="M326.579,772.3c-5.911,2.88-6.823,13.49-3.942,18.642a23.791,23.791,0,0,1,2.122-3.789c1.971,5.3,4.81,13.484,9.964,16.516,0,0,.6-3.472.6-4.381,3.114,4.98,12.78,7.72,18.387,7.871-2.424-5-5.3-8.489-6.063-14.246h.154a7,7,0,0,1,2.161-.24c-.3-4.245-4.132-10.371-7.618-13.1.606.153,1.515.153,2.123.3-3.79-4.851-10.133-10.607-17.105-8.015Z" transform="translate(-321.057 -771.223)" fill="#65b133"/>
        <path id="Path_5008" data-name="Path 5008" d="M334.846,789.691c.021-10.594-5.031-13.9-7.467-13.718-4.292.323-5.123,8.884-4.153,11.915.247.769,1.841-2.4,2.183-2.789,1.75,4.324,3.629,9.767,7.222,12.866C333.108,798.377,334.84,792.419,334.846,789.691Z" transform="translate(-321.431 -772.207)" fill="#9cd221"/>
      </g>
    </g>
  </g>
</svg>
