<svg xmlns="http://www.w3.org/2000/svg" width="488.28" height="173.606" viewBox="0 0 488.28 173.606">
  <g id="Group_3558" data-name="Group 3558" transform="translate(-716.001 -312.001)">
    <g id="Group_3512" data-name="Group 3512" transform="translate(572.821 521.823)">
      <path id="_Path_" data-name=" Path " d="M387.166-180.243s-32.937-47.872-71.763-21.812S280.951-93.482,391-36.216c0,0,98.921-62.376,90.758-123.673C473.71-220.417,404.161-223.494,387.166-180.243Z" fill="#ffe19a"/>
      <path id="_Path_2" data-name=" Path 2" d="M387.506-169.052s-37.849-53.378-72.441-22.231c-33.813,30.445-2.832,112.6,76.359,145.512,0,0,76.39-52.752,82.016-101.542C479.1-196.549,414.213-225.2,387.506-169.052Z" fill="#e48e4c"/>
      <path id="_Path_3" data-name=" Path 3" d="M387.506-169.052s-37.849-53.378-72.441-22.231c-33.813,30.445-2.832,112.6,76.359,145.512,0,0,76.39-52.752,82.016-101.542C479.1-196.549,414.213-225.2,387.506-169.052Z" fill="#e48845"/>
      <path id="_Compound_Path_" data-name=" Compound Path " d="M447.258-102.917l2.682,3.278a162.523,162.523,0,0,0,9.711-13.426h0c.118-.181.222-.367.339-.548.359-.558.7-1.121,1.053-1.679.285-.463.57-.917.846-1.38.415-.692.817-1.381,1.233-2.052.166-.283.335-.563.492-.846h0a88.135,88.135,0,0,0,7.464-16.948l.272-.872c.169-.582.332-1.16.486-1.738l.241-.939c.139-.584.271-1.186.416-1.751a.666.666,0,0,1,.031-.132h0c.379-1.784.7-3.57.9-5.343a50.093,50.093,0,0,0-.932-17.2h0c-.024-.1-.059-.2-.077-.3-.135-.544-.274-1.084-.428-1.619l-.123-.459c-.168-.581-.348-1.157-.541-1.723l-.09-.265a46.353,46.353,0,0,0-9.064-15.724l-1.262-1.4a11.724,11.724,0,0,0-.973-1l-.41-.362-.741-.7-.712-.642-.536-.46-.287-.256h0a44.836,44.836,0,0,0-10.993-6.843h0l-.3-.12c-.414-.179-.839-.349-1.259-.515-.208-.081-.412-.166-.624-.245-.61-.229-1.218-.438-1.835-.635-.228-.076-.461-.138-.694-.208-.432-.136-.868-.257-1.293-.39l-.72-.185c-.457-.113-.919-.22-1.382-.319l-.453-.108h0a40.517,40.517,0,0,0-12.149-.662h0c-.386.039-.783.1-1.192.132l-.246.025c-.408.058-.823.133-1.245.179-.144.026-.288.053-.438.075-.393.073-.8.159-1.184.234l-.42.1c-.972.221-1.945.46-2.912.749h0a41.2,41.2,0,0,0-10.847,5.161h0a4.311,4.311,0,0,1-.486.344,1.634,1.634,0,0,1-.343.233c-.374.261-.744.535-1.132.823l-.233.21c-.4.3-.8.607-1.2.927a.429.429,0,0,1-.067.061c-.87.707-1.726,1.441-2.576,2.234h0a57.044,57.044,0,0,0-8.822,10.635l5.148,6.6a59.474,59.474,0,0,1,9.083-10.313l11.441,14.665-7.987,13.1,4.891,5.432,7.994-12.262,8.5,10.9L422.8-136.3l4.082,6.155,8.83-13.568,9.156,11.7-8.648,14.228,4.43,6.937,8.936-15.114,7.373,9.457a116.487,116.487,0,0,1-9.7,13.59Zm21.877-43.195-4.379-5.373,4.861-8.113A44.537,44.537,0,0,1,469.135-146.112Zm-1.98-22.56-7,11.522-8.8-10.8,7.886-12.165a35.068,35.068,0,0,1,7.9,11.439Zm-13.1-15.857-7.182,11.073-8.6-10.6,4.4-6.77a42.374,42.374,0,0,1,11.373,6.284Zm-20.335-8.027-1.05,1.714-1.4-1.719a21.55,21.55,0,0,1,2.464-.028ZM412.455-186a39.959,39.959,0,0,1,10.869-5.264l5.4,6.885-6.64,10.885ZM427.11-166.97l6.938-10.638,8.493,10.816L435.552-156Zm12.828,16.659,7.026-10.84,8.789,11.206-6.863,11.282Zm13.626,17.692,6.794-11.473,6.152,7.878a92.687,92.687,0,0,1-5.718,13.032Z" fill="#d9773b"/>
      <path id="_Compound_Path_2" data-name=" Compound Path 2" d="M422.923-71.276l-3.246-4.352,7.7-12.9,5.69,7.61q2.928-2.927,5.823-6.011l-11.21-14.717-1.162-1.914-.135.215-9.5-12.464-3.638-7.393-.869,1.437-25.331-33.237-4.914,5.875.662.885-7.756,12.339-.231-.308-3.592,5.182.422.562-7.364,11.714-.091-.1-4.447,6.925.153.171-7.82,12.444-.6-.795-3.945,6.952.367.492-8.193,13q2.924,2.864,6.056,5.6l7.394-11.616,7.851,10.467-5.581,9.014q2.616,1.96,5.336,3.846l4.495-7.174,8.65,11.5-1.722,2.851q2.835,1.62,5.776,3.16l.211-.339.557.734c4.072,2.1,8.289,4.08,12.668,5.9l.351-.316a5.7,5.7,0,0,1,.471-.331h0c1.536-1.092,5.066-3.619,9.789-7.325h0l.678-.526.383-.345c.488-.382.982-.78,1.491-1.183l.191-.172c.548-.437,1.125-.9,1.707-1.369a5.624,5.624,0,0,1,.592-.486l.829-.661h0c.91-.736,1.826-1.486,2.774-2.274l6.043-9.916,2.234,2.96C420.2-68.813,421.567-70.037,422.923-71.276Zm-8.878-11.94-8.92-12.08,7.864-12.521,8.853,11.85ZM400.29-101.78l-7.953-10.736,7.829-12.424,7.793,10.434Zm-3.156,5.229-7.651,12.674L381.361-95.1l7.684-12.19Zm-8.862-44.312,7.288,9.757-7.735,12.5-7.385-9.959Zm-11.24,17.61,7.533,9.958-7.528,12.144-7.47-10.324ZM357.323-92.319,365.08-104.5l7.582,10.354-7.493,12.112Zm12.183,16,7.481-11.867,8.221,11.324-7.138,11.83Zm22.329,29.4-9.369-12.338,7.2-11.472,9.081,12.5Zm11.187-18.293-9.008-12.439,7.908-12.589,9.045,12.022Z" fill="#d9773b"/>
      <path id="_Compound_Path_3" data-name=" Compound Path 3" d="M331.968-98.635a125.931,125.931,0,0,1-9.665-14.62l4.179-6.039,8.706,11.926,3.593-5.182-8.715-11.934,9.1-13.151,8.733,12.012,3.7-6.683-8.2-11.346,9.434-13.625,8.426,11.438,4.34-5.443-8.971-11.585,13.432-19.4a80.194,80.194,0,0,1,9.791,10.2l2.308-3.613A106.738,106.738,0,0,0,370-187.524l-.407-.336q-1.134-.916-2.308-1.816l-.107-.119a66.613,66.613,0,0,0-11.548-7.1h0l-.356-.156c-.545-.251-1.093-.5-1.619-.752l-.633-.254c-.555-.222-1.11-.443-1.675-.645l-.62-.22c-.577-.192-1.149-.379-1.729-.558l-.669-.1c-.578-.163-1.166-.317-1.754-.453l-.3-.079h0a32.5,32.5,0,0,0-17.88.782h0c-.151.051-.3.118-.442.174-.563.2-1.125.414-1.685.646-.237.1-.473.2-.683.287-.594.265-1.187.553-1.78.852-.132.072-.262.125-.394.2h0a41.7,41.7,0,0,0-8.335,5.9,37.591,37.591,0,0,0-5.8,6.556.579.579,0,0,1-.082.074c-.294.433-.583.861-.855,1.308-.079.119-.154.233-.223.35-.23.367-.453.745-.669,1.128-.065.115-.134.224-.2.339h0a46.613,46.613,0,0,0-5.483,18.316h0c-.022.225-.033.451-.05.672s-.046.547-.064.826a64.042,64.042,0,0,0-.068,8.347h0a80.07,80.07,0,0,0,2.093,13.649h0l.234.913c.117.484.235.968.364,1.451l.569,2.025c.187.656.386,1.311.587,1.963s.394,1.259.605,1.9l.486,1.435.3.874h0a114.322,114.322,0,0,0,6.367,14.35h0l.3.543c.452.856.926,1.714,1.389,2.589.238.413.463.837.7,1.243q.848,1.458,1.735,2.9c.153.254.294.5.453.753h0a140.529,140.529,0,0,0,10.079,14.136Zm-6.878-32.672-8.411-11.508c2.875-3.993,6.047-8.4,9.325-12.947l8.382,11.534Zm13.582-18.876-8.366-11.558c3.209-4.463,6.435-8.94,9.495-13.184l8.435,11.448ZM364.8-186.49l-12.728,17.7-8.643-11.159L352.89-193.1a51.73,51.73,0,0,1,11.911,6.6Zm-21.942-8.771L337.5-187.63l-4.7-6.07a25.823,25.823,0,0,1,10.027-1.539Zm-8.809,12.483-9.336,13.236-8.085-11.173c.754-1.034,1.552-2.062,2.432-3.061a38.017,38.017,0,0,1,8.688-7.477Zm-21.337,8.716,7.69,10.621-9.213,13.071-2.215-3.042a43.906,43.906,0,0,1,3.736-20.649Zm-.648,37.66.966-1.339,8.4,11.515-3.444,4.786A105.653,105.653,0,0,1,312.06-136.4Z" fill="#d9773b"/>
      <g id="_Group_" data-name=" Group ">
        <path id="_Path_4" data-name=" Path 4" d="M332.708-86.952c8.846-13.4,41.063-62.122,54.808-82.119a94.133,94.133,0,0,0-6.417-7.813L327.512-93.056C329.149-91,330.893-88.969,332.708-86.952Z" fill="#d9773b"/>
        <path id="_Path_5" data-name=" Path 5" d="M449.912-99.605,391.763-176.8a75.179,75.179,0,0,0-4.258,7.748l57.53,75.27Q447.552-96.665,449.912-99.605Z" fill="#d9773b"/>
      </g>
      <path id="_Path_6" data-name=" Path 6" d="M379.734-178.336l-54,83.038q2.133,2.761,4.425,5.454l53.49-84.091C382.548-175.243,381.242-176.735,379.734-178.336Z" fill="#fdad59"/>
      <path id="_Path_7" data-name=" Path 7" d="M336.891-82.461q2.357,2.43,4.856,4.779l45.555-72.73L436.638-84.6q2.178-2.271,4.336-4.616l-53.505-73.139Z" fill="#fdad59"/>
      <path id="_Path_8" data-name=" Path 8" d="M451.315-101.375l-57.442-78.55q-1.8,2.559-3.522,5.447l57.625,77.245C449.106-98.6,450.2-99.965,451.315-101.375Z" fill="#fdad59"/>
      <path id="_Compound_Path_4" data-name=" Compound Path 4" d="M395.689-48.844l7.578-12.506,3.042,4.293q1.634-1.3,3.366-2.74l-3.951-5.594,9.325-15.381,7.458,9.875q1.6-1.438,3.2-2.951L417.47-84.759l10.44-17.218-3.719-2.27L414.66-88.483,403.5-103.246l10.689-17.733-3.73-2.261-9.788,16.248-9.537-12.61,10.145-16.132-3.673-2.311-9.244,14.783c-6.322-8.352-10.655-14.075-10.846-14.287l-3.278,2.839c.391.434,4.946,6.539,11.665,15.367l-8.621,13.707-11.026-15.6-3.541,2.5,12.068,17.062-9.752,15.509-10.4-13.719-3.454,2.622,11.4,15.017-9.128,14.521c1.122.863,2.3,1.751,3.474,2.611l8.475-13.464,10.14,13.342-5.322,8.884c1.251.746,2.49,1.455,3.759,2.158l4.376-7.264,11.083,14.607-.118.191c.706.306,1.4.616,2.11.909C391.4-45.751,392.976-46.841,395.689-48.844Zm16.566-35.673L403.016-69.27,392.223-84.532l8.882-14.739ZM388.7-115.681,398.3-103l-8.821,14.619-9.5-13.44ZM367.813-82.487l9.663-15.357,9.559,13.517-9.13,15.14Zm12.913,17.014,9.039-14.99,10.777,15.257-8.7,14.389Z" fill="#fdad59"/>
      <path id="_Compound_Path_5" data-name=" Compound Path 5" d="M338.932-147.389l14.1,19.19,15.062-23.441-13.646-17.869,13.692-19.515q-1.676-1.3-3.491-2.567l-12.95,18.467-10.961-14.307,8.56-11.892a39.4,39.4,0,0,0-4.543-1.116l-6.775,9.415-6.967-9.082a32.386,32.386,0,0,0-4.36,1.4l8.688,11.353L325.251-173.35l-11.932-16.241a37.193,37.193,0,0,0-2.91,3.36l12.181,16.587-10.962,15.235-9.29-12.814a54.68,54.68,0,0,0-.724,6.382l7.347,10.135-5.909,8.214c.372,1.837.817,3.705,1.3,5.6l7.269-10.1,11.064,15.242-10.538,15.031q1.086,2.157,2.277,4.3l10.953-15.619,12.62,17.353,3.5-2.546-13.484-18.588Zm23.887-4.05-10.035,15.59-11.223-15.288,10.266-14.655Zm-34.863-18.227,10.137-14.081L349.1-169.371l-10.219,14.584Zm-13.645,18.952,10.983-15.254,10.946,14.9-10.9,15.549Z" fill="#fdad59"/>
      <path id="_Compound_Path_6" data-name=" Compound Path 6" d="M464.832-121.789,451.36-139.226l8.46-13.844,11.762,14.9c.508-1.8.907-3.626,1.253-5.4l-10.61-13.457,8.353-13.663a45.537,45.537,0,0,0-2.155-4.773l-9.058,14.813-10.029-12.72,9.553-14.609c-1.071-1-2.184-1.936-3.336-2.821l-9.05,13.86-10.854-13.745,4.864-7.637a42.172,42.172,0,0,0-4.5-.984l-3.169,5.016-4.366-5.534a39.455,39.455,0,0,0-5.169.5l7.059,8.942-8.355,13.233-13.09-16.939c-1.216.73-2.425,1.528-3.619,2.406l14.248,18.433-12.494,19.806L422.372-132,435.664-152.4l10.429,13.486L433.9-118.978l3.714,2.273,11.327-18.522,13.6,17.6C463.335-119.041,464.107-120.41,464.832-121.789ZM433.218-186.8l10.8,13.686L435.38-159.9l-10.538-13.637Zm-10.986,47.072-9.933-13.9,10.081-16,10.5,13.581Zm15.988-16.558,8.666-13.257L457-156.722,448.522-142.9Z" fill="#fdad59"/>
    </g>
    <path id="Path_5057" data-name="Path 5057" d="M124.8-59.52q17.52,0,17.52,14.16,0,14.4-17.52,14.4h-8.88v13.68q0,9.12-5.04,13.92t-13.2,4.8q-8.16,0-13.2-4.8T79.44-17.28V-30.96H21.12q-7.44,0-11.76-4.44A15.357,15.357,0,0,1,5.04-46.56,23.8,23.8,0,0,1,9.6-60L81.12-162.24a18.261,18.261,0,0,1,7.2-6.12,21.1,21.1,0,0,1,9.12-2.04,18.854,18.854,0,0,1,12.96,4.92q5.52,4.92,5.52,13.56v92.4Zm-82.08,0H79.44v-52.8Z" transform="translate(710.961 483.4)" fill="#fdad59"/>
    <path id="Path_5056" data-name="Path 5056" d="M124.8-59.52q17.52,0,17.52,14.16,0,14.4-17.52,14.4h-8.88v13.68q0,9.12-5.04,13.92t-13.2,4.8q-8.16,0-13.2-4.8T79.44-17.28V-30.96H21.12q-7.44,0-11.76-4.44A15.357,15.357,0,0,1,5.04-46.56,23.8,23.8,0,0,1,9.6-60L81.12-162.24a18.261,18.261,0,0,1,7.2-6.12,21.1,21.1,0,0,1,9.12-2.04,18.854,18.854,0,0,1,12.96,4.92q5.52,4.92,5.52,13.56v92.4Zm-82.08,0H79.44v-52.8Z" transform="translate(1061.961 483.4)" fill="#fdad59"/>
  </g>
</svg>
