<svg xmlns="http://www.w3.org/2000/svg" width="150.437" height="151.315" viewBox="0 0 150.437 151.315">
  <g id="Group_3230" data-name="Group 3230" transform="translate(17376.756 24664.627)">
    <path id="Union_179" data-name="Union 179" d="M18.123,43.4c-.006-1.109.175-8.257.354-8.614l.305,1.217.869,3.687c1.238-.249,1.285-.652,3.619-.75,3.6-.15,7.727,1,11.026,1.987,4.686,1.407,8.989,2.807,14.356,3.206l.413.053a18.776,18.776,0,0,1-2.9.409c-4.827.42-15.049-3.547-21.456-4.1-4.282-.365-6.753,2.567-3.361,4.878l.019.016-.925,1.569A3.854,3.854,0,0,1,18.123,43.4ZM41.841,46.3h.006l-.015.008Zm4.889-5a17.617,17.617,0,0,0-2.689-1.428,46.834,46.834,0,0,0-5.961-2.195,74.279,74.279,0,0,0-13.9-2.437,50.841,50.841,0,0,1,12,.6A48.271,48.271,0,0,1,43.9,37.751c.752.246,1.623.68,2.313.857.158-2.249.41-5.022-.493-6.948s-2.326-2.31-4.507-3.187c-5.5-2.217-15.252-3.284-21.29-.624A4.4,4.4,0,0,0,18,29.422a8.466,8.466,0,0,0-.967,2.435c-.191.207-10.231,1.791-15.261-6.662A13.819,13.819,0,0,1,0,19.584l.031-2.253a23.014,23.014,0,0,1,2.036-5.547,11.037,11.037,0,0,1,2.9-2.855c3.24-2.254,6.682-2.075,8.634-2.771a32.236,32.236,0,0,0,8.6-2.439A10.871,10.871,0,0,0,24.377,2.3c-.148.361-.37.473-.595.739a.65.65,0,0,0-.108.126c-.105.148-.058.064-.105.171A23.88,23.88,0,0,1,21.441,4.9C14.448,8.976,1.7,7.445,1.984,18.962a8.389,8.389,0,0,0,.576,2.951,8.906,8.906,0,0,0,1.608,2.821c2.16,2.673,6.288,4.988,9.975,3.7a5.154,5.154,0,0,0,2.723-2.125,11.639,11.639,0,0,1-3.179-3.232,13.684,13.684,0,0,1-1.762-4.692c.154.332,1.633,2.2,2.009,2.657,3.953,4.938,7.7,4.79,13.567,4.284a13.21,13.21,0,0,0,3.487-1.018,4.732,4.732,0,0,0,2.6-3.013c1.007,1.3-.314,3.156-.456,3.7,5.184.074,8.548-4.424,8.687-9.573l.025-.846c0,.188.361,1.579.419,1.985A12.957,12.957,0,0,1,42.4,18.5a9.967,9.967,0,0,1-.622,3.543c-.5,1.195-1.669,2.979-2.733,3.427l.3.146a12.833,12.833,0,0,0,2.757.4,8.529,8.529,0,0,0,3.99-1.733,13.146,13.146,0,0,0,1.136-.96,8.155,8.155,0,0,0,1.821-2.3c.12,2.542-1.6,4.54-3.534,5.849a14.156,14.156,0,0,0,5.3,2.172,11.528,11.528,0,0,0,6.549-.627c3.019-1.229,6.226-4.461,6.67-8.419a7.64,7.64,0,0,0-6.426-8.446,10.554,10.554,0,0,0-6.284,1.029,14.219,14.219,0,0,0-2.351,1.38,6.841,6.841,0,0,0-.979.885,7.915,7.915,0,0,1-.893,1.02,14.593,14.593,0,0,1,.93-2.847c.2-.415.573-.8.462-1.285C45.618-.265,33.8,3.561,25.837,6.966c-3.848,1.645-9.771,3.379-14.032,3.211l4.023-1.266C21.693,6.661,29.639,1.44,35.107.28,42.019-1.184,49.835,3.2,50.528,10.718c.253-.017.438-.2.708-.332,5-2.444,12.264-.212,14.378,5.195,1.506,3.851.092,8.651-2.036,11.574a9.793,9.793,0,0,1-5.961,4.052c-3.275.776-5.871.164-9-.322l.043,12.606A5.366,5.366,0,0,0,46.73,41.3ZM41.844,14.57v.005S41.844,14.571,41.844,14.57Z" transform="translate(-17334.861 -24664.627)" fill="#a57f45"/>
    <path id="Path_4923" data-name="Path 4923" d="M39.726,7.308c.733-.809,3.12-1.646,4.246-2.1,2.579-1.044,6.237-.846,8.938-.514.787.1,1.3.148,2.054.3a20.357,20.357,0,0,1,1.976.5l2.012.376a31.17,31.17,0,0,1,5.9,1.7c.4.168.574.164.967.313a41.722,41.722,0,0,1,6.242,3.252c.491.325,3.205,1.926,3.169,2.6l-3.7-2.4A35.028,35.028,0,0,0,59.165,6.657C53.63,5.771,48.722,9.492,43.9,8.8A7.9,7.9,0,0,1,39.726,7.308ZM18.6,6.587a20.889,20.889,0,0,1,7.162-4.61A25.711,25.711,0,0,1,35.029.693c1.951.166,2.057-.147,4.149-.366A53.023,53.023,0,0,1,48.8.139l6.72,1.072.343.091c.368.142.22-.2.26.21.029.351-1.059-.054-1.323-.113l-6-.832C46,.471,38.27.488,35.552,1.585A23.62,23.62,0,0,0,30.079,4.26,22.61,22.61,0,0,1,27,5.947a19.776,19.776,0,0,1-4.676,1.038c3.066.816,4.152,2.771,6.509,4.864A50.805,50.805,0,0,0,33.5,15.216c1.487,1.022,8.3,6.092,8.871,7.692l-.233.076c-1.027-1.692-7.727-6.434-9.135-7.338-.426-.28-.758-.5-1.2-.77-3.414-2.087-2.9-.926-6.791-2.312a26.229,26.229,0,0,1-3.2-1.42C12.829,7.8,5.93,6.587,0,6.449V3.165C8.3,2.9,15.424,3.589,18.6,6.587Zm50.839,17.4A15.8,15.8,0,0,0,67.888,20.8c-.446-.654-.929-1.167-1.346-1.761a4.568,4.568,0,0,1,2.925.377,9.038,9.038,0,0,1,2.445,1.746,19.356,19.356,0,0,1,2.052,2.425,36.112,36.112,0,0,0,2.976,4.127A38.727,38.727,0,0,1,83.55,38.05l-.22.089c-1.539-3.574-4.726-8.692-7.978-10.533-1.707-.962-3.539-1.652-5.309-2.484C69.393,24.818,69.751,24.755,69.442,23.987ZM55.985,27.006c-.52.149-.489-.045-1.343-.895-.428-.426-.85-.724-1.245-1.134l-7.46-6.828c-1.938-1.462-3.254-2.376-5.183-4.071a23.7,23.7,0,0,1-4.017-4.869c-.455-.694-1.072-1.179,1.238-.977a6.8,6.8,0,0,1,1.581.333c2.546.834,3.667,2.18,4.97,4.562.267.5.606,1.313.933,1.867,1.285,2.178.244,1.92,3.162,4.746ZM53.74,15.16c-.487-1.218-.83-1.664.022-1.577a6.382,6.382,0,0,1,2.979,1.151c3.782,2.514,3.295,4.941,4.748,8.516,1.007,2.511.644,1.812,2.469,3.6l4.006,4.038c.379.4.659.717,1,1.073a5.328,5.328,0,0,1,.971,1.137l-.334.135-1.989-2.146c-2.068-2.149-4.448-4.009-6.341-5.836-2.371-2.284-4.149-3.591-5.966-6.712A28.8,28.8,0,0,1,53.74,15.16Zm8.505,5.87a6.733,6.733,0,0,1-.807-3.244,7.117,7.117,0,0,1,4.881,2.628c1.507,1.835,2.481,5.14,3.573,7.855a5.264,5.264,0,0,0,1.942,2.274c1.66,1.451,5.053,5.352,5.858,7.2l-.222.087a30.787,30.787,0,0,0-3.582-4.621C70.348,29.392,64.94,27.681,62.245,21.03ZM44.636,10.3a12.79,12.79,0,0,1,1.595.09,9.371,9.371,0,0,1,3.965,2.2c2.351,2.126,2.979,7.395,5.522,10.332,1.043,1.2,3.3,3.715,4.51,4.791a25.974,25.974,0,0,1,2.427,2.207c-.428.054-.639-.205-1.3-.793l-5.932-5.511c-.819-.8-1.561-1.612-2.384-2.312a30.179,30.179,0,0,1-4.7-4.556,24.1,24.1,0,0,1-2.014-2.968A14.272,14.272,0,0,1,44.636,10.3ZM82.794,29.555l-.332.132a21.085,21.085,0,0,0-2.29-3.821A28.036,28.036,0,0,0,77.606,22.7c-1.209-1.259-3.38-3.481-5.118-3.979a20.873,20.873,0,0,0-5.464-.818A11.156,11.156,0,0,1,62.1,16.865l-1.287-.61C60.4,16,57.8,14.274,58.2,13.832c.5-.548,5.845-.871,7.767-.083l2.46,1.049c4.306,2.123,10.773,8.077,13.251,12.667C82.016,28.087,82.422,29.032,82.794,29.555Zm-57.3-22.1a10.319,10.319,0,0,1,7.157.262c2.808,1.2,3,3.029,4.979,5.4a21.914,21.914,0,0,0,2.546,2.555L42.864,17.9c1.507,1.328,3.044,2.982,4.481,4.441.635.654.626.5.534.71-.177.406-.778-.4-1.269-.906-.408-.408-.834-.832-1.3-1.237L42,18a9.542,9.542,0,0,0-3.548-2.334C33.006,14.249,30.373,10.454,27,8.415A8.615,8.615,0,0,1,25.49,7.456ZM48.8,9.885A16.661,16.661,0,0,1,56.788,8.4l2.07.267a35.705,35.705,0,0,1,8.319,2.875c.372.177.48.3.89.473a36.6,36.6,0,0,1,5.154,3.054c.534.4,1.05.729,1.588,1.179,1.038.871,4.181,3.518,4.654,4.453l-.222.09a5.526,5.526,0,0,0-.769-.767c-3.109-3.145-8.983-7.517-12.98-8.141-5.616-.872-7.9,1.668-13.141.122C51.459,11.74,49.256,10.936,48.8,9.885ZM31.418,5.7a14.8,14.8,0,0,1,3.889-2.619c3.138-1.71,5.686-1.985,9.149-2.005a23.031,23.031,0,0,1,4.212.345c1.3.25,2.716.281,4.075.453A48,48,0,0,1,64.478,4.847c.792.327.644.645-.713.164-.35-.126-.574-.274-.933-.385l-2.893-.878c-.664-.211-1.3-.312-1.972-.486a38.892,38.892,0,0,0-8.18-1.047c-2.907.087-5.188,1.477-7.242,2.3l-2.416.977a14.279,14.279,0,0,1-4.623.83C34.448,6.345,32.2,6.227,31.418,5.7Z" transform="matrix(0.998, 0.07, -0.07, 0.998, -17318.771, -24557.186)" fill="#a57f45"/>
    <path id="Union_178" data-name="Union 178" d="M44.786,65.783c-.094-4.981,8.312-17.5,17.773-22.122l1.891-.915a2.647,2.647,0,0,0,.567-.325L66.116,40c-1.243,1.541-2.465,2.324-3.7,2.342a2.911,2.911,0,0,1-1.727-.475,4.279,4.279,0,0,1-2.505-2.182,7.918,7.918,0,0,1-.843-2.77,22.37,22.37,0,0,1-1.657,3.577A4.386,4.386,0,0,1,52.764,42.9a2,2,0,0,1-1.532-.343,4.245,4.245,0,0,1-1.124-1.274,8.091,8.091,0,0,1-.774-1.709,10.037,10.037,0,0,1-.419-1.664c-.04-.332-.081-.709-.114-1.133a8.607,8.607,0,0,1,.056-1.357l-.016-.126-.215.675a26.042,26.042,0,0,1-2.676,6.213,4.442,4.442,0,0,1-2.907,2.149,2.871,2.871,0,0,1-2.189-.44A4.845,4.845,0,0,1,38.6,41.849a11.721,11.721,0,0,1-.738,2.279,2.832,2.832,0,0,1-1.234,1.5l-.117.052.435.007a5.42,5.42,0,0,1-4.3.166,6.667,6.667,0,0,1-3.364-3.53,21.906,21.906,0,0,1-1.808-8.745,73.626,73.626,0,0,1,.707-12.394q.542-3.8,1.135-6.6a44.072,44.072,0,0,1,1.332-4.964,20.376,20.376,0,0,1,1.691-3.806,21.025,21.025,0,0,1,2.214-3.1A5.782,5.782,0,0,1,35,1.9c.159-.251.316-.5.475-.767a12.037,12.037,0,0,0-6.421,3.382,20.019,20.019,0,0,0-4.365,6.836,40.212,40.212,0,0,0-2.422,9.712,78.676,78.676,0,0,0-.608,11.952q.1,3.913.038,7.6a34.529,34.529,0,0,1-.756,6.915,17.615,17.615,0,0,1-2.326,5.731A11.3,11.3,0,0,1,13.926,57.3a9.333,9.333,0,0,1-3.8,1.032A9.088,9.088,0,0,1,6.612,57.8,8.782,8.782,0,0,1,3.665,55.97,9.718,9.718,0,0,1,1.541,53.1,16.444,16.444,0,0,1,0,46.476a19.149,19.149,0,0,1,.868-6A15.038,15.038,0,0,1,3.3,35.741,9.528,9.528,0,0,1,6.5,32.924a5.448,5.448,0,0,1,4.107-.467,4.944,4.944,0,0,1,3.017,2.75,8.983,8.983,0,0,1,.9,3.331,11.061,11.061,0,0,1-.215,3.432,8.867,8.867,0,0,1-1.249,2.983,5.437,5.437,0,0,1-2.131,1.965,2.593,2.593,0,0,1-1.525.292,1.148,1.148,0,0,1-.942-.558.329.329,0,0,1,.175-.507c.074-.043.182-.018.31.058l.341.117c.316.267.789.249,1.391-.052a4.894,4.894,0,0,0,1.783-1.83,8.957,8.957,0,0,0,1.032-2.774,11.335,11.335,0,0,0,.166-3.156,8.062,8.062,0,0,0-.8-2.99A4.055,4.055,0,0,0,10.246,33.2a5.019,5.019,0,0,0-3.524.469,7.661,7.661,0,0,0-2.75,2.591A16.305,16.305,0,0,0,1.842,40.6a17.264,17.264,0,0,0-.875,5.087,10.226,10.226,0,0,0,1.016,4.865A5.323,5.323,0,0,0,3.64,52.556a5.923,5.923,0,0,0,2.3,1.025,7.171,7.171,0,0,0,2.665.025,8.273,8.273,0,0,0,2.741-.967,9.36,9.36,0,0,0,4.365-3.6A20.227,20.227,0,0,0,18.25,43.28a52.975,52.975,0,0,0,1.4-7.265c.318-2.631.635-5.322.926-8.079s.641-5.5,1.056-8.222a40.609,40.609,0,0,1,1.931-7.626A23.565,23.565,0,0,1,27.02,5.756,14.53,14.53,0,0,1,32.641,1.4a18.343,18.343,0,0,1,1.783-.74,17.591,17.591,0,0,1,1.8-.5A6.937,6.937,0,0,1,37.705,0c.4.007.65.092.727.24a.289.289,0,0,1-.15.426l-.543.058a2.292,2.292,0,0,0-1.074.251c-.532.256-1.025,1.222-1.458,2.907a47.657,47.657,0,0,0-1.148,6.563q-.478,4.057-.709,9.384-.225,5.349-.126,11.3c.058,3.647.191,6.4.419,8.276a13.361,13.361,0,0,0,1.023,4.223,2.8,2.8,0,0,0,.859,1.1.821.821,0,0,0,.89.159c.749-.375,1.274-1.516,1.557-3.414.034-.218.063-.449.094-.693a11.652,11.652,0,0,1-.727-2.691,16.5,16.5,0,0,1,.258-6.069,22.7,22.7,0,0,1,2.14-5.906,18.52,18.52,0,0,1,3.391-4.623,7.5,7.5,0,0,1,4.08-2.225.822.822,0,0,1,.375,0A5.711,5.711,0,0,1,48.509,19q2.759-.424,3.279,2.958l.094.624,1.265-4.3,5.448-.832L53.948,33.485q-.488,1.484-.886,3.046c-.265,1.043-.473,1.94-.608,2.691a9.051,9.051,0,0,0-.213,1.956c.09.583.381.843.881.758q1.2-.175,2.9-3.647c.153-.368.3-.751.46-1.157s.341-.933.567-1.568c.054-.155.112-.323.173-.5a15.449,15.449,0,0,1,1.2-5.71,23.306,23.306,0,0,1,3.241-5.607,17.74,17.74,0,0,1,4.522-4.122,9.759,9.759,0,0,1,5.138-1.64c1.817-.036,2.732,1.13,2.774,3.5l.009.509,1.83-4.091,5.39-.083L72.037,37.93a21.089,21.089,0,0,0,6.056-7.016c.018-.123.04-.206.092-.238l.157-.3c.02-.029.045-.065.072-.11a4.381,4.381,0,0,1,.2-.4.181.181,0,0,1,.067-.063c.087-.153.188-.33.3-.538.332-.574.666-1.142,1.029-1.7a42.981,42.981,0,0,1,4.549-6.54c1.166-1.265,2.164-1.848,3.008-1.738a2.047,2.047,0,0,1,1.592,1.173,6.5,6.5,0,0,1,.715,2.508,14.75,14.75,0,0,1-.011,3.032,13.543,13.543,0,0,1-.538,2.739L88.8,29.95l5.289.576c.384-.684.765-1.35,1.164-2.007s.81-1.317,1.236-1.983l3.4-5.6,5.733.682-8.839,14.2c-.424.666-.839,1.35-1.265,2.048s-.792,1.357-1.135,2c-.325.639-.6,1.216-.832,1.723a4.2,4.2,0,0,0-.4,1.191c-.065.59.15.908.641.973.884.11,2.124-.814,3.707-2.748.258-.316.507-.648.758-1s.581-.8.955-1.355c.182-.253.379-.532.59-.839a16.708,16.708,0,0,1,2.777-5.134,22.546,22.546,0,0,1,4.463-4.407,18.38,18.38,0,0,1,5.055-2.714,7.439,7.439,0,0,1,4.641-.258.782.782,0,0,1,.35.166,6.97,6.97,0,0,1,.94.15c1.783.543,2.351,1.9,1.684,4.08l-.177.608,2.983-3.331,5.282,1.581-11.1,12.477c-.715.76-1.409,1.55-2.1,2.375s-1.267,1.557-1.709,2.164a7.934,7.934,0,0,0-1.032,1.675c-.184.565-.016.924.464,1.072q1.151.336,4.2-2.048c.292-.267.6-.55.908-.848s.709-.7,1.184-1.169a17.268,17.268,0,0,1,1.57-1.384,7.463,7.463,0,0,1,1.568-1.137A6.209,6.209,0,0,1,124.027,41a3.938,3.938,0,0,1,2.29.458,2.654,2.654,0,0,1,1.59,1.974,3.692,3.692,0,0,1-.4,2.3,3.306,3.306,0,0,1-1.088,1.281,3.756,3.756,0,0,1-1.343.585,3.651,3.651,0,0,1-1.348.049,3.125,3.125,0,0,1-1.05-.31,3.3,3.3,0,0,1-1.391-1.323,2.892,2.892,0,0,1-.341-1.79,3.028,3.028,0,0,0-2.016,1.8,5.838,5.838,0,0,0-.632,2.925,3.672,3.672,0,0,0,1.483,2.822,4.056,4.056,0,0,0,2.857.094,21.465,21.465,0,0,0,3.4-1.328q1.773-.861,3.566-1.747a13.6,13.6,0,0,1,3.38-1.2,3.788,3.788,0,0,1-1.734-.724,4.063,4.063,0,0,1-1.225-1.467,4.6,4.6,0,0,1-.482-1.965,5.116,5.116,0,0,1,.516-2.3,8.875,8.875,0,0,1,2.456-3.3,9,9,0,0,1,3.216-1.718,8.988,8.988,0,0,1,6.688.677,3.5,3.5,0,0,1,1.218,1.029,2.17,2.17,0,0,1,.44,1.409l-.034.341,1-.971,5.4,2.815L137.92,51.955c-1.265.96-2.492,1.942-3.69,2.934a10.18,10.18,0,0,0-2.2,2.281c-.267.527-.186.911.267,1.142a1.95,1.95,0,0,0,1.13.159,5.558,5.558,0,0,0,1.723-.558,25.738,25.738,0,0,0,2.525-1.4c.991-.608,2.167-1.406,3.542-2.4l2.88-2.075c.24-.2.442-.267.592-.182.191.09.224.256.108.48l-.292.276L142.9,53.772a29.55,29.55,0,0,1-7.336,4.782c-1.817.7-3.183.8-4.131.307a2.343,2.343,0,0,1-1.409-2.348,8.349,8.349,0,0,1,1.018-3.3,16.385,16.385,0,0,1,2.164-3.189,14.241,14.241,0,0,1,2.149-2.057,8.086,8.086,0,0,0-3.833.964c-1.373.684-2.788,1.375-4.221,2.075a27.182,27.182,0,0,1-4.23,1.651,5.152,5.152,0,0,1-3.782-.227,5.279,5.279,0,0,1-1.866-2.914,5.535,5.535,0,0,1,.617-3.692,22.217,22.217,0,0,1-2.781,2.292,4.425,4.425,0,0,1-3.683.906,1.982,1.982,0,0,1-1.231-.967,4.3,4.3,0,0,1-.469-1.631,8.47,8.47,0,0,1,.043-1.873,10.072,10.072,0,0,1,.334-1.684,11.133,11.133,0,0,1,.39-1.072,9.043,9.043,0,0,1,.624-1.2l.043-.126-.491.516a26.073,26.073,0,0,1-5.071,4.457,4.4,4.4,0,0,1-3.55.691,2.855,2.855,0,0,1-1.79-1.332,4.838,4.838,0,0,1-1.164-2.833,8.742,8.742,0,0,1,.036-1.85,16.976,16.976,0,0,1-2.353,2.7q-2.173,1.948-3.739,1.756a2.173,2.173,0,0,1-1.359-.639,3.718,3.718,0,0,1-.866-1.375,6.6,6.6,0,0,1-.39-1.832,10.746,10.746,0,0,1,.049-2.007,12.383,12.383,0,0,1,.967-3.2,37.7,37.7,0,0,1,2.09-4.223l-5.239-.556-.608,1.465-6.446,10.71-5.6-.666L80.7,34.167c.807-1.359,1.608-2.741,2.416-4.147s1.523-2.734,2.149-3.956c.641-1.227,1.175-2.283,1.608-3.192a8.021,8.021,0,0,0,.693-1.864c.058-.509-.076-.776-.419-.819-.664-.074-1.5.516-2.508,1.783a69.82,69.82,0,0,0-3.945,5.814l-.951,1.608a7.19,7.19,0,0,0-.491.832l-.316.6c-.022.029-.045.054-.067.081l-.11.2a19.812,19.812,0,0,1-2.68,4.064,21.3,21.3,0,0,1-3.656,3.456l-.933.65-.126.126-2.682,5.749c-.541,1.157-.955,2.054-1.258,2.714s-4.412,8.644-4.638,9.07-.406.783-.55,1.056-.3.617-.523.985a32.1,32.1,0,0,1-4.558,5.879c-2.057,2.066-6.352,5.4-9.3,5.4C46.109,70.25,44.838,69.082,44.786,65.783Zm3.064-1.915a7.839,7.839,0,0,0-1.207,3.663c.025,1.092.516,1.635,1.483,1.619,1.449-.02,3.131-1.46,5.129-4.266a55.758,55.758,0,0,0,3.582-5.8c1.225-2.285,6.154-12.011,7.146-14.31l.543-1.274C57.871,47.391,51.474,57.363,47.85,63.867Zm92.485-26.02a11.593,11.593,0,0,0-2.916,1.124,16.425,16.425,0,0,0-2.848,1.942,11.079,11.079,0,0,0-2.106,2.324,3.779,3.779,0,0,0-.727,2.155,1.776,1.776,0,0,0,1.234,1.541,2.778,2.778,0,0,0,2.348-.2,16.721,16.721,0,0,0,2.689-1.588,23.856,23.856,0,0,0,2.3-1.877c.65-.608,1.043-.98,1.16-1.108a7.18,7.18,0,0,0,1.449-1.814,1.992,1.992,0,0,0,.265-.648,1.706,1.706,0,0,0,.11-.951.949.949,0,0,0-.525-.7,2.971,2.971,0,0,0-1.4-.332A4.391,4.391,0,0,0,140.335,37.847Zm-26.17-9.613a34.871,34.871,0,0,0-5.847,5.257q-5.3,5.484-6.314,8.877a2.871,2.871,0,0,0-.043,1.875,1.579,1.579,0,0,0,1.086,1.016c1.047.325,2.806-.608,5.271-2.781q1.85-1.749,3.99-4.015c1.424-1.516,2.723-2.974,3.9-4.389a14.12,14.12,0,0,0,2.8-4.448,2.863,2.863,0,0,0,.022-1.749,1.441,1.441,0,0,0-.991-.991,1.929,1.929,0,0,0-.48-.056A6.73,6.73,0,0,0,114.165,28.234Zm-65.091-8.1c-.908.182-1.891,1.142-2.931,2.88a35.618,35.618,0,0,0-3.014,7.256Q40.716,37.5,41.254,41.012a2.91,2.91,0,0,0,.776,1.7,1.558,1.558,0,0,0,1.415.46Q45.08,42.921,47,38.4c.619-1.59,1.234-3.371,1.875-5.354s1.175-3.856,1.633-5.641a13.6,13.6,0,0,0,.608-5.215A2.846,2.846,0,0,0,50.4,20.6a1.475,1.475,0,0,0-1.081-.482A1.523,1.523,0,0,0,49.074,20.133Zm22.59-.951c-.859.009-1.924.841-3.225,2.492a36.875,36.875,0,0,0-4.03,6.753c-2.218,4.558-3.29,8.039-3.248,10.445a2.929,2.929,0,0,0,.491,1.732,1.563,1.563,0,0,0,1.375.641c.848-.018,1.839-.807,2.972-2.391a50.64,50.64,0,0,0,4.214-7.861q.912-2.049,1.649-3.773a24.715,24.715,0,0,0,1.077-2.992,8.968,8.968,0,0,0,.473-2.8A2.735,2.735,0,0,0,72.9,19.79a1.438,1.438,0,0,0-1.182-.608Z" transform="translate(-17376.756 -24611.615)" fill="#e31e24"/>
    <path id="Path_5017" data-name="Path 5017" d="M7697.021,3511.635a70.082,70.082,0,0,1,7.359-.727c3.456-.111-3.014,7.975-3.014,7.975a42.026,42.026,0,0,0-8.949,1.449C7687.542,3521.67,7697.021,3511.635,7697.021,3511.635Z" transform="translate(-25027.232 -28067.189)" fill="#fff"/>
    <path id="Path_4936" data-name="Path 4936" d="M48.119,0c-.045.081-.1.175-.141.26-.574,1.072-1.077,2.1-1.723,3.1C30.483,3,22.736,9.64,1.651,6.908A2.34,2.34,0,1,1,3.028,2.436C8.055,4.856,30.515.569,48.119,0Z" transform="matrix(1, -0.017, 0.017, 1, -17367.061, -24553.553)" fill="#a57f45"/>
    <g id="Group_3223" data-name="Group 3223" transform="translate(-17325.391 -24615.236)">
      <g id="Group_3222" data-name="Group 3222">
        <path id="Path_5026" data-name="Path 5026" d="M49.149,8.991A4.067,4.067,0,0,1,47.7,7.229a7.071,7.071,0,0,1-.573-2.417,12.936,12.936,0,0,1,.136-3.388A4.825,4.825,0,0,1,48.15-.66a5.262,5.262,0,0,1,1.639-1.305,12.689,12.689,0,0,1,1.661-.708A17.761,17.761,0,0,0,53.383-3.5a.807.807,0,0,1,.328-.092.558.558,0,0,1,.431.138.558.558,0,0,1,.183.384.63.63,0,0,1-.082.349.769.769,0,0,1-.3.292,5.3,5.3,0,0,1-.892.482q-.487.207-1.244.487Q50.626-1,50.4-.9A3.4,3.4,0,0,0,48.74.542a4.827,4.827,0,0,0-.477,2.628,3.571,3.571,0,0,1,1.117-1.6,3.381,3.381,0,0,1,2-.74,3.469,3.469,0,0,1,2.709.912A4.548,4.548,0,0,1,55.329,4.9a4.977,4.977,0,0,1-.337,2.223,3.846,3.846,0,0,1-1.305,1.688,3.979,3.979,0,0,1-2.15.741A3.7,3.7,0,0,1,49.149,8.991Zm4.242-1.716a4,4,0,0,0,.484-2.259,3.671,3.671,0,0,0-.8-2.261A2.18,2.18,0,0,0,51.2,2.044a2.49,2.49,0,0,0-1.5.565,2.772,2.772,0,0,0-.841,1.252,3.922,3.922,0,0,0-.2,1.518,3.971,3.971,0,0,0,.762,2.211,2.57,2.57,0,0,0,3.975-.315Z" transform="translate(-47.076 3.598)"/>
        <path id="Path_5027" data-name="Path 5027" d="M64.161.043a.72.72,0,0,1,.474.176.545.545,0,0,1,.211.438.55.55,0,0,1-.069.281L59.856,11.588a.672.672,0,0,1-.254.3.637.637,0,0,1-.342.105.7.7,0,0,1-.465-.166.532.532,0,0,1-.2-.43.619.619,0,0,1,.07-.281l1.225-2.654L56.4.949a.521.521,0,0,1-.07-.263.575.575,0,0,1,.236-.458.8.8,0,0,1,.518-.193.645.645,0,0,1,.342.1.681.681,0,0,1,.255.3l2.942,6.582L63.546.465A.642.642,0,0,1,64.161.043Z" transform="translate(-46.172 3.953)"/>
        <path id="Path_5028" data-name="Path 5028" d="M67.673,6.722a4.107,4.107,0,0,1-1.979,2.115.749.749,0,0,1-.3.037.6.6,0,0,1-.423-.179.531.531,0,0,1-.146-.412.685.685,0,0,1,.1-.329.606.606,0,0,1,.276-.233,2.713,2.713,0,0,0,1.042-.932,4.593,4.593,0,0,0,.591-1.615,19.641,19.641,0,0,0,.286-2.719L67.2,1.035A.741.741,0,0,1,67.417.5a.714.714,0,0,1,.536-.166L72.6.57a.738.738,0,0,1,.526.221.692.692,0,0,1,.176.536l-.364,7.227a.653.653,0,0,1-.227.481.725.725,0,0,1-.528.167.7.7,0,0,1-.5-.22.66.66,0,0,1-.167-.5l.345-6.823-3.35-.169-.052,1.018A12.4,12.4,0,0,1,67.673,6.722Z" transform="translate(-45.343 3.982)"/>
        <path id="Path_5029" data-name="Path 5029" d="M76.635,9.073a3.643,3.643,0,0,1-1.252-1.7,5.231,5.231,0,0,1-.25-2.384,5.2,5.2,0,0,1,.744-2.279,3.62,3.62,0,0,1,1.577-1.4A4.109,4.109,0,0,1,79.633,1a4.161,4.161,0,0,1,2.073.766,3.616,3.616,0,0,1,1.261,1.7,5.217,5.217,0,0,1,.251,2.384,5.219,5.219,0,0,1-.744,2.279,3.607,3.607,0,0,1-1.587,1.4,4.172,4.172,0,0,1-2.188.316A4.123,4.123,0,0,1,76.635,9.073Zm4.206-1.031a3.793,3.793,0,0,0,.928-2.348,3.765,3.765,0,0,0-.428-2.473A2.615,2.615,0,0,0,77.5,2.815a3.761,3.761,0,0,0-.934,2.329,3.793,3.793,0,0,0,.417,2.482,2.666,2.666,0,0,0,3.859.416Z" transform="translate(-44.34 4.045)"/>
        <path id="Path_5030" data-name="Path 5030" d="M89.6,11.161a.656.656,0,0,1-.112-.525l.441-2.74a5.028,5.028,0,0,1-1.055.2,4.981,4.981,0,0,1-1.228-.047A3.494,3.494,0,0,1,85.485,7a2.666,2.666,0,0,1-.469-2.282l.366-2.271a.688.688,0,0,1,.271-.472.71.71,0,0,1,.551-.106.663.663,0,0,1,.582.8l-.34,2.115a1.828,1.828,0,0,0,.265,1.5,2.1,2.1,0,0,0,1.344.661,3.583,3.583,0,0,0,2.06-.2L90.669,3.3a.69.69,0,0,1,.272-.472.715.715,0,0,1,.551-.106.664.664,0,0,1,.582.8l-1.182,7.336a.652.652,0,0,1-.27.462.708.708,0,0,1-.531.1A.734.734,0,0,1,89.6,11.161Z" transform="translate(-43.377 4.131)"/>
        <path id="Path_5031" data-name="Path 5031" d="M93.413,11.834a.654.654,0,0,1-.079-.53l1.617-7.251a.687.687,0,0,1,.3-.456.713.713,0,0,1,.557-.074.664.664,0,0,1,.532.839l-.664,2.982,4.49,1,.665-2.983a.672.672,0,0,1,.307-.453.717.717,0,0,1,.548-.076.666.666,0,0,1,.533.839l-1.592,7.22a.67.67,0,0,1-.861.547.716.716,0,0,1-.462-.3.69.69,0,0,1-.083-.558l.7-3.12-4.492-1-.7,3.154a.659.659,0,0,1-.3.447.713.713,0,0,1-.537.069A.737.737,0,0,1,93.413,11.834Z" transform="translate(-42.561 4.292)"/>
        <path id="Path_5032" data-name="Path 5032" d="M110.668,10.782l-1.351,4.58a.708.708,0,0,1-.322.437.658.658,0,0,1-.533.044.664.664,0,0,1-.476-.873l.239-.809a2.515,2.515,0,0,1-1.308.833,3.018,3.018,0,0,1-1.632-.052,3.467,3.467,0,0,1-1.362-.75,2.708,2.708,0,0,1-.79-1.2,2.3,2.3,0,0,1-.015-1.378,2.134,2.134,0,0,1,.9-1.3,2.976,2.976,0,0,1,1.767-.284,15.977,15.977,0,0,1,3.066.657l.371.109.164-.555a2.314,2.314,0,0,0,.025-1.6,1.771,1.771,0,0,0-1.2-.866A5.151,5.151,0,0,0,105.7,7.7a1.6,1.6,0,0,1-.724.1.448.448,0,0,1-.292-.251.584.584,0,0,1-.021-.427.663.663,0,0,1,.266-.37,1.727,1.727,0,0,1,.569-.226,5.644,5.644,0,0,1,1.5-.135,6.154,6.154,0,0,1,1.548.246Q111.621,7.547,110.668,10.782Zm-3.021,2.945a2.558,2.558,0,0,0,1.168-1.57l.145-.488-.3-.089a15.632,15.632,0,0,0-2.3-.54,2.291,2.291,0,0,0-1.227.1,1.156,1.156,0,0,0-.584.772,1.454,1.454,0,0,0,.16,1.227,1.814,1.814,0,0,0,1.077.786A2.287,2.287,0,0,0,107.647,13.727Z" transform="translate(-41.613 4.574)"/>
        <path id="Path_5033" data-name="Path 5033" d="M116.446,18.468a.673.673,0,0,1,0-.553l.914-2.433-1.02-.383a2.2,2.2,0,0,0-1.237-.127,3.063,3.063,0,0,0-1.174.553l-1.686,1.243a.729.729,0,0,1-.7.112.681.681,0,0,1-.376-.348.6.6,0,0,1-.036-.5.8.8,0,0,1,.273-.328l1.105-.842a4.391,4.391,0,0,1,1.1-.617,2.323,2.323,0,0,1,1.042-.153,2.605,2.605,0,0,1-1.32-1.378,2.349,2.349,0,0,1,.045-1.616,2.421,2.421,0,0,1,1.432-1.543,3.168,3.168,0,0,1,2.239.11l2.828,1.063a.713.713,0,0,1,.425.366.686.686,0,0,1,0,.546l-2.547,6.773a.7.7,0,0,1-.355.42.676.676,0,0,1-.533,0A.728.728,0,0,1,116.446,18.468Zm2.418-6.981-1.825-.686a2.266,2.266,0,0,0-1.491-.128,1.451,1.451,0,0,0-.9.955,1.345,1.345,0,0,0,.088,1.337,2.571,2.571,0,0,0,1.214.841l1.79.674Z" transform="translate(-40.824 4.867)"/>
      </g>
    </g>
  </g>
</svg>
