<svg id="Maestro_2016" xmlns="http://www.w3.org/2000/svg" width="38.558" height="29.994" viewBox="0 0 38.558 29.994">
  <g id="Group_3278" data-name="Group 3278" transform="translate(0 0)">
    <g id="Group_3273" data-name="Group 3273" transform="translate(37.193 18.836)">
      <path id="Path_5040" data-name="Path 5040" d="M-4.2-1.937V-2.4h-.12l-.14.318L-4.6-2.4h-.121v.463h.086v-.347l.13.3h.089l.13-.3v.348Zm-.765,0v-.386h.154V-2.4H-5.2v.077h.154v.386Z" transform="translate(5.203 2.4)" fill="#0099df"/>
    </g>
    <path id="Path_5041" data-name="Path 5041" d="M3582.295,2166.319h-10.428V2147.58h10.428Z" transform="translate(-3557.801 -2145.027)" fill="#6c6bbd"/>
    <g id="Group_3274" data-name="Group 3274" transform="translate(0 0)">
      <path id="Path_5042" data-name="Path 5042" d="M-61.66-49.888a11.9,11.9,0,0,1,4.55-9.371A11.867,11.867,0,0,0-64.476-61.8,11.919,11.919,0,0,0-76.392-49.888,11.919,11.919,0,0,0-64.474-37.972a11.867,11.867,0,0,0,7.366-2.545,11.9,11.9,0,0,1-4.55-9.371" transform="translate(76.392 61.804)" fill="#eb001b"/>
    </g>
    <g id="Group_3275" data-name="Group 3275" transform="translate(19.274 0.003)">
      <path id="Path_5043" data-name="Path 5043" d="M-80.716-49.887A11.919,11.919,0,0,1-92.634-37.971,11.871,11.871,0,0,1-100-40.516a11.9,11.9,0,0,0,4.55-9.371A11.9,11.9,0,0,0-100-59.255,11.871,11.871,0,0,1-92.633-61.8,11.919,11.919,0,0,1-80.716-49.889" transform="translate(100 61.8)" fill="#0099df"/>
    </g>
    <g id="Group_3276" data-name="Group 3276" transform="translate(6.291 25.701)">
      <path id="Path_5044" data-name="Path 5044" d="M-90.889-3.685a1.465,1.465,0,0,1,.49.086l-.212.649a1.116,1.116,0,0,0-.43-.077c-.45,0-.676.291-.676.814V-.44H-92.4V-3.6h.682v.386a.934.934,0,0,1,.834-.463m-2.545.709h-1.123v1.424c0,.318.112.53.457.53a1.268,1.268,0,0,0,.605-.182l.2.589a1.615,1.615,0,0,1-.86.245c-.814,0-1.1-.434-1.1-1.169V-2.977h-.642v-.629h.642v-.96h.694v.96h1.125Zm-8.813.676a.816.816,0,0,1,.841-.771.787.787,0,0,1,.8.771Zm2.357.278a1.518,1.518,0,0,0-.385-1.162,1.518,1.518,0,0,0-1.118-.5,1.546,1.546,0,0,0-1.156.482,1.546,1.546,0,0,0-.42,1.18,1.561,1.561,0,0,0,.445,1.189,1.561,1.561,0,0,0,1.181.465,1.923,1.923,0,0,0,1.295-.443l-.338-.51a1.5,1.5,0,0,1-.92.331.879.879,0,0,1-.946-.771h2.35c.007-.086.014-.172.014-.265m3.025-.771a2.03,2.03,0,0,0-.986-.272c-.377,0-.6.14-.6.372,0,.211.238.271.536.308l.325.046c.689.1,1.106.391,1.106.947,0,.6-.53,1.033-1.443,1.033A2.283,2.283,0,0,1-99.3-.773l.325-.54a1.688,1.688,0,0,0,1.053.331c.47,0,.722-.139.722-.386,0-.178-.179-.278-.556-.33l-.325-.046c-.709-.1-1.093-.417-1.093-.934,0-.629.517-1.013,1.318-1.013a2.365,2.365,0,0,1,1.291.331Zm8.491-.231a1.043,1.043,0,0,0-.395.077.948.948,0,0,0-.315.209.97.97,0,0,0-.209.322A1.089,1.089,0,0,0-89.368-2a1.085,1.085,0,0,0,.077.413.97.97,0,0,0,.21.312.948.948,0,0,0,.315.209,1.029,1.029,0,0,0,.395.077,1.026,1.026,0,0,0,.395-.077.946.946,0,0,0,.315-.209.963.963,0,0,0,.211-.322,1.086,1.086,0,0,0,.077-.413,1.089,1.089,0,0,0-.077-.413.963.963,0,0,0-.211-.322.946.946,0,0,0-.317-.209,1.04,1.04,0,0,0-.395-.077m0-.654a1.783,1.783,0,0,1,.682.128,1.656,1.656,0,0,1,.54.352,1.609,1.609,0,0,1,.359.529,1.684,1.684,0,0,1,.13.664,1.684,1.684,0,0,1-.13.664,1.613,1.613,0,0,1-.359.53,1.668,1.668,0,0,1-.54.352,1.8,1.8,0,0,1-.682.127,1.8,1.8,0,0,1-.682-.127,1.649,1.649,0,0,1-.54-.352,1.632,1.632,0,0,1-.357-.53,1.684,1.684,0,0,1-.13-.664,1.684,1.684,0,0,1,.13-.664,1.629,1.629,0,0,1,.357-.529,1.638,1.638,0,0,1,.54-.352,1.783,1.783,0,0,1,.682-.128m-17.9,1.662a.95.95,0,0,1,.258-.717.95.95,0,0,1,.7-.3.949.949,0,0,1,.7.3.949.949,0,0,1,.255.715.949.949,0,0,1-.255.715.949.949,0,0,1-.7.3.949.949,0,0,1-.7-.3.949.949,0,0,1-.258-.717m2.563,0V-3.606h-.688v.386a1.2,1.2,0,0,0-1-.463,1.586,1.586,0,0,0-1.147.492,1.585,1.585,0,0,0-.435,1.17,1.585,1.585,0,0,0,.437,1.169,1.585,1.585,0,0,0,1.148.491,1.2,1.2,0,0,0,1-.463v.386h.688Zm-3.883,1.582V-2.428a1.178,1.178,0,0,0-.338-.91,1.178,1.178,0,0,0-.907-.347,1.225,1.225,0,0,0-1.113.563,1.163,1.163,0,0,0-1.046-.563,1.047,1.047,0,0,0-.925.47v-.39h-.688V-.444h.694V-2.2a.74.74,0,0,1,.188-.6.74.74,0,0,1,.584-.239c.457,0,.689.3.689.834V-.441h.694V-2.2a.747.747,0,0,1,.19-.6.747.747,0,0,1,.581-.242c.47,0,.694.3.694.834V-.441Z" transform="translate(112.606 4.566)" fill="#231f20"/>
    </g>
    <g id="Group_3277" data-name="Group 3277" transform="translate(32.713 29.366)">
      <path id="Path_5045" data-name="Path 5045" d="M-1.122-.929v.077h.072a.071.071,0,0,0,.039-.009A.033.033,0,0,0-1-.891.032.032,0,0,0-1.012-.92a.065.065,0,0,0-.039-.009Zm.072-.055a.133.133,0,0,1,.086.026.083.083,0,0,1,.029.067.077.077,0,0,1-.024.06A.12.12,0,0,1-1.026-.8l.1.11h-.077L-1.094-.8h-.029v.11h-.062v-.29Zm-.019.392A.231.231,0,0,0-.974-.611.248.248,0,0,0-.9-.664.244.244,0,0,0-.845-.741a.25.25,0,0,0,.019-.1A.25.25,0,0,0-.845-.932.252.252,0,0,0-.9-1.009a.231.231,0,0,0-.077-.052.231.231,0,0,0-.094-.02.24.24,0,0,0-.1.019.231.231,0,0,0-.077.052.238.238,0,0,0-.052.077.236.236,0,0,0-.019.1.236.236,0,0,0,.019.1.231.231,0,0,0,.052.077.247.247,0,0,0,.077.052.24.24,0,0,0,.1.019m0-.559a.308.308,0,0,1,.124.025.312.312,0,0,1,.1.067.308.308,0,0,1,.068.1.3.3,0,0,1,.025.122.3.3,0,0,1-.025.122.313.313,0,0,1-.069.1.327.327,0,0,1-.1.068.308.308,0,0,1-.124.025A.319.319,0,0,1-1.2-.548a.318.318,0,0,1-.1-.068.313.313,0,0,1-.068-.1A.3.3,0,0,1-1.39-.837a.3.3,0,0,1,.024-.12.308.308,0,0,1,.068-.1.308.308,0,0,1,.1-.067.319.319,0,0,1,.126-.025" transform="translate(1.39 1.152)" fill="#231f20"/>
    </g>
  </g>
</svg>
