<svg id="master-card" xmlns="http://www.w3.org/2000/svg" width="38.559" height="29.955" viewBox="0 0 38.559 29.955">
  <path id="Path_4956" data-name="Path 4956" d="M46.419,51.641a.883.883,0,0,1-.2.321.736.736,0,0,1-.3.211.9.9,0,0,1-.391.077.931.931,0,0,1-.4-.077.915.915,0,0,1-.3-.219.993.993,0,0,1-.187-.318,1.244,1.244,0,0,1-.062-.391,1.322,1.322,0,0,1,.062-.391,1.08,1.08,0,0,1,.187-.321.915.915,0,0,1,.3-.219.93.93,0,0,1,.4-.077.9.9,0,0,1,.391.077.931.931,0,0,1,.3.211.954.954,0,0,1,.2.321,1.126,1.126,0,0,1,.11.376,1.064,1.064,0,0,1-.11.423Zm0-3.255v1.659A1.353,1.353,0,0,0,46,49.709a1.291,1.291,0,0,0-.579-.125,1.479,1.479,0,0,0-.617.125,1.4,1.4,0,0,0-.5.344,1.565,1.565,0,0,0-.336.524,1.94,1.94,0,0,0,0,1.33,1.51,1.51,0,0,0,.336.524,1.4,1.4,0,0,0,.5.344,1.479,1.479,0,0,0,.617.125A1.2,1.2,0,0,0,46,52.775a1.252,1.252,0,0,0,.415-.336v.386H47.1V48.386ZM27.14,52.251a.869.869,0,0,0,.329-.062.959.959,0,0,0,.2-.094l.231.579-.289.133a1.446,1.446,0,0,1-.54.094,1.15,1.15,0,0,1-.837-.3,1.267,1.267,0,0,1-.3-.925V50.289h-.622v-.635h.626v-.939h.694v.939h1.111v.626h-1.11v1.37a.681.681,0,0,0,.039.266.532.532,0,0,0,.1.188.446.446,0,0,0,.164.1.517.517,0,0,0,.2.047Zm-10.39-2.6a1.222,1.222,0,0,1,.391.258,1.174,1.174,0,0,1,.258.4,1.465,1.465,0,0,1,.086.5V52.8H16.8V51.062a.892.892,0,0,0-.188-.61.665.665,0,0,0-.524-.211.783.783,0,0,0-.308.055.649.649,0,0,0-.251.154.822.822,0,0,0-.172.266.978.978,0,0,0-.062.352v1.753h-.662V51.062a.892.892,0,0,0-.18-.626.665.665,0,0,0-.524-.211.783.783,0,0,0-.308.055.649.649,0,0,0-.251.154.822.822,0,0,0-.172.266.978.978,0,0,0-.062.352V52.8H12.47V49.654h.657v.386a.971.971,0,0,1,.2-.227,1.129,1.129,0,0,1,.258-.154,1.311,1.311,0,0,1,.251-.07,1.268,1.268,0,0,1,.243,0,1.311,1.311,0,0,1,.617.149,1.174,1.174,0,0,1,.438.415.985.985,0,0,1,.227-.274,1.418,1.418,0,0,1,.281-.18,1.487,1.487,0,0,1,.308-.086h.3a1.323,1.323,0,0,1,.5.047ZM20.452,52a.993.993,0,0,0,.188-.321,1.064,1.064,0,0,0,.07-.463,1.125,1.125,0,0,0-.07-.4,1.08,1.08,0,0,0-.188-.321,1.065,1.065,0,0,0-.308-.211.884.884,0,0,0-.386-.077.93.93,0,0,0-.4.077.947.947,0,0,0-.308.219.925.925,0,0,0-.18.321,1.118,1.118,0,0,0-.07.391,1.056,1.056,0,0,0,.07.391.848.848,0,0,0,.18.321.946.946,0,0,0,.308.219.932.932,0,0,0,.4.077.884.884,0,0,0,.386-.077A.821.821,0,0,0,20.452,52Zm-.187-2.253a1.415,1.415,0,0,1,.407.336v-.43h.69v3.129h-.649V52.4a1.3,1.3,0,0,1-.407.336,1.252,1.252,0,0,1-.587.125,1.5,1.5,0,0,1-.617-.125,1.47,1.47,0,0,1-.5-.344,1.636,1.636,0,0,1-.336-.524,1.939,1.939,0,0,1,0-1.33,1.721,1.721,0,0,1,.336-.524,1.473,1.473,0,0,1,.5-.344,1.5,1.5,0,0,1,.617-.125,1.353,1.353,0,0,1,.548.164Zm4.256,1.565A1.689,1.689,0,0,0,23.737,51l-.329-.047h-.2l-.149-.164a.328.328,0,0,1-.11-.094.211.211,0,0,1,0-.141.313.313,0,0,1,.154-.274.848.848,0,0,1,.438-.1,1.211,1.211,0,0,1,.289,0l.274.062a1.556,1.556,0,0,1,.227.086l.18.094.3-.54a2.052,2.052,0,0,0-.657-.231,2.5,2.5,0,0,0-.694-.086,1.977,1.977,0,0,0-.548.07,1.228,1.228,0,0,0-.407.2.931.931,0,0,0-.352.783.783.783,0,0,0,.274.617,1.5,1.5,0,0,0,.783.308h.329a1.024,1.024,0,0,1,.415.133.25.25,0,0,1,.133.219.321.321,0,0,1-.18.281,1.127,1.127,0,0,1-.54.1,2.3,2.3,0,0,1-.344,0,1.486,1.486,0,0,1-.281-.07l-.227-.1-.172-.1-.313.517a1.33,1.33,0,0,0,.352.2,2.552,2.552,0,0,0,.368.125,2.01,2.01,0,0,0,.344.062h.279a2.412,2.412,0,0,0,.61-.077,1.282,1.282,0,0,0,.453-.211.994.994,0,0,0,.274-.329.838.838,0,0,0,.1-.415.783.783,0,0,0-.289-.657Zm4.608-.579a.979.979,0,0,0-.094.313h1.635a.955.955,0,0,0-.266-.571.712.712,0,0,0-.532-.211.848.848,0,0,0-.329.062.648.648,0,0,0-.227.109.694.694,0,0,0-.188.227Zm1.353-.955a1.292,1.292,0,0,1,.477.336,1.814,1.814,0,0,1,.308.524,2.018,2.018,0,0,1,.11.673.783.783,0,0,1,0,.133.712.712,0,0,1,0,.125H29.026a.973.973,0,0,0,.336.61.956.956,0,0,0,.281.141,1.1,1.1,0,0,0,.321.047,1.465,1.465,0,0,0,.477-.086A1.6,1.6,0,0,0,30.88,52l.336.485a1.565,1.565,0,0,1-.61.344,2.206,2.206,0,0,1-.681.1,1.745,1.745,0,0,1-.61-.149,1.441,1.441,0,0,1-.517-.336,1.5,1.5,0,0,1-.329-.524,1.886,1.886,0,0,1-.117-.681,2.058,2.058,0,0,1,.11-.673,1.564,1.564,0,0,1,.329-.524,1.291,1.291,0,0,1,.493-.336,1.565,1.565,0,0,1,.634-.125,1.388,1.388,0,0,1,.564.125Zm9.584,1.934a.884.884,0,0,1-.2.321.736.736,0,0,1-.3.211.9.9,0,0,1-.391.077.932.932,0,0,1-.4-.077.915.915,0,0,1-.3-.219.993.993,0,0,1-.188-.321,1.245,1.245,0,0,1-.062-.391,1.322,1.322,0,0,1,.062-.391,1.08,1.08,0,0,1,.188-.321.916.916,0,0,1,.3-.219.931.931,0,0,1,.4-.077.9.9,0,0,1,.391.077.932.932,0,0,1,.3.211.954.954,0,0,1,.2.321,1.125,1.125,0,0,1,.07.4,1.062,1.062,0,0,1-.07.329Zm0-1.565a1.322,1.322,0,0,0-.407-.336,1.292,1.292,0,0,0-.579-.125,1.457,1.457,0,0,0-.617.125,1.4,1.4,0,0,0-.5.344,1.565,1.565,0,0,0-.336.524,1.831,1.831,0,0,0,0,1.33,1.51,1.51,0,0,0,.336.524,1.4,1.4,0,0,0,.5.344A1.457,1.457,0,0,0,39.08,53a1.2,1.2,0,0,0,.579-.125,1.221,1.221,0,0,0,.407-.336v.386h.689V49.654h-.689Zm-6.416-.463a1.252,1.252,0,0,0-.524.11,1.1,1.1,0,0,0-.391.391v-.532h-.626v3.129h.634v-1.7a1.055,1.055,0,0,1,.055-.36.885.885,0,0,1,.154-.266.634.634,0,0,1,.231-.164.783.783,0,0,1,.308-.055,1.066,1.066,0,0,1,.266,0H33.9l.2-.657-.172-.039a1.447,1.447,0,0,0-.258.039Zm9.037.11a1.252,1.252,0,0,1,.524-.11,1.525,1.525,0,0,1,.281,0l.172.039-.2.657H43.32a1.112,1.112,0,0,0-.266,0,.783.783,0,0,0-.308.055.635.635,0,0,0-.231.164.783.783,0,0,0-.154.266,1.055,1.055,0,0,0-.055.36v1.737h-.634v-3.31H42.3v.415a1.1,1.1,0,0,1,.415-.376Zm-7.041.617a1.026,1.026,0,0,0-.313.2.9.9,0,0,0-.2.321.993.993,0,0,0-.077.407,1.033,1.033,0,0,0,.077.415.939.939,0,0,0,.2.313.925.925,0,0,0,.313.211,1.12,1.12,0,0,0,.391.07,1.245,1.245,0,0,0,.43-.07.97.97,0,0,0,.336-.2l.329.555a1.651,1.651,0,0,1-.415.243,1.894,1.894,0,0,1-1.353,0,1.659,1.659,0,0,1-.532-.352,1.565,1.565,0,0,1-.36-.524,1.643,1.643,0,0,1-.125-.657,1.666,1.666,0,0,1,.125-.657,1.565,1.565,0,0,1,.36-.524,1.66,1.66,0,0,1,.532-.352,1.894,1.894,0,0,1,1.353,0,1.673,1.673,0,0,1,.415.251l-.329.548a.955.955,0,0,0-.336-.2,1.08,1.08,0,0,0-.43-.077.969.969,0,0,0-.407-.023Z" transform="translate(-10.52 -23.049)" fill-rule="evenodd"/>
  <path id="Path_4957" data-name="Path 4957" d="M58.494,53.707v.055h-.023Zm.062-.062a.125.125,0,0,1,.086,0,.077.077,0,0,1,0,.07.07.07,0,0,1,0,.055h-.062l.094.1h-.1l-.077-.1v.1h-.077V53.59Zm0,.368a.154.154,0,0,0,.086,0,.258.258,0,0,0,.077-.047l.047-.077a.278.278,0,0,0,0-.086.386.386,0,0,0,0-.094l-.047-.07-.077-.055h-.18l-.077.055-.047.07a.391.391,0,0,0,0,.094.283.283,0,0,0,0,.086l.047.077a.261.261,0,0,0,.077.047.18.18,0,0,0,.077,0Zm0-.548a.35.35,0,0,1,.125,0,.326.326,0,0,1,.11.07.319.319,0,0,1,.062.1.225.225,0,0,1,0,.125.25.25,0,0,1-.023.125.447.447,0,0,1-.062.1l-.11.07a.355.355,0,0,1-.125,0,.369.369,0,0,1-.133,0l-.11-.07-.062-.1a.355.355,0,0,1,0-.125.321.321,0,0,1,0-.125.573.573,0,0,1,.07-.1.327.327,0,0,1,.11-.07.366.366,0,0,1,.133,0Z" transform="translate(-20.475 -24.153)" fill-rule="evenodd"/>
  <path id="Path_4958" data-name="Path 4958" d="M24.736,27.884a11.852,11.852,0,0,1,4.507-9.311,11.884,11.884,0,1,0,0,18.627,11.852,11.852,0,0,1-4.507-9.318Z" transform="translate(-9.977 -16.003)" fill="#e20c16" fill-rule="evenodd"/>
  <path id="Path_4959" data-name="Path 4959" d="M28.84,28.6a11.851,11.851,0,0,0,4.507,9.32,11.867,11.867,0,0,0,0-18.627A11.851,11.851,0,0,0,28.84,28.6Z" transform="translate(-14.082 -16.719)" fill="#ea6008" fill-rule="evenodd"/>
  <path id="Path_4960" data-name="Path 4960" d="M58.884,39.282v-.313l-.1.266h-.11l-.1-.266v.308h-.1v-.447h.148l.11.282.11-.282h.149v.448Zm-.783,0v-.313H58v-.094h.391v.094H58.25v.353Z" transform="translate(-20.426 -20.97)" fill="#f59e00" fill-rule="evenodd"/>
  <path id="Path_4961" data-name="Path 4961" d="M41.95,16.01a11.839,11.839,0,0,0-7.37,2.566,11.867,11.867,0,0,1,0,18.627A11.876,11.876,0,1,0,41.95,16.01Z" transform="translate(-15.331 -16.004)" fill="#f59e00" fill-rule="evenodd"/>
</svg>
