<svg xmlns="http://www.w3.org/2000/svg" xmlns:xlink="http://www.w3.org/1999/xlink" width="512.001" height="13801" viewBox="0 0 512.001 13801"><svg width="14" height="10" viewBox="0 0 14 10" id="arrow-conner-left" y="0"><path d="M.3 4.3l4-4a.967.967 0 0 1 1.4 0 .967.967 0 0 1 0 1.4L3.4 4H13a.945.945 0 0 1 1 1 .945.945 0 0 1-1 1H3.4l2.3 2.3a.967.967 0 0 1 0 1.4 1.08 1.08 0 0 1-.7.3 1.08 1.08 0 0 1-.7-.3l-4-4a.967.967 0 0 1 0-1.4z"></path></svg><svg width="14" height="10" viewBox="0 0 14 10" id="arrow-conner-right" y="10"><path d="M13.7 4.3l-4-4a.967.967 0 0 0-1.4 0 .967.967 0 0 0 0 1.4L10.6 4H1a.945.945 0 0 0-1 1 .945.945 0 0 0 1 1h9.6L8.3 8.3a.967.967 0 0 0 0 1.4 1.08 1.08 0 0 0 .7.3 1.08 1.08 0 0 0 .7-.3l4-4a.967.967 0 0 0 0-1.4z"></path></svg><svg width="10.314" height="6.2" viewBox="0 0 10.314 6.2" id="arrow-down" y="20"><path d="M10 .3a.967.967 0 0 0-1.4 0L5.2 3.8 1.7.3A.967.967 0 0 0 .3.3a.967.967 0 0 0 0 1.4l4.2 4.2a1.08 1.08 0 0 0 .7.3.6.6 0 0 0 .4-.1c.1 0 .2-.1.3-.2l4.2-4.2A1.071 1.071 0 0 0 10 .3z"></path></svg><svg width="15.089" height="8.5" viewBox="0 0 15.089 8.5" id="arrow-up" y="27"><path d="M14.8 6.8L8.3.3a.967.967 0 0 0-1.4 0L.3 6.8a.967.967 0 0 0 0 1.4.967.967 0 0 0 1.4 0l5.8-5.8 5.8 5.8a.967.967 0 0 0 1.4 0 .9.9 0 0 0 .1-1.4z"></path></svg><svg viewBox="0 0 475.2 475.2" width="475.2" height="475.2" id="cancel" y="36"><path d="M405.6 69.6C360.7 24.7 301.1 0 237.6 0s-123.1 24.7-168 69.6S0 174.1 0 237.6s24.7 123.1 69.6 168 104.5 69.6 168 69.6 123.1-24.7 168-69.6 69.6-104.5 69.6-168-24.7-123.1-69.6-168zm-19.1 316.9c-39.8 39.8-92.7 61.7-148.9 61.7s-109.1-21.9-148.9-61.7c-82.1-82.1-82.1-215.7 0-297.8C128.5 48.9 181.4 27 237.6 27s109.1 21.9 148.9 61.7c82.1 82.1 82.1 215.7 0 297.8z"></path><path d="M342.3 132.9c-5.3-5.3-13.8-5.3-19.1 0l-85.6 85.6-85.6-85.6c-5.3-5.3-13.8-5.3-19.1 0-5.3 5.3-5.3 13.8 0 19.1l85.6 85.6-85.6 85.6c-5.3 5.3-5.3 13.8 0 19.1 2.6 2.6 6.1 4 9.5 4s6.9-1.3 9.5-4l85.6-85.6 85.6 85.6c2.6 2.6 6.1 4 9.5 4 3.5 0 6.9-1.3 9.5-4 5.3-5.3 5.3-13.8 0-19.1l-85.4-85.6 85.6-85.6c5.3-5.3 5.3-13.8 0-19.1z"></path></svg><svg width="33" height="23" viewBox="0 0 33 23" id="card" y="512"><defs><path id="a" d="M468 1286.6v2.3h-30v-2.3c0-.85.67-1.54 1.5-1.54h27c.83 0 1.5.69 1.5 1.54zm-30 5.38h30v11.54c0 .85-.67 1.54-1.5 1.54h-27c-.83 0-1.5-.69-1.5-1.54zm10.12 8.46c0-.84-.67-1.53-1.5-1.53-.82 0-1.5.69-1.5 1.53 0-.84-.67-1.53-1.5-1.53-.82 0-1.5.69-1.5 1.53 0 .85.68 1.54 1.5 1.54.83 0 1.5-.69 1.5-1.54 0 .85.68 1.54 1.5 1.54.83 0 1.5-.69 1.5-1.54z"></path></defs><use xlink:href="#a" transform="translate(-436 -1284)"></use></svg><svg width="31.001" height="25.217" viewBox="0 0 31.001 25.217" id="cart" y="535"><path data-name="Union 194" d="M10.459 24.716a4.867 4.867 0 0 1-4.814-4.054l-2.2-7.577a.785.785 0 0 1 .537-.977.787.787 0 0 1 .979.537l2.214 7.621a.633.633 0 0 1 .02.093 3.3 3.3 0 0 0 3.266 2.775h10.085a3.292 3.292 0 0 0 3.261-2.775c0-.032.015-.061.022-.093l2.213-7.621a.79.79 0 0 1 .979-.537.787.787 0 0 1 .537.977l-2.2 7.577a4.865 4.865 0 0 1-4.812 4.054zm9.018-3.136a.787.787 0 0 1-.579-.954l1.607-6.6a.788.788 0 0 1 .954-.579.79.79 0 0 1 .579.954l-1.607 6.6a.792.792 0 0 1-.768.6.817.817 0 0 1-.186-.021zm-8.907-.581l-1.607-6.6a.79.79 0 0 1 .582-.954.786.786 0 0 1 .952.579l1.607 6.6a.792.792 0 0 1-.579.954.849.849 0 0 1-.189.022.791.791 0 0 1-.767-.601zm4.142-1.151v-5.634a.788.788 0 0 1 .791-.788.787.787 0 0 1 .787.788v5.634a.789.789 0 0 1-.787.788.789.789 0 0 1-.792-.784zM1.291 10.74a.789.789 0 0 1-.79-.79.789.789 0 0 1 .79-.788h3.3l3.8-8.154A.788.788 0 0 1 9.438.625a.788.788 0 0 1 .383 1.048L6.336 9.162h18.332l-3.483-7.489a.785.785 0 0 1 .383-1.048.788.788 0 0 1 1.048.383l3.795 8.154h3.3a.789.789 0 0 1 .79.788.79.79 0 0 1-.79.79z" stroke="rgba(0,0,0,0)" stroke-miterlimit="10"></path></svg><svg width="14.7" height="10.781" viewBox="0 0 14.7 10.781" id="cart-empty" y="561"><path d="M13.9 3.981h-1.4l-1.7-3.6a.687.687 0 0 0-.9-.3.694.694 0 0 0-.2.9l1.4 3H3.5l1.4-3a.685.685 0 0 0-.228-.9.774.774 0 0 0-.972.3L2 3.981H.7a.7.7 0 1 0 0 1.4h.8l1 3.3a2.568 2.568 0 0 0 2.5 2.1h4.7a2.489 2.489 0 0 0 2.5-2.1l1-3.3h.8a.684.684 0 0 0 .7-.7.773.773 0 0 0-.8-.7zm-2.1 1.4l-.8 2.9v.1a1.188 1.188 0 0 1-1.2 1H4.9a1.188 1.188 0 0 1-1.2-1l-.9-3z"></path></svg><svg viewBox="0 0 490.4 490.4" width="490.4" height="490.4" id="check-round" y="572"><path d="M245.2 0C110 0 0 110 0 245.2s110 245.2 245.2 245.2 245.2-110 245.2-245.2S380.4 0 245.2 0zm0 465.9c-121.7 0-220.7-99-220.7-220.7s99-220.7 220.7-220.7 220.7 99 220.7 220.7-99 220.7-220.7 220.7z"></path><path d="M309.4 185.5l-94 93.5-34.3-34.5c-4.8-4.8-12.5-4.8-17.3-.1-4.8 4.7-4.8 12.5-.1 17.3l42.9 43.2c2.4 2.4 5.5 3.6 8.7 3.6 3.1 0 6.2-1.2 8.6-3.6l102.7-102.1c4.8-4.8 4.8-12.5.1-17.3-4.8-4.8-12.5-4.8-17.3 0z"></path></svg><svg width="13.01" height="9.414" viewBox="0 0 13.01 9.414" id="checked" y="1063"><path d="M11.596 1.414l-7 7-3.182-3.182" stroke="#44322d" stroke-linecap="round" stroke-linejoin="round" stroke-width="2"></path></svg><svg width="23.844" height="24" viewBox="0 0 23.844 24" id="chef" y="1073"><path d="M23.844 8.745a5.569 5.569 0 0 0-5.562-5.564q-.2 0-.4.015a7.149 7.149 0 0 0-11.914 0q-.2-.015-.4-.015a5.564 5.564 0 0 0-.792 11.07v7.689A2.061 2.061 0 0 0 6.833 24h10.182a2.061 2.061 0 0 0 2.059-2.059v-7.69a5.571 5.571 0 0 0 4.77-5.506zm-6.829 13.671H6.833a.482.482 0 0 1-.475-.475v-7.689a5.473 5.473 0 0 0 2.177-.8 7.109 7.109 0 0 0 6.781 0 5.476 5.476 0 0 0 2.177.8v7.689a.482.482 0 0 1-.478.475zm1.267-9.691a3.946 3.946 0 0 1-1.527-.3 7.127 7.127 0 0 0 2.058-3.356.792.792 0 0 0-1.526-.423 5.567 5.567 0 0 1-10.729 0 .792.792 0 0 0-1.525.423 7.125 7.125 0 0 0 2.058 3.352 3.98 3.98 0 1 1-1.529-7.656 4.036 4.036 0 0 1 .679.059.793.793 0 0 0 .824-.393 5.566 5.566 0 0 1 9.714 0 .792.792 0 0 0 .824.393 4.036 4.036 0 0 1 .678-.059 3.98 3.98 0 0 1 0 7.96z"></path></svg><svg height="512" viewBox="0 0 512 512" width="512" id="clip" y="1097"><path d="M226 512c-49.626 0-90-40.374-90-90V120C136 53.832 189.832 0 256 0s120 53.832 120 120v302h-30V120c0-49.626-40.374-90-90-90s-90 40.374-90 90v302c0 33.084 26.916 60 60 60s60-26.916 60-60V180c0-16.542-13.458-30-30-30s-30 13.458-30 30v242h-30V180c0-33.084 26.916-60 60-60s60 26.916 60 60v242c0 49.626-40.374 90-90 90z"></path></svg><svg data-name="Group 3532" width="20" height="20" viewBox="0 0 20 20" id="clock" y="1609"><path data-name="Path 10798" d="M10 0a10 10 0 1 0 10 10A10.011 10.011 0 0 0 10 0zm0 18.6a8.6 8.6 0 1 1 8.6-8.6 8.61 8.61 0 0 1-8.6 8.6z"></path><path data-name="Path 10799" d="M14.014 9l-3.76 1.186L6.742 5.67a.7.7 0 0 0-1.106.859l3.811 4.9A.7.7 0 0 0 10 11.7a.723.723 0 0 0 .21-.032l4.226-1.333A.7.7 0 1 0 14.014 9z"></path></svg><svg width="18" height="18.106" viewBox="0 0 18 18.106" id="close" y="1629"><path d="M10.379 9.018l7.034-7.158a1.115 1.115 0 0 0 0-1.544 1.069 1.069 0 0 0-1.517 0L8.862 7.474 1.825.316a1.069 1.069 0 0 0-1.517 0 1.115 1.115 0 0 0 0 1.544l7.037 7.158L.31 16.175a1.115 1.115 0 0 0 0 1.544 1.091 1.091 0 0 0 1.655 0l7.034-7.158 7.034 7.158a1 1 0 0 0 .828.281 1.937 1.937 0 0 0 .828-.281 1.115 1.115 0 0 0 0-1.544z"></path></svg><svg viewBox="0 0 21.9 21.9" width="21.9" height="21.9" id="close-fat" y="1648"><path d="M14.1 11.3c-.2-.2-.2-.5 0-.7l7.5-7.5c.2-.2.3-.5.3-.7s-.1-.5-.3-.7L20.2.3c-.2-.2-.5-.3-.7-.3-.3 0-.5.1-.7.3l-7.5 7.5c-.2.2-.5.2-.7 0L3.1.3C2.9.1 2.6 0 2.4 0s-.5.1-.7.3L.3 1.7c-.2.2-.3.5-.3.7s.1.5.3.7l7.5 7.5c.2.2.2.5 0 .7L.3 18.8c-.2.2-.3.5-.3.7s.1.5.3.7l1.4 1.4c.2.2.5.3.7.3s.5-.1.7-.3l7.5-7.5c.2-.2.5-.2.7 0l7.5 7.5c.2.2.5.3.7.3s.5-.1.7-.3l1.4-1.4c.2-.2.3-.5.3-.7s-.1-.5-.3-.7l-7.5-7.5z"></path></svg><svg viewBox="0 0 471.2 471.2" width="471.2" height="471.2" id="download" y="1670"><path d="M457.7 230.15c-7.5 0-13.5 6-13.5 13.5v122.8c0 33.4-27.2 60.5-60.5 60.5H87.5c-33.4 0-60.5-27.2-60.5-60.5v-124.8c0-7.5-6-13.5-13.5-13.5s-13.5 6-13.5 13.5v124.8c0 48.3 39.3 87.5 87.5 87.5h296.2c48.3 0 87.5-39.3 87.5-87.5v-122.8c0-7.4-6-13.5-13.5-13.5z"></path><path d="M226.1 346.75c2.6 2.6 6.1 4 9.5 4s6.9-1.3 9.5-4l85.8-85.8c5.3-5.3 5.3-13.8 0-19.1-5.3-5.3-13.8-5.3-19.1 0l-62.7 62.8V30.75c0-7.5-6-13.5-13.5-13.5s-13.5 6-13.5 13.5v273.9l-62.8-62.8c-5.3-5.3-13.8-5.3-19.1 0-5.3 5.3-5.3 13.8 0 19.1l85.9 85.8z"></path></svg><svg width="22" height="22" viewBox="0 0 22 22" id="edit" y="2142"><path data-name="Path 10809" d="M19 12.7a.945.945 0 0 0-1 1V19a.945.945 0 0 1-1 1H3a.945.945 0 0 1-1-1V5a.945.945 0 0 1 1-1h5.3a.945.945 0 0 0 1-1 .945.945 0 0 0-1-1H3a2.946 2.946 0 0 0-3 3v14a2.946 2.946 0 0 0 3 3h14a2.946 2.946 0 0 0 3-3v-5.3a.945.945 0 0 0-1-1z"></path><path data-name="Path 10810" d="M21.7 4.3l-4-4a.967.967 0 0 0-1.4 0l-10 10a.908.908 0 0 0-.3.7v4a.945.945 0 0 0 1 1h4a.908.908 0 0 0 .7-.3l10-10a.967.967 0 0 0 0-1.4zM10.6 14H8v-2.6l9-9L19.6 5z"></path></svg><svg width="18" height="18" viewBox="0 0 18 18" id="exit" y="2164"><path data-name="Path 10800" d="M6.3 16H2.8a.736.736 0 0 1-.8-.8V2.8a.736.736 0 0 1 .8-.8h3.6a.945.945 0 0 0 1-1 .945.945 0 0 0-1-1H2.8A2.734 2.734 0 0 0 0 2.8v12.4A2.734 2.734 0 0 0 2.8 18h3.6a.945.945 0 0 0 1-1 1.028 1.028 0 0 0-1.1-1z"></path><path data-name="Path 10801" d="M17.7 8.3l-4.4-4.4a.99.99 0 1 0-1.4 1.4L14.6 8H6.2a.945.945 0 0 0-1 1 .945.945 0 0 0 1 1h8.4l-2.7 2.7a.967.967 0 0 0 0 1.4.967.967 0 0 0 1.4 0l4.4-4.4a.967.967 0 0 0 0-1.4z"></path></svg><svg viewBox="0 0 408.788 408.788" width="408.788" height="408.788" id="facebook--color" y="2182"><path d="M353.701 0H55.087C24.665 0 .002 24.662.002 55.085v298.616c0 30.423 24.662 55.085 55.085 55.085h147.275l.251-146.078h-37.951a8.954 8.954 0 0 1-8.954-8.92l-.182-47.087a8.955 8.955 0 0 1 8.955-8.989h37.882v-45.498c0-52.8 32.247-81.55 79.348-81.55h38.65a8.955 8.955 0 0 1 8.955 8.955v39.704a8.955 8.955 0 0 1-8.95 8.955l-23.719.011c-25.615 0-30.575 12.172-30.575 30.035v39.389h56.285c5.363 0 9.524 4.683 8.892 10.009l-5.581 47.087a8.955 8.955 0 0 1-8.892 7.901h-50.453l-.251 146.078h87.631c30.422 0 55.084-24.662 55.084-55.084V55.085C408.786 24.662 384.124 0 353.701 0z" fill="#475993"></path></svg><svg viewBox="0 0 471.701 471.701" width="471.701" height="471.701" id="heart" y="2591"><path d="M433.601 67.001c-24.7-24.7-57.4-38.2-92.3-38.2s-67.7 13.6-92.4 38.3l-12.9 12.9-13.1-13.1c-24.7-24.7-57.6-38.4-92.5-38.4-34.8 0-67.6 13.6-92.2 38.2-24.7 24.7-38.3 57.5-38.2 92.4 0 34.9 13.7 67.6 38.4 92.3l187.8 187.8c2.6 2.6 6.1 4 9.5 4 3.4 0 6.9-1.3 9.5-3.9l188.2-187.5c24.7-24.7 38.3-57.5 38.3-92.4.1-34.9-13.4-67.7-38.1-92.4zm-19.2 165.7l-178.7 178-178.3-178.3c-19.6-19.6-30.4-45.6-30.4-73.3s10.7-53.7 30.3-73.2c19.5-19.5 45.5-30.3 73.1-30.3 27.7 0 53.8 10.8 73.4 30.4l22.6 22.6c5.3 5.3 13.8 5.3 19.1 0l22.4-22.4c19.6-19.6 45.7-30.4 73.3-30.4 27.6 0 53.6 10.8 73.2 30.3 19.6 19.6 30.3 45.6 30.3 73.3.1 27.7-10.7 53.7-30.3 73.3z"></path></svg><svg viewBox="0 0 486.196 486.196" width="486.196" height="486.196" id="house" y="3063"><path d="M481.708 220.456l-228.8-204.6c-.4-.4-.8-.7-1.3-1-5-4.8-13-5-18.3-.3l-228.8 204.6c-5.6 5-6 13.5-1.1 19.1 2.7 3 6.4 4.5 10.1 4.5 3.2 0 6.4-1.1 9-3.4l41.2-36.9v238.6c0 18.7 15.2 34 34 34h72.2c17.6 0 31.9-14.3 31.9-31.9v-121.3c0-2.7 2.2-4.9 4.9-4.9h72.9c2.7 0 4.9 2.2 4.9 4.9v121.3c0 17.6 14.3 31.9 31.9 31.9h72.2c19 0 34-18.7 34-42.6v-228.7l41.2 36.9c2.6 2.3 5.8 3.4 9 3.4 3.7 0 7.4-1.5 10.1-4.5 4.8-5.6 4.3-14.1-1.2-19.1zm-86.2 66.7v145.1c0 9.7-4.8 15.6-7 15.6h-72.2c-2.7 0-4.9-2.2-4.9-4.9v-121.1c0-17.6-14.3-31.9-31.9-31.9h-72.9c-17.6 0-31.9 14.3-31.9 31.9v121.3c0 2.7-2.2 4.9-4.9 4.9h-72.2c-3.8 0-7-3.1-7-7v-262.8l151.8-135.6 153.1 136.9v107.6z"></path></svg><svg width="24" height="24" viewBox="0 0 24 24" id="info" y="3550"><path data-name="Path 10811" d="M12 0a12 12 0 1 0 12 12A12.035 12.035 0 0 0 12 0zm0 22a10 10 0 1 1 10-10 10.029 10.029 0 0 1-10 10z"></path><path data-name="Path 10812" d="M12 11a.945.945 0 0 0-1 1v4a1 1 0 0 0 2 0v-4a.945.945 0 0 0-1-1z"></path><path data-name="Path 10813" d="M12.7 6.3a.1.1 0 0 1-.1-.1c-.1 0-.1-.1-.2-.1s-.1 0-.2-.1a.806.806 0 0 0-.9.3.908.908 0 0 0-.3.7v.2c0 .1 0 .1.1.2 0 .1.1.1.1.2l.1.1c.1.1.2.2.3.2a.6.6 0 0 0 .4.1h.2c.1 0 .1 0 .2-.1.1 0 .1-.1.2-.1l.1-.1A.908.908 0 0 0 13 7a.6.6 0 0 0-.1-.4c0-.1-.1-.2-.2-.3z"></path></svg><svg height="512" viewBox="0 0 512 512.00038" width="512" id="instagram--color" y="3574"><radialGradient id="b" cx="104.957" cy="447.447" gradientUnits="userSpaceOnUse" r="564.646"><stop offset="0" stop-color="#fae100"></stop><stop offset=".054" stop-color="#fadc04"></stop><stop offset=".117" stop-color="#fbce0e"></stop><stop offset=".183" stop-color="#fcb720"></stop><stop offset=".251" stop-color="#fe9838"></stop><stop offset=".305" stop-color="#ff7950"></stop><stop offset=".492" stop-color="#ff1c74"></stop><stop offset="1" stop-color="#6c1cd1"></stop></radialGradient><linearGradient id="c" gradientUnits="userSpaceOnUse" x1="196.373" x2="-671.016" y1="222.46" y2="-265.446"><stop offset="0" stop-color="#a1b5d8" stop-opacity="0"></stop><stop offset=".309" stop-color="#90a2bd" stop-opacity=".31"></stop><stop offset=".755" stop-color="#7c8b9c" stop-opacity=".757"></stop><stop offset="1" stop-color="#748290"></stop></linearGradient><linearGradient id="d" gradientUnits="userSpaceOnUse" x1="256" x2="256" y1="451.966" y2="531.774"><stop offset="0" stop-color="#fae100" stop-opacity="0"></stop><stop offset=".307" stop-color="#fca800" stop-opacity=".306"></stop><stop offset=".627" stop-color="#fe7300" stop-opacity=".627"></stop><stop offset=".869" stop-color="#ff5200" stop-opacity=".867"></stop><stop offset="1" stop-color="#ff4500"></stop></linearGradient><linearGradient id="a"><stop offset="0" stop-color="#833ab4" stop-opacity="0"></stop><stop offset="1" stop-color="#833ab4"></stop></linearGradient><linearGradient id="e" gradientUnits="userSpaceOnUse" x1="226.872" x2="100.161" xlink:href="#a" y1="226.148" y2="99.436"></linearGradient><linearGradient id="f" gradientUnits="userSpaceOnUse" x1="350.9" x2="287.656" xlink:href="#a" y1="468.287" y2="170.138"></linearGradient><linearGradient id="g" gradientUnits="userSpaceOnUse" x1="374.965" x2="120.941" xlink:href="#a" y1="374.965" y2="120.941"></linearGradient><linearGradient id="h" gradientUnits="userSpaceOnUse" x1="393.807" x2="309.806" xlink:href="#a" y1="221.263" y2="137.262"></linearGradient><linearGradient id="i" gradientUnits="userSpaceOnUse" x1="357.658" x2="150.543" y1="155.05" y2="362.165"><stop offset="0" stop-color="#833ab4"></stop><stop offset=".092" stop-color="#9c3495"></stop><stop offset=".293" stop-color="#dc2546"></stop><stop offset=".392" stop-color="#fd1d1d"></stop><stop offset=".559" stop-color="#fc6831"></stop><stop offset=".689" stop-color="#fc9b40"></stop><stop offset=".752" stop-color="#fcaf45"></stop><stop offset=".781" stop-color="#fdb750"></stop><stop offset=".866" stop-color="#fecb6a"></stop><stop offset=".942" stop-color="#ffd87a"></stop><stop offset="1" stop-color="#ffdc80"></stop></linearGradient><path d="M503.234 91.578c-4.66-43.664-39.144-78.156-82.812-82.812-109.508-11.688-219.336-11.688-328.84 0-43.668 4.66-78.156 39.148-82.816 82.812-11.688 109.504-11.688 219.336 0 328.84 4.66 43.668 39.148 78.156 82.812 82.816 109.504 11.688 219.336 11.688 328.844 0 43.668-4.66 78.152-39.148 82.812-82.816 11.688-109.504 11.688-219.332 0-328.84zm0 0" fill="url(#b)"></path><path d="M475.387 110.098c-4.133-38.746-34.735-69.352-73.485-73.489-97.172-10.367-194.632-10.367-291.804 0-38.746 4.137-69.352 34.743-73.489 73.489-10.367 97.172-10.367 194.632 0 291.8 4.137 38.75 34.743 69.356 73.489 73.489 97.172 10.37 194.632 10.37 291.8 0 38.75-4.133 69.356-34.739 73.489-73.489 10.37-97.168 10.37-194.628 0-291.8zm0 0" fill="url(#c)"></path><path d="M7.672 409.805c.351 3.539.715 7.078 1.094 10.617 4.66 43.664 39.148 78.152 82.816 82.812 109.504 11.688 219.336 11.688 328.84 0 43.668-4.66 78.152-39.148 82.812-82.812.38-3.54.743-7.078 1.098-10.617zm0 0" fill="url(#d)"></path><path d="M503.234 420.418a1547.774 1547.774 0 0 0 8.711-176.7l-117.03-117.03c-14.622-16.692-35.978-27.11-61.071-28.012-51.606-1.86-103.375-1.766-154.989.008-42.867 1.476-72.843 30.289-80.53 72.636-1.356 7.477-2.169 15.051-3.235 22.582v124.149c.59 4.023 1.457 8.027 1.726 12.074 1.72 25.758 12.305 47.82 29.254 62.746l119.094 119.09c58.445.41 116.895-2.496 175.258-8.727 43.668-4.66 78.152-39.148 82.812-82.816zm0 0" fill="url(#e)"></path><path d="M503.234 420.422c-4.656 43.66-39.152 78.156-82.812 82.812a1548.657 1548.657 0 0 1-175.254 8.727L126.254 393.047c13.785 12.066 31.754 19.414 52.605 20.2 51.602 1.937 103.383 1.886 154.985.026 46.672-1.687 80.445-36.23 81.902-82.902a2373.981 2373.981 0 0 0 0-148.793c-.664-21.531-8.223-40.476-20.754-54.812L511.95 243.723a1550.386 1550.386 0 0 1-8.715 176.699zm0 0" fill="url(#f)"></path><path d="M316.414 200.559c-14.992-16.325-36.504-26.567-60.414-26.567-45.29 0-82.008 36.719-82.008 82.008 0 23.91 10.242 45.422 26.567 60.414l189.738 189.738a1564.245 1564.245 0 0 0 30.121-2.918c43.668-4.66 78.156-39.148 82.816-82.816a1564.245 1564.245 0 0 0 2.918-30.121zm0 0" fill="url(#g)"></path><path d="M511.008 311.152L358.305 158.453c-3.563-4.676-9.176-7.71-15.508-7.71-10.774 0-19.512 8.734-19.512 19.51 0 6.333 3.035 11.946 7.711 15.509l177.281 177.285a1537.438 1537.438 0 0 0 2.73-51.895zm0 0" fill="url(#h)"></path><path d="M95.09 193.902c1.066-7.53 1.879-15.105 3.234-22.582 7.684-42.347 37.664-71.16 80.531-72.636 51.614-1.774 103.383-1.868 154.989-.008 46.656 1.68 80.445 36.226 81.902 82.898 1.55 49.559 1.55 99.238 0 148.797-1.457 46.672-35.234 81.215-81.898 82.899-51.606 1.863-103.387 1.91-154.989-.028-46.664-1.754-78.922-36.379-82.043-83.12-.27-4.044-1.136-8.052-1.726-12.075V193.902zM256.043 385.61c23.617 0 47.258.707 70.844-.164 36.98-1.37 59.726-23.441 60.59-60.386a2973.28 2973.28 0 0 0 0-138.172c-.864-36.938-23.625-59.524-60.59-60.309a3343.88 3343.88 0 0 0-140.805 0c-36.684.77-59.496 22.899-60.492 59.43a2579.097 2579.097 0 0 0 0 139.933c.996 36.528 23.808 58.145 60.496 59.504 23.289.867 46.637.164 69.957.164zm0 0" fill="url(#i)"></path><g fill="#fff"><path d="M95.09 193.902c1.066-7.53 1.879-15.105 3.234-22.582 7.684-42.347 37.664-71.16 80.531-72.636 51.614-1.774 103.383-1.868 154.989-.008 46.656 1.68 80.445 36.226 81.902 82.898 1.55 49.559 1.55 99.238 0 148.797-1.457 46.672-35.234 81.215-81.898 82.899-51.606 1.863-103.387 1.91-154.989-.028-46.664-1.754-78.922-36.379-82.043-83.12-.27-4.044-1.136-8.052-1.726-12.075V193.902zM256.043 385.61c23.617 0 47.258.707 70.844-.164 36.98-1.37 59.726-23.441 60.59-60.386a2973.28 2973.28 0 0 0 0-138.172c-.864-36.938-23.625-59.524-60.59-60.309a3343.88 3343.88 0 0 0-140.805 0c-36.684.77-59.496 22.899-60.492 59.43a2579.097 2579.097 0 0 0 0 139.933c.996 36.528 23.808 58.145 60.496 59.504 23.289.867 46.637.164 69.957.164zm0 0"></path><path d="M256 173.996c-45.29 0-82.008 36.715-82.008 82.004 0 45.293 36.719 82.008 82.008 82.008 45.293 0 82.008-36.715 82.008-82.008 0-45.29-36.715-82.004-82.008-82.004zm0 135.777c-29.7 0-53.773-24.074-53.773-53.773S226.3 202.227 256 202.227 309.773 226.3 309.773 256 285.7 309.773 256 309.773zm106.305-139.519c0 10.773-8.735 19.508-19.508 19.508s-19.512-8.735-19.512-19.508c0-10.777 8.738-19.512 19.512-19.512s19.508 8.735 19.508 19.512zm0 0"></path></g></svg><svg viewBox="0 0 490.4 490.4" width="490.4" height="490.4" id="interface" y="4086"><path d="M245.2 490.4c135.2 0 245.2-110 245.2-245.2S380.4 0 245.2 0 0 110 0 245.2s110 245.2 245.2 245.2zm0-465.9c121.7 0 220.7 99 220.7 220.7s-99 220.7-220.7 220.7-220.7-99-220.7-220.7 99-220.7 220.7-220.7z"></path><path d="M206.5 349.6c2.3 2.3 5.4 3.6 8.7 3.6 3.2 0 6.3-1.3 8.6-3.6l147.5-146.7c2.3-2.3 3.6-5.4 3.6-8.7 0-3.2-1.3-6.4-3.6-8.7l-44.6-44.8c-4.8-4.8-12.5-4.8-17.3-.1l-94 93.5-34.2-34.4c-2.3-2.3-5.4-3.6-8.7-3.6-3.2 0-6.3 1.3-8.6 3.6l-44.8 44.6c-2.3 2.3-3.6 5.4-3.6 8.7 0 3.2 1.3 6.4 3.6 8.7l87.4 87.9zm-34-123.9l34.3 34.5c4.8 4.8 12.5 4.8 17.3.1l94-93.5 27.3 27.4-130.1 129.4-70.2-70.6 27.4-27.3z"></path></svg><svg width="96" height="95.428" viewBox="0 0 96 95.428" id="like" y="4577"><path data-name="Path 83" d="M93.4 51.227a10.194 10.194 0 0 0-7.6-17H66A65.927 65.927 0 0 0 68.8 17v-3.4A13.617 13.617 0 0 0 55.2 0h-3.4a3.4 3.4 0 0 0-3.3 2.575l-1.852 7.41c-2.6 10.377-10.835 21.826-19.362 23.907a10.214 10.214 0 0 0-9.488-6.465H3.4a3.4 3.4 0 0 0-3.4 3.4v61.2a3.4 3.4 0 0 0 3.4 3.4h14.4a10.211 10.211 0 0 0 9.207-5.814l11.682 3.894a37.318 37.318 0 0 0 11.828 1.92H79a10.2 10.2 0 0 0 9.484-13.958 10.194 10.194 0 0 0 4.912-16.642 10.18 10.18 0 0 0 0-13.6zm-72.2 34a3.4 3.4 0 0 1-3.4 3.4h-11v-54.4h11a3.4 3.4 0 0 1 3.4 3.4zm57.8-30.6h6.8a3.4 3.4 0 1 1 0 6.8H79a3.4 3.4 0 0 0 0 6.8h6.8a3.4 3.4 0 1 1 0 6.8H79a3.4 3.4 0 1 0 0 6.8 3.4 3.4 0 0 1 0 6.8H50.517a30.534 30.534 0 0 1-9.679-1.571L28 82.777V40.705c5.333-1.013 10.554-4.391 15.266-9.919a49.611 49.611 0 0 0 9.98-19.151L54.454 6.8h.746a6.808 6.808 0 0 1 6.8 6.8V17c0 4.565-1.428 13.321-3.255 17.229H51.8a3.4 3.4 0 0 0 0 6.8h34a3.4 3.4 0 1 1 0 6.8H79a3.4 3.4 0 0 0 0 6.8z"></path></svg><svg width="18.393" height="23.039" viewBox="0 0 18.393 23.039" id="location" y="4673"><g data-name="Group 3524"><path data-name="Path 10785" d="M9.191 12.245H9.2a3.8 3.8 0 0 0 0-7.6 3.8 3.8 0 0 0-3.8 3.8v.019a3.79 3.79 0 0 0 3.791 3.781zm.009-6a2.2 2.2 0 1 1-2.2 2.2 2.2 2.2 0 0 1 2.2-2.2z"></path><path data-name="Path 10786" d="M8.679 22.855a.821.821 0 0 0 1.035 0c.111-.083 8.679-7.4 8.679-13.909A9.2 9.2 0 0 0 0 8.958c0 6.303 8.3 13.57 8.679 13.897zM3.824 3.574A7.6 7.6 0 0 1 16.8 8.945c0 4.321-4.588 9.353-7.324 11.967a.4.4 0 0 1-.552 0C6.187 18.3 1.6 13.268 1.6 8.945a7.542 7.542 0 0 1 2.224-5.371z"></path></g></svg><svg width="19" height="33" viewBox="0 0 19 33" id="login" y="4697"><path class="cls-1" d="M16.71 28.7h-5.16v-1.641h3.3a2.151 2.151 0 1 0 0-4.293h-3.29v-5.7a9.374 9.374 0 0 0 4.25-2.272 8.273 8.273 0 0 0 .01-12.255 9.721 9.721 0 0 0-13.1 0 8.272 8.272 0 0 0-.01 12.255 9.4 9.4 0 0 0 4.26 2.27L6.96 30.85a2.064 2.064 0 0 0 .68 1.518 2.111 2.111 0 0 0 .33.262 2.422 2.422 0 0 0 1.29.366h7.45a2.151 2.151 0 1 0 0-4.296zM5.96 11.76a4.174 4.174 0 0 1 0-6.184 4.905 4.905 0 0 1 6.61 0 4.174 4.174 0 0 1 0 6.184 4.9 4.9 0 0 1-6.61 0z"></path></svg><svg viewBox="0 0 451 451" width="451" height="451" id="magnifying-glass" y="4730"><path d="M447.05 428l-109.6-109.6c29.4-33.8 47.2-77.9 47.2-126.1C384.65 86.2 298.35 0 192.35 0 86.25 0 .05 86.3.05 192.3s86.3 192.3 192.3 192.3c48.2 0 92.3-17.8 126.1-47.2L428.05 447c2.6 2.6 6.1 4 9.5 4s6.9-1.3 9.5-4c5.2-5.2 5.2-13.8 0-19zM26.95 192.3c0-91.2 74.2-165.3 165.3-165.3 91.2 0 165.3 74.2 165.3 165.3s-74.1 165.4-165.3 165.4c-91.1 0-165.3-74.2-165.3-165.4z"></path></svg><svg viewBox="0 0 483.3 483.3" width="483.3" height="483.3" id="mail" y="5181"><path d="M424.3 57.75H59.1c-32.6 0-59.1 26.5-59.1 59.1v249.6c0 32.6 26.5 59.1 59.1 59.1h365.1c32.6 0 59.1-26.5 59.1-59.1v-249.5c.1-32.6-26.4-59.2-59-59.2zm32.1 308.7c0 17.7-14.4 32.1-32.1 32.1H59.1c-17.7 0-32.1-14.4-32.1-32.1v-249.5c0-17.7 14.4-32.1 32.1-32.1h365.1c17.7 0 32.1 14.4 32.1 32.1v249.5h.1z"></path><path d="M304.8 238.55l118.2-106c5.5-5 6-13.5 1-19.1-5-5.5-13.5-6-19.1-1l-163 146.3-31.8-28.4c-.1-.1-.2-.2-.2-.3-.7-.7-1.4-1.3-2.2-1.9L78.3 112.35c-5.6-5-14.1-4.5-19.1 1.1-5 5.6-4.5 14.1 1.1 19.1l119.6 106.9-119.1 111.5c-5.4 5.1-5.7 13.6-.6 19.1 2.7 2.8 6.3 4.3 9.9 4.3 3.3 0 6.6-1.2 9.2-3.6l120.9-113.1 32.8 29.3c2.6 2.3 5.8 3.4 9 3.4s6.5-1.2 9-3.5l33.7-30.2 120.2 114.2c2.6 2.5 6 3.7 9.3 3.7 3.6 0 7.1-1.4 9.8-4.2 5.1-5.4 4.9-14-.5-19.1l-118.7-112.7z"></path></svg><svg width="17.601" height="15.6" viewBox="0 0 17.601 15.6" id="menu" y="5665"><path data-name="Union 193" d="M.8 15.601a.859.859 0 0 1-.8-.8.861.861 0 0 1 .8-.8h16a.863.863 0 0 1 .8.8.86.86 0 0 1-.8.8zm0-7a.859.859 0 0 1-.8-.8.859.859 0 0 1 .8-.8h16a.86.86 0 0 1 .8.8.861.861 0 0 1-.8.8zm0-7a.859.859 0 0 1-.8-.8.861.861 0 0 1 .8-.8h16a.863.863 0 0 1 .8.8.86.86 0 0 1-.8.8z"></path></svg><svg height="469" viewBox="0 -192 469.33333 469" width="469" id="minus" y="5681"><path d="M437.332.168H32c-17.664 0-32 14.336-32 32V53.5c0 17.664 14.336 32 32 32h405.332c17.664 0 32-14.336 32-32V32.168c0-17.664-14.336-32-32-32zm0 0"></path></svg><svg width="23.893" height="24" viewBox="0 0 23.893 24" id="phone" y="6150"><path data-name="Path 4953" d="M20.114 14.306a2.505 2.505 0 0 0-1.817-.833 2.591 2.591 0 0 0-1.839.828l-1.702 1.693c-.14-.075-.28-.145-.414-.215-.194-.1-.376-.188-.532-.285a18.465 18.465 0 0 1-4.425-4.032 10.894 10.894 0 0 1-1.452-2.29c.441-.4.849-.823 1.247-1.226.151-.151.3-.306.452-.457a2.467 2.467 0 0 0 0-3.72L8.168 2.301a21.885 21.885 0 0 1-.5-.511 25.832 25.832 0 0 0-1.011-1 2.545 2.545 0 0 0-1.8-.79 2.634 2.634 0 0 0-1.828.79l-.011.011-1.829 1.844a3.933 3.933 0 0 0-1.167 2.5A9.425 9.425 0 0 0 .71 9.134a23.149 23.149 0 0 0 4.114 6.86 25.3 25.3 0 0 0 8.424 6.6 13.126 13.126 0 0 0 4.731 1.4c.113.005.231.011.339.011a4.051 4.051 0 0 0 3.1-1.333c.005-.011.016-.016.022-.027a12.224 12.224 0 0 1 .941-.973c.231-.22.468-.452.7-.694a2.682 2.682 0 0 0 .812-1.86 2.584 2.584 0 0 0-.828-1.844zm1.925 5.661c-.005 0-.005.005 0 0-.21.226-.425.43-.656.656a14.137 14.137 0 0 0-1.038 1.071 2.592 2.592 0 0 1-2.022.855c-.081 0-.167 0-.247-.005a11.661 11.661 0 0 1-4.193-1.25 23.882 23.882 0 0 1-7.935-6.215 21.827 21.827 0 0 1-3.872-6.45 7.676 7.676 0 0 1-.6-3.366 2.468 2.468 0 0 1 .742-1.6L4.051 1.83a1.222 1.222 0 0 1 .817-.382 1.15 1.15 0 0 1 .788.38l.016.016c.328.306.64.624.968.962.167.172.339.344.511.522l1.463 1.466a1.026 1.026 0 0 1 0 1.667c-.156.156-.306.312-.462.462-.452.462-.882.892-1.349 1.312-.011.011-.022.016-.027.027a1.1 1.1 0 0 0-.28 1.22l.016.048a11.784 11.784 0 0 0 1.737 2.833l.005.005a19.733 19.733 0 0 0 4.774 4.344 7.34 7.34 0 0 0 .661.36c.194.1.376.188.532.285.022.011.043.027.065.038a1.165 1.165 0 0 0 .532.134 1.15 1.15 0 0 0 .817-.371l1.839-1.839a1.216 1.216 0 0 1 .812-.4 1.1 1.1 0 0 1 .774.392l.011.011 2.962 2.962a1.063 1.063 0 0 1 .006 1.684z"></path></svg><svg viewBox="0 0 477 477" width="477" height="477" id="placeholder" y="6174"><path d="M238.4 0C133 0 47.2 85.8 47.2 191.2c0 12 1.1 24.1 3.4 35.9.1.7.5 2.8 1.3 6.4 2.9 12.9 7.2 25.6 12.8 37.7 20.6 48.5 65.9 123 165.3 202.8 2.5 2 5.5 3 8.5 3s6-1 8.5-3c99.3-79.8 144.7-154.3 165.3-202.8 5.6-12.1 9.9-24.7 12.8-37.7.8-3.6 1.2-5.7 1.3-6.4 2.2-11.8 3.4-23.9 3.4-35.9C429.6 85.8 343.8 0 238.4 0zm161.2 222.4c0 .2-.1.4-.1.6-.1.5-.4 2-.9 4.3v.2c-2.5 11.2-6.2 22.1-11.1 32.6-.1.1-.1.3-.2.4-18.7 44.3-59.7 111.9-148.9 185.6-89.2-73.7-130.2-141.3-148.9-185.6-.1-.1-.1-.3-.2-.4-4.8-10.4-8.5-21.4-11.1-32.6v-.2c-.6-2.3-.8-3.8-.9-4.3 0-.2-.1-.4-.1-.7-2-10.3-3-20.7-3-31.2 0-90.5 73.7-164.2 164.2-164.2s164.2 73.7 164.2 164.2c0 10.6-1 21.1-3 31.3z"></path><path d="M238.4 71.9c-66.9 0-121.4 54.5-121.4 121.4s54.5 121.4 121.4 121.4 121.4-54.5 121.4-121.4S305.3 71.9 238.4 71.9zm0 215.8c-52.1 0-94.4-42.4-94.4-94.4s42.4-94.4 94.4-94.4 94.4 42.4 94.4 94.4-42.3 94.4-94.4 94.4z"></path></svg><svg height="448" viewBox="0 0 448 448" width="448" id="plus" y="6651"><path d="M408 184H272a8 8 0 0 1-8-8V40c0-22.09-17.91-40-40-40s-40 17.91-40 40v136a8 8 0 0 1-8 8H40c-22.09 0-40 17.91-40 40s17.91 40 40 40h136a8 8 0 0 1 8 8v136c0 22.09 17.91 40 40 40s40-17.91 40-40V272a8 8 0 0 1 8-8h136c22.09 0 40-17.91 40-40s-17.91-40-40-40zm0 0"></path></svg><svg width="24" height="22" viewBox="0 0 24 22" id="repeat" y="7099"><defs><path id="a" d="M1515.477 514.514c-1.232 2.532-3.395 4.441-6.088 5.377a10.878 10.878 0 0 1-3.577.604c-2.96 0-5.816-1.219-7.835-3.344a1.247 1.247 0 0 1 .068-1.788 1.287 1.287 0 0 1 1.794.066 8.264 8.264 0 0 0 5.974 2.55 8.29 8.29 0 0 0 2.73-.461c3.245-1.128 5.425-4.153 5.425-7.529 0-.907-.158-1.801-.469-2.66-1.15-3.18-4.24-5.316-7.692-5.316a8.25 8.25 0 0 0-2.72.461c-1.697.589-3.107 1.671-4.07 3.104l2.508-.872a1.276 1.276 0 0 1 1.623.762 1.26 1.26 0 0 1-.778 1.612l-5.358 1.864a1.285 1.285 0 0 1-.97-.05 1.265 1.265 0 0 1-.653-.71l-1.8-4.98a1.238 1.238 0 0 1-.076-.426c0-.533.343-1.01.854-1.186a1.284 1.284 0 0 1 1.621.764l.749 2.073c1.27-2.007 3.19-3.524 5.503-4.328 1.15-.401 2.35-.604 3.567-.604 4.526 0 8.582 2.806 10.095 6.984.412 1.142.62 2.326.62 3.52 0 1.567-.351 3.085-1.045 4.513z"></path></defs><use xlink:href="#a" transform="translate(-1493 -499)"></use></svg><svg width="23" height="23" viewBox="0 0 23 23" id="search" y="7121"><path d="M12.989 17.206a7.369 7.369 0 0 1-5.184-2.153l-.002-.002c-2.86-2.865-2.857-7.523.008-10.384a7.293 7.293 0 0 1 5.19-2.148h.004a7.291 7.291 0 0 1 5.19 2.155c2.862 2.865 2.859 7.524-.005 10.384A7.298 7.298 0 0 1 13 17.206zm-11.86 5.649c.29 0 .58-.111.8-.331L7.052 17.4a9.652 9.652 0 0 0 5.936 2.064H13a9.54 9.54 0 0 0 6.785-2.808c3.747-3.742 3.75-9.834.008-13.58A9.54 9.54 0 0 0 13.006.26H13a9.54 9.54 0 0 0-6.786 2.808c-3.475 3.472-3.73 8.967-.76 12.735L.331 20.926a1.127 1.127 0 0 0 0 1.598c.221.22.51.33.799.33z"></path></svg><svg viewBox="0 0 481.6 481.6" width="481.6" height="481.6" id="share" y="7144"><path d="M381.6 309.4c-27.7 0-52.4 13.2-68.2 33.6l-132.3-73.9c3.1-8.9 4.8-18.5 4.8-28.4 0-10-1.7-19.5-4.9-28.5l132.2-73.8c15.7 20.5 40.5 33.8 68.3 33.8 47.4 0 86.1-38.6 86.1-86.1S429 0 381.5 0s-86.1 38.6-86.1 86.1c0 10 1.7 19.6 4.9 28.5l-132.1 73.8c-15.7-20.6-40.5-33.8-68.3-33.8-47.4 0-86.1 38.6-86.1 86.1s38.7 86.1 86.2 86.1c27.8 0 52.6-13.3 68.4-33.9l132.2 73.9c-3.2 9-5 18.7-5 28.7 0 47.4 38.6 86.1 86.1 86.1s86.1-38.6 86.1-86.1-38.7-86.1-86.2-86.1zm0-282.3c32.6 0 59.1 26.5 59.1 59.1s-26.5 59.1-59.1 59.1-59.1-26.5-59.1-59.1 26.6-59.1 59.1-59.1zM100 299.8c-32.6 0-59.1-26.5-59.1-59.1s26.5-59.1 59.1-59.1 59.1 26.5 59.1 59.1-26.6 59.1-59.1 59.1zm281.6 154.7c-32.6 0-59.1-26.5-59.1-59.1s26.5-59.1 59.1-59.1 59.1 26.5 59.1 59.1-26.5 59.1-59.1 59.1z"></path></svg><svg height="512" viewBox="-3 0 512 512" width="512" id="shopping-cart" y="7626"><path d="M494.93 97.148c-9.493-10.843-23.024-16.816-38.098-16.816H92.402l-3.668-27.5C84.781 23.207 64.156 0 41.777 0H15C6.715 0 0 6.715 0 15s6.715 15 15 15h26.777c4.813 0 15.004 10.176 17.22 26.797l42.937 322.039c1.89 14.195 9.183 27.484 20.535 37.422 8.418 7.37 18.367 12.273 28.789 14.324a54.795 54.795 0 0 0-6.66 26.25c0 30.422 24.75 55.168 55.168 55.168s55.168-24.746 55.168-55.168a54.78 54.78 0 0 0-6.102-25.164h78.602a54.78 54.78 0 0 0-6.102 25.164c0 30.422 24.75 55.168 55.168 55.168s55.168-24.746 55.168-55.168a54.78 54.78 0 0 0-6.102-25.164h39.301c8.281 0 15-6.719 15-15 0-8.285-6.719-15-15-15h-302.59c-14.656 0-28.672-12.273-30.609-26.8l-3.137-23.536h116.746c.004 0 .008.004.012.004s.008-.004.016-.004h96.367c.004 0 .008.004.015.004.004 0 .004-.004.008-.004H424.7c14.32 0 28.457-5.473 39.809-15.406 11.351-9.938 18.644-23.23 20.535-37.426l21.516-161.367c1.992-14.942-2.137-29.14-11.63-39.985zM224.934 456.832c0 13.879-11.29 25.168-25.168 25.168-13.875 0-25.168-11.29-25.168-25.168 0-13.875 11.293-25.164 25.168-25.164 13.879 0 25.168 11.289 25.168 25.164zm176.734 0c0 13.879-11.29 25.168-25.168 25.168s-25.168-11.29-25.168-25.168c0-13.875 11.29-25.164 25.168-25.164s25.168 11.289 25.168 25.164zm70.687-339.922c3.715 4.242 5.301 10.012 4.465 16.254l-9.02 67.668H365.739l6.032-90.5h85.062c6.3 0 11.813 2.336 15.523 6.578zm-213.02 204.422l-6.034-90.5h80.37l-6.034 90.5zm-8.034-120.5l-6.031-90.5h96.433l-6.031 90.5zm-36.098-90.5l6.031 90.5h-112.77l-12.066-90.5zm-102.738 120.5h110.77l6.035 90.5H124.53zm312.234 90.5h-66.996l6.035-90.5h100.063l-8.492 63.703c-1.938 14.527-15.957 26.797-30.61 26.797zm0 0"></path></svg><svg width="43" height="43" viewBox="0 0 43 43" id="smile-good" y="8138"><defs><path id="a" d="M928 1166c0 5.34-2.08 10.36-5.86 14.14A19.87 19.87 0 0 1 908 1186a19.87 19.87 0 0 1-14.14-5.86A19.87 19.87 0 0 1 888 1166c0-5.34 2.08-10.37 5.86-14.14A19.87 19.87 0 0 1 908 1146c5.34 0 10.36 2.08 14.14 5.86A19.87 19.87 0 0 1 928 1166zm-2.47 0c0-9.66-7.87-17.53-17.53-17.53a17.55 17.55 0 0 0-17.53 17.53c0 9.66 7.87 17.52 17.53 17.52s17.53-7.86 17.53-17.52zm-14.15-3.8a2.89 2.89 0 1 1 5.78.01 2.89 2.89 0 0 1-5.78 0zm-12.54 0a2.89 2.89 0 1 1 5.78.01 2.89 2.89 0 0 1-5.78 0zm17.87 7l2.32.86a11.8 11.8 0 0 1-11.03 7.7c-4.9 0-9.33-3.1-11.03-7.7l2.32-.86a9.32 9.32 0 0 0 8.71 6.08 9.32 9.32 0 0 0 8.71-6.08z"></path></defs><use xlink:href="#a" transform="translate(-886 -1144)"></use></svg><svg viewBox="0 0 512 512" width="512" height="512" id="soc-facebook" y="8181"><path d="M134.941 272.691h56.123v231.051a8.256 8.256 0 0 0 8.258 8.258h95.159a8.256 8.256 0 0 0 8.258-8.258V273.78h64.519a8.26 8.26 0 0 0 8.204-7.315l9.799-85.061a8.259 8.259 0 0 0-8.202-9.203h-74.316V118.88c0-16.073 8.654-24.224 25.726-24.224h48.59a8.258 8.258 0 0 0 8.258-8.258V8.319a8.256 8.256 0 0 0-8.258-8.258h-66.965A65.863 65.863 0 0 0 307.027 0c-11.619 0-52.006 2.281-83.909 31.63-35.348 32.524-30.434 71.465-29.26 78.217v62.352H134.94a8.256 8.256 0 0 0-8.258 8.258v83.975a8.26 8.26 0 0 0 8.259 8.259z"></path></svg><svg width="90" height="90" viewBox="0 0 90 90" id="soc-facebook-box" y="8693"><path d="M90 15.001C90 7.119 82.884 0 75 0H15C7.116 0 0 7.119 0 15.001v59.998C0 82.881 7.116 90 15.001 90H45V56H34V41h11v-5.844C45 25.077 52.568 16 61.875 16H74v15H61.875C60.548 31 59 32.611 59 35.024V41h15v15H59v34h16c7.884 0 15-7.119 15-15.001V15.001z"></path></svg><svg width="96.669" height="96.669" viewBox="0 0 96.669 96.669" id="soc-google" y="8783"><path d="M50.91 55.189l-4.533-3.522c-1.38-1.144-3.27-2.656-3.27-5.422 0-2.778 1.889-4.544 3.527-6.18 5.279-4.157 10.557-8.581 10.557-17.903 0-9.586-6.031-14.629-8.923-17.022h7.795L64.244 0H39.459C32.658 0 22.856 1.608 15.68 7.533c-5.408 4.666-8.046 11.099-8.046 16.892 0 9.831 7.548 19.798 20.88 19.798 1.259 0 2.636-.124 4.022-.252-.623 1.515-1.252 2.777-1.252 4.917 0 3.905 2.006 6.299 3.774 8.567-5.663.39-16.237 1.018-24.033 5.809-7.424 4.415-9.684 10.84-9.684 15.377 0 9.334 8.8 18.028 27.045 18.028 21.636 0 33.089-11.971 33.089-23.823.002-8.707-5.028-12.992-10.565-17.657zM34.431 40.691c-10.824 0-15.727-13.992-15.727-22.434 0-3.288.623-6.682 2.763-9.333C23.486 6.4 27 4.762 30.281 4.762c10.434 0 15.846 14.118 15.846 23.197 0 2.271-.251 6.296-3.144 9.207-2.023 2.021-5.409 3.525-8.552 3.525zm.124 50.696c-13.46 0-22.139-6.438-22.139-15.392 0-8.949 8.048-11.978 10.816-12.979 5.281-1.777 12.076-2.024 13.21-2.024 1.258 0 1.887 0 2.889.126 9.568 6.81 13.721 10.203 13.721 16.65.001 7.805-6.417 13.619-18.497 13.619zm48.124-50.888V27.894h-6.224v12.605H63.869v6.294h12.586v12.684h6.224V46.793h12.649v-6.294z"></path></svg><svg width="430.117" height="430.117" viewBox="0 0 430.117 430.117" id="soc-in" y="8880"><path d="M430.117 261.543V420.56h-92.188V272.193c0-37.271-13.334-62.707-46.703-62.707-25.473 0-40.632 17.142-47.301 33.724-2.432 5.928-3.058 14.179-3.058 22.477V420.56h-92.219s1.242-251.285 0-277.32h92.21v39.309c-.187.294-.43.611-.606.896h.606v-.896c12.251-18.869 34.13-45.824 83.102-45.824 60.673-.001 106.157 39.636 106.157 124.818zM52.183 9.558C20.635 9.558 0 30.251 0 57.463c0 26.619 20.038 47.94 50.959 47.94h.616c32.159 0 52.159-21.317 52.159-47.94-.606-27.212-20-47.905-51.551-47.905zM5.477 420.56h92.184V143.24H5.477v277.32z"></path></svg><svg width="438.536" height="438.536" viewBox="0 0 438.536 438.536" id="soc-instagram" y="9311"><path d="M421.981 16.562C410.941 5.519 397.711 0 382.298 0H56.248C40.83 0 27.604 5.521 16.561 16.562 5.52 27.6.001 40.828.001 56.243V382.29c0 15.413 5.518 28.644 16.56 39.683 11.043 11.04 24.272 16.563 39.687 16.563h326.046c15.41 0 28.644-5.523 39.684-16.563 11.043-11.039 16.557-24.27 16.557-39.683V56.243c-.001-15.418-5.514-28.639-16.554-39.681zM157.462 158.025c17.224-16.652 37.924-24.982 62.097-24.982 24.36 0 45.153 8.33 62.381 24.982 17.228 16.655 25.837 36.785 25.837 60.386 0 23.598-8.609 43.729-25.837 60.379-17.228 16.659-38.014 24.988-62.381 24.988-24.172 0-44.87-8.336-62.097-24.988-17.228-16.652-25.841-36.781-25.841-60.379 0-23.601 8.613-43.73 25.841-60.386zm231.403 212.564c0 4.945-1.718 9.083-5.141 12.416-3.433 3.33-7.519 4.996-12.282 4.996h-305.2c-4.948 0-9.091-1.666-12.419-4.996-3.333-3.326-4.998-7.471-4.998-12.416V185.575H89.08c-3.805 11.993-5.708 24.462-5.708 37.402 0 36.553 13.322 67.715 39.969 93.511 26.65 25.786 58.721 38.685 96.217 38.685 24.744 0 47.583-5.903 68.527-17.703 20.937-11.807 37.486-27.839 49.676-48.112 12.183-20.272 18.274-42.4 18.274-66.38 0-12.94-1.91-25.406-5.715-37.402h38.547V370.59h-.002zm0-254.963c0 5.52-1.903 10.184-5.716 13.99-3.805 3.809-8.466 5.711-13.989 5.711h-49.676c-5.517 0-10.185-1.903-13.99-5.711-3.806-3.806-5.708-8.47-5.708-13.99V68.522c0-5.33 1.902-9.945 5.708-13.848 3.806-3.901 8.474-5.854 13.99-5.854h49.676c5.523 0 10.185 1.952 13.989 5.854 3.812 3.903 5.716 8.518 5.716 13.848v47.104z"></path></svg><svg width="95.481" height="95.481" viewBox="0 0 95.481 95.481" id="soc-ok" y="9750"><path d="M43.041 67.254c-7.402-.772-14.076-2.595-19.79-7.064-.709-.556-1.441-1.092-2.088-1.713-2.501-2.402-2.753-5.153-.774-7.988 1.693-2.426 4.535-3.075 7.489-1.682.572.27 1.117.607 1.639.969 10.649 7.317 25.278 7.519 35.967.329 1.059-.812 2.191-1.474 3.503-1.812 2.551-.655 4.93.282 6.299 2.514 1.564 2.549 1.544 5.037-.383 7.016-2.956 3.034-6.511 5.229-10.461 6.761-3.735 1.448-7.826 2.177-11.875 2.661.611.665.899.992 1.281 1.376 5.498 5.524 11.02 11.025 16.5 16.566 1.867 1.888 2.257 4.229 1.229 6.425-1.124 2.4-3.64 3.979-6.107 3.81-1.563-.108-2.782-.886-3.865-1.977-4.149-4.175-8.376-8.273-12.441-12.527-1.183-1.237-1.752-1.003-2.796.071-4.174 4.297-8.416 8.528-12.683 12.735-1.916 1.889-4.196 2.229-6.418 1.15-2.362-1.145-3.865-3.556-3.749-5.979.08-1.639.886-2.891 2.011-4.014 5.441-5.433 10.867-10.88 16.295-16.322.359-.362.694-.746 1.217-1.305z"></path><path d="M47.55 48.329c-13.205-.045-24.033-10.992-23.956-24.218C23.67 10.739 34.505-.037 47.84 0c13.362.036 24.087 10.967 24.02 24.478-.068 13.199-10.971 23.897-24.31 23.851zm12.001-24.186c-.023-6.567-5.253-11.795-11.807-11.801-6.609-.007-11.886 5.316-11.835 11.943.049 6.542 5.324 11.733 11.896 11.709 6.552-.023 11.768-5.285 11.746-11.851z"></path></svg><svg viewBox="0 0 300 300" width="300" height="300" id="soc-telegram" y="9846"><path d="M5.299 144.645l69.126 25.8 26.756 86.047c1.712 5.511 8.451 7.548 12.924 3.891l38.532-31.412a11.496 11.496 0 0 1 14.013-.391l69.498 50.457c4.785 3.478 11.564.856 12.764-4.926L299.823 29.22c1.31-6.316-4.896-11.585-10.91-9.259L5.218 129.402c-7.001 2.7-6.94 12.612.081 15.243zm91.57 12.066l135.098-83.207c2.428-1.491 4.926 1.792 2.841 3.726L123.313 180.87a23.112 23.112 0 0 0-7.163 13.829l-3.798 28.146c-.503 3.758-5.782 4.131-6.819.494l-14.607-51.325c-1.673-5.854.765-12.107 5.943-15.303z"></path></svg><svg viewBox="0 0 410.155 410.155" width="410.155" height="410.155" id="soc-twitter" y="10146"><path d="M403.632 74.18a162.414 162.414 0 0 1-28.28 9.537 88.177 88.177 0 0 0 23.275-37.067c1.295-4.051-3.105-7.554-6.763-5.385a163.188 163.188 0 0 1-43.235 17.862 11.02 11.02 0 0 1-2.702.336c-2.766 0-5.455-1.027-7.57-2.891-16.156-14.239-36.935-22.081-58.508-22.081-9.335 0-18.76 1.455-28.014 4.325-28.672 8.893-50.795 32.544-57.736 61.724-2.604 10.945-3.309 21.9-2.097 32.56a3.166 3.166 0 0 1-.797 2.481 3.278 3.278 0 0 1-2.753 1.091c-62.762-5.831-119.358-36.068-159.363-85.14-2.04-2.503-5.952-2.196-7.578.593-7.834 13.44-11.974 28.812-11.974 44.454 0 23.972 9.631 46.563 26.36 63.032a79.24 79.24 0 0 1-20.169-7.808c-3.06-1.7-6.825.485-6.868 3.985-.438 35.612 20.412 67.3 51.646 81.569a79.567 79.567 0 0 1-16.786-1.399c-3.446-.658-6.341 2.611-5.271 5.952 10.138 31.651 37.39 54.981 70.002 60.278-27.066 18.169-58.585 27.753-91.39 27.753l-10.227-.006c-3.151 0-5.816 2.054-6.619 5.106-.791 3.006.666 6.177 3.353 7.74 36.966 21.513 79.131 32.883 121.955 32.883 37.485 0 72.549-7.439 104.219-22.109 29.033-13.449 54.689-32.674 76.255-57.141 20.09-22.792 35.8-49.103 46.692-78.201 10.383-27.737 15.871-57.333 15.871-85.589v-1.346c-.001-4.537 2.051-8.806 5.631-11.712a174.776 174.776 0 0 0 35.16-38.591c2.573-3.849-1.485-8.673-5.719-6.795z"></path></svg><svg viewBox="0 0 512 512" width="512" height="512" id="soc-vk" y="10557"><path d="M440.649 295.361c16.984 16.582 34.909 32.182 50.142 50.436 6.729 8.112 13.099 16.482 17.973 25.896 6.906 13.382.651 28.108-11.348 28.907l-74.59-.034c-19.238 1.596-34.585-6.148-47.489-19.302-10.327-10.519-19.891-21.714-29.821-32.588-4.071-4.444-8.332-8.626-13.422-11.932-10.182-6.609-19.021-4.586-24.84 6.034-5.926 10.802-7.271 22.762-7.853 34.8-.799 17.564-6.108 22.182-23.751 22.986-37.705 1.778-73.489-3.926-106.732-22.947-29.308-16.768-52.034-40.441-71.816-67.24-38.513-52.183-68.008-109.525-94.516-168.473-5.967-13.281-1.603-20.41 13.051-20.663 24.333-.473 48.663-.439 73.025-.034 9.89.145 16.437 5.817 20.256 15.16 13.165 32.371 29.274 63.169 49.494 91.716 5.385 7.6 10.876 15.201 18.694 20.55 8.65 5.923 15.236 3.96 19.305-5.676 2.582-6.11 3.713-12.691 4.295-19.234 1.928-22.513 2.182-44.988-1.199-67.422-2.076-14.001-9.962-23.065-23.933-25.714-7.129-1.351-6.068-4.004-2.616-8.073 5.995-7.018 11.634-11.387 22.875-11.387h84.298c13.271 2.619 16.218 8.581 18.035 21.934l.072 93.637c-.145 5.169 2.582 20.51 11.893 23.931 7.452 2.436 12.364-3.526 16.836-8.251 20.183-21.421 34.588-46.737 47.457-72.951 5.711-11.527 10.622-23.497 15.381-35.458 3.526-8.875 9.059-13.242 19.056-13.049l81.132.072c2.406 0 4.84.035 7.17.434 13.671 2.33 17.418 8.211 13.195 21.561-6.653 20.945-19.598 38.4-32.255 55.935-13.53 18.721-28.001 36.802-41.418 55.634-12.328 17.2-11.349 25.868 3.964 40.805z"></path></svg><svg viewBox="0 0 512 512" width="512" height="512" id="soc-whatsapp" y="11069"><path d="M256.064 0h-.128C114.784 0 0 114.816 0 256c0 56 18.048 107.904 48.736 150.048l-31.904 95.104 98.4-31.456C155.712 496.512 204 512 256.064 512 397.216 512 512 397.152 512 256S397.216 0 256.064 0zm148.96 361.504c-6.176 17.44-30.688 31.904-50.24 36.128-13.376 2.848-30.848 5.12-89.664-19.264-75.232-31.168-123.68-107.616-127.456-112.576-3.616-4.96-30.4-40.48-30.4-77.216s18.656-54.624 26.176-62.304c6.176-6.304 16.384-9.184 26.176-9.184 3.168 0 6.016.16 8.576.288 7.52.32 11.296.768 16.256 12.64 6.176 14.88 21.216 51.616 23.008 55.392 1.824 3.776 3.648 8.896 1.088 13.856-2.4 5.12-4.512 7.392-8.288 11.744-3.776 4.352-7.36 7.68-11.136 12.352-3.456 4.064-7.36 8.416-3.008 15.936 4.352 7.36 19.392 31.904 41.536 51.616 28.576 25.44 51.744 33.568 60.032 37.024 6.176 2.56 13.536 1.952 18.048-2.848 5.728-6.176 12.8-16.416 20-26.496 5.12-7.232 11.584-8.128 18.368-5.568 6.912 2.4 43.488 20.48 51.008 24.224 7.52 3.776 12.48 5.568 14.304 8.736 1.792 3.168 1.792 18.048-4.384 35.52z"></path></svg><svg viewBox="0 0 512 512" width="512" height="512" id="soc-youtube" y="11581"><path d="M490.24 113.92c-13.888-24.704-28.96-29.248-59.648-30.976C399.936 80.864 322.848 80 256.064 80c-66.912 0-144.032.864-174.656 2.912-30.624 1.76-45.728 6.272-59.744 31.008C7.36 138.592 0 181.088 0 255.904v.256c0 74.496 7.36 117.312 21.664 141.728 14.016 24.704 29.088 29.184 59.712 31.264C112.032 430.944 189.152 432 256.064 432c66.784 0 143.872-1.056 174.56-2.816 30.688-2.08 45.76-6.56 59.648-31.264C504.704 373.504 512 330.688 512 256.192v-.256c0-74.848-7.296-117.344-21.76-142.016zM192 352V160l160 96-160 96z"></path></svg><svg viewBox="0 0 490.727 490.727" width="490.727" height="490.727" id="star" y="12093"><path d="M453.443 160.214l-119.7-8.6c-2.5-.2-4.7-1.7-5.6-4.1l-45.6-111c-6.3-15.3-20.5-24.8-37.1-24.8s-30.7 9.5-37.1 24.9l-45.7 111.1c-1 2.3-3.1 3.9-5.6 4.1l-119.5 8.6c-16.2.9-30 11.5-35.3 27.1-5.4 15.8-.9 32.4 11.9 43.3l92.5 76.4c1.9 1.6 2.8 4.2 2.2 6.6l-28.2 115.4c-3.3 12-1 24.4 6.3 34.1 7.5 9.8 19.2 15.7 31.5 15.7 7.6 0 15-2.3 21.1-6.4l101.1-62.9c2.1-1.3 4.8-1.3 6.9 0l102.1 62.7c6.4 4.3 13.8 6.6 21.3 6.6 11.5 0 22.9-5.5 30.3-14.8 7.7-9.6 10.5-22.1 7.7-34.6l-28.3-115.7c-.6-2.5.3-5.1 2.2-6.7l93.9-76.6c12.6-10.8 17.1-27.4 11.8-43.2-5.2-15.6-19.1-26.3-35.1-27.2zm7.7 51.5l-93.7 76.5c-9.2 7.5-13.4 19.9-10.5 31.5l28.3 115.5c1.5 6.8-1.2 11.5-3 13.7-2.8 3.5-7 5.7-11.2 5.7-2.6 0-5.2-.8-8-2.7l-102.5-63c-4.9-3-10.5-4.6-16.3-4.6s-11.5 1.6-16.4 4.7l-101.5 63.1c-6.5 4.3-15.2 2.4-19.8-3.6-1.9-2.5-3.9-6.8-2.1-13.1l28.3-115.8c2.8-11.5-1.3-23.8-10.4-31.3l-92.3-76.3c-7.3-6.3-5.3-14.4-4.5-16.7s4.1-10 13.7-10.5l119.7-8.6c11.8-.9 22-8.2 26.5-19.2l45.7-111.1c3.7-9 12-9.7 14.4-9.7 2.4 0 10.7.7 14.4 9.7l45.7 111.1c4.5 11 14.7 18.3 26.5 19.2l119.9 8.7c9.4.5 12.7 8.2 13.5 10.5.6 2.1 2.6 10.2-4.4 16.3z"></path></svg><svg height="512" viewBox="0 0 512 512.00051" width="512" id="tick--color" y="12584"><path d="M504.34 187.367v269.344c0 13.816-5.88 26.254-15.266 34.965-8.515 7.894-19.91 12.719-32.43 12.719H55.294c-12.52 0-23.914-4.825-32.418-12.711-9.39-8.72-15.27-21.157-15.27-34.973V187.367zm0 0" fill="#fec970"></path><path d="M258 504.395H55.293c-26.336 0-47.688-21.348-47.688-47.684V185.766l52.97 45.71 3.304 2.747v135.933c0 46.246 18.66 90.078 61.207 108.223C164.34 495.12 234.18 504.395 258 504.395zm0 0" fill="#fba028"></path><path d="M504.34 187.367L313.406 28.387C280.13.68 231.812.68 198.536 28.387L7.601 187.367h.003l56.274 46.856 134.656 112.12c33.281 27.716 81.598 27.716 114.867 0l134.668-112.12z" fill="#fba028"></path><path d="M448.07 88.152v146.07L313.402 346.345c-33.27 27.715-81.586 27.715-114.867 0L63.88 234.223V88.153c0-30.454 24.695-55.15 55.16-55.15h273.883c30.46 0 55.148 24.696 55.148 55.15zm0 0" fill="#bfdadd"></path><path d="M448.07 88.152V200.77L313.402 312.89c-33.27 27.715-81.586 27.715-114.867 0L63.88 200.77V88.152c0-30.453 24.695-55.148 55.16-55.148h273.883c30.46 0 55.148 24.695 55.148 55.148zm0 0" fill="#e4f5f7"></path><path d="M494.203 114.055c0 58.507-47.43 105.937-105.937 105.937s-105.938-47.43-105.938-105.937c0-58.512 47.43-105.942 105.938-105.942s105.937 47.43 105.937 105.942zm0 0" fill="#26bf64"></path><path d="M494.2 114.05c0 51.485-36.716 94.388-85.395 103.95-48.684-9.55-85.41-52.465-85.41-103.95 0-51.48 36.726-94.39 85.41-103.94 48.68 9.558 85.394 52.46 85.394 103.94zm0 0" fill="#49d685"></path><path d="M453.18 471.688a7.57 7.57 0 0 0 4.86 1.761 7.583 7.583 0 0 0 5.847-2.742 7.599 7.599 0 0 0-.98-10.707L341.675 359.062a7.604 7.604 0 1 0-9.73 11.688zm-399.274 1.757a7.575 7.575 0 0 0 4.864-1.757l121.234-100.942a7.601 7.601 0 0 0 .976-10.707 7.602 7.602 0 0 0-10.707-.977L49.043 460a7.599 7.599 0 0 0-.98 10.707 7.572 7.572 0 0 0 5.843 2.738zm90.559-247.613h160.172a7.603 7.603 0 0 0 7.601-7.605 7.6 7.6 0 0 0-7.601-7.602H144.465a7.604 7.604 0 1 0 0 15.207zm223.019 28.949h-223.02a7.603 7.603 0 1 0 0 15.207h223.02c4.204 0 7.606-3.402 7.606-7.601s-3.406-7.606-7.606-7.606zM144.465 137.516h111.512a7.604 7.604 0 0 0 0-15.207H144.465a7.606 7.606 0 0 0-7.606 7.601c0 4.2 3.407 7.606 7.606 7.606zm67.152 36.554c0 4.2 3.406 7.602 7.606 7.602h55a7.6 7.6 0 0 0 7.601-7.602 7.603 7.603 0 0 0-7.601-7.605h-55a7.607 7.607 0 0 0-7.606 7.605zm-67.152 7.602h49.41a7.604 7.604 0 1 0 0-15.207h-49.41a7.604 7.604 0 0 0 0 15.207zM426.39 62.188l-40.75 95.085-36.148-43.046a7.603 7.603 0 1 0-11.64 9.78l44.09 52.505a7.603 7.603 0 0 0 6.933 2.633 7.6 7.6 0 0 0 5.875-4.528l45.617-106.441a7.603 7.603 0 1 0-13.976-5.989zm0 0"></path><path d="M505.402 178.355l-15.816-13.167c7.828-15.477 12.219-32.891 12.219-51.137 0-20.633-5.594-40.84-16.168-58.43a7.606 7.606 0 0 0-13.035 7.836c9.156 15.223 13.996 32.719 13.996 50.59 0 46.89-33.332 87.473-79.262 96.488a98.905 98.905 0 0 1-19.07 1.856c-54.223 0-98.336-44.118-98.336-98.344 0-54.219 44.113-98.332 98.336-98.332 6.406 0 12.82.625 19.07 1.855 17.8 3.496 34.285 11.887 47.676 24.274a7.61 7.61 0 0 0 10.746-.422c2.851-3.082 2.66-7.895-.422-10.746-15.461-14.297-34.504-23.988-55.063-28.028a114.37 114.37 0 0 0-22.007-2.14c-25.778 0-49.567 8.64-68.649 23.168l-1.347-1.125c-36.094-30.067-88.497-30.067-124.602 0l-3.418 2.851h-71.21c-34.606 0-62.763 28.149-62.763 62.75v49.305L4.836 180.285c-.152.063-.305.125-.457.2a7.596 7.596 0 0 0-4.375 6.882V396.48c0 4.2 3.402 7.602 7.601 7.602s7.606-3.402 7.606-7.602V203.594l178.46 148.593c18.052 15.032 40.177 22.551 62.302 22.547 22.125 0 44.25-7.515 62.293-22.546l178.468-148.594v253.113c0 22.106-17.98 40.086-40.086 40.086H55.293c-22.106 0-40.086-17.98-40.086-40.086v-29.812a7.604 7.604 0 0 0-15.207 0v29.812C0 487.195 24.805 512 55.293 512h401.355c30.489 0 55.293-24.805 55.293-55.293V187.563c.094-3.684-1.046-4.633-6.539-9.208zM295.582 25.402h-79.223c24.621-13.574 54.61-13.574 79.223 0zM56.277 157.242V218l-36.484-30.379zm252.258 183.262c-30.453 25.367-74.668 25.367-105.133-.004L71.484 230.66V88.152c0-26.218 21.332-47.547 47.555-47.547H301.75c-16.844 19.813-27.023 45.461-27.023 73.446 0 62.61 50.933 113.547 113.539 113.547 7.39 0 14.796-.72 22.004-2.141a112.384 112.384 0 0 0 30.195-10.578v15.777zm147.137-122.508v-12.601a114.146 114.146 0 0 0 26.062-26.957c3.325 2.765 7.348 6.117 10.727 8.93zm0 0"></path></svg><svg width="20" height="22" viewBox="0 0 20 22" id="trash" y="13096"><path data-name="Path 10806" d="M19 4h-4V3a2.946 2.946 0 0 0-3-3H8a2.946 2.946 0 0 0-3 3v1H1a.945.945 0 0 0-1 1 .945.945 0 0 0 1 1h1v13a2.946 2.946 0 0 0 3 3h10a2.946 2.946 0 0 0 3-3V6h1a.945.945 0 0 0 1-1 .945.945 0 0 0-1-1zM7 3a.945.945 0 0 1 1-1h4a.945.945 0 0 1 1 1v1H7zm9 16a.945.945 0 0 1-1 1H5a.945.945 0 0 1-1-1V6h12z"></path><path data-name="Path 10807" d="M8 9a.945.945 0 0 0-1 1v6a.945.945 0 0 0 1 1 .945.945 0 0 0 1-1v-6a.945.945 0 0 0-1-1z"></path><path data-name="Path 10808" d="M12 9a.945.945 0 0 0-1 1v6a1 1 0 0 0 2 0v-6a.945.945 0 0 0-1-1z"></path></svg><svg width="96" height="95.428" viewBox="0 0 96 95.428" id="unlike" y="13118"><path data-name="Path 84" d="M2.6 44.201a10.194 10.194 0 0 0 7.6 17H30a65.927 65.927 0 0 0-2.8 17.227v3.4a13.617 13.617 0 0 0 13.6 13.6h3.4a3.4 3.4 0 0 0 3.3-2.575l1.852-7.41c2.6-10.377 10.835-21.826 19.362-23.907a10.214 10.214 0 0 0 9.488 6.465H92.6a3.4 3.4 0 0 0 3.4-3.4v-61.2a3.4 3.4 0 0 0-3.4-3.4H78.2a10.211 10.211 0 0 0-9.207 5.814L57.311 1.921A37.318 37.318 0 0 0 45.483.001H17a10.2 10.2 0 0 0-9.484 13.958 10.194 10.194 0 0 0-4.912 16.642 10.18 10.18 0 0 0 0 13.6zm72.2-34a3.4 3.4 0 0 1 3.4-3.4h11v54.4h-11a3.4 3.4 0 0 1-3.4-3.4zM17 40.801h-6.8a3.4 3.4 0 1 1 0-6.8H17a3.4 3.4 0 0 0 0-6.8h-6.8a3.4 3.4 0 1 1 0-6.8H17a3.4 3.4 0 1 0 0-6.8 3.4 3.4 0 0 1 0-6.8h28.483a30.534 30.534 0 0 1 9.679 1.571L68 12.651v42.072c-5.333 1.013-10.554 4.391-15.266 9.919a49.611 49.611 0 0 0-9.98 19.151l-1.208 4.835H40.8a6.808 6.808 0 0 1-6.8-6.8v-3.4c0-4.565 1.428-13.321 3.255-17.229H44.2a3.4 3.4 0 0 0 0-6.8h-34a3.4 3.4 0 1 1 0-6.8H17a3.4 3.4 0 0 0 0-6.8z"></path></svg><svg viewBox="0 0 512.001 512.001" width="512.001" height="512.001" id="upload" y="13214"><path d="M405.967 195.112c-1.069-78.061-64.902-141.239-143.213-141.239-34.835 0-68.396 12.672-94.498 35.682-23.296 20.535-39.232 47.977-45.543 78.106-.461-.005-.918-.009-1.374-.009C54.434 167.652 0 222.085 0 288.991S54.434 410.33 121.34 410.33h84.743c6.029 0 10.919-4.888 10.919-10.919 0-6.031-4.89-10.919-10.919-10.919H121.34c-54.866 0-99.502-44.636-99.502-99.501s44.636-99.501 99.502-99.501c2.923 0 6.013.157 9.448.48 5.822.545 11.049-3.596 11.842-9.396 3.932-28.82 18.161-55.327 40.067-74.638 22.111-19.492 50.542-30.226 80.056-30.226 66.935 0 121.389 54.455 121.389 121.389 0 2.41-.179 4.894-.368 7.524l-.081 1.118a10.915 10.915 0 0 0 3.287 8.604 10.914 10.914 0 0 0 8.697 3.03 87.102 87.102 0 0 1 8.708-.44c47.297 0 85.778 38.48 85.778 85.778 0 47.297-38.48 85.777-85.778 85.777h-89.111c-6.029 0-10.919 4.888-10.919 10.919 0 6.031 4.89 10.919 10.919 10.919h89.111c59.339 0 107.616-48.275 107.616-107.615-.001-58.807-47.421-106.752-106.034-107.601z"></path><path d="M262.755 105.192c-45.658 0-84.742 34.121-90.914 79.367-.815 5.975 3.369 11.48 9.343 12.295.501.068.998.102 1.489.102 5.375 0 10.059-3.97 10.804-9.444 4.703-34.48 34.486-60.482 69.277-60.482 6.031 0 10.919-4.888 10.919-10.919.001-6.03-4.888-10.919-10.918-10.919zm49.655 214.86l-39.718-35.48c-6.847-6.12-17.177-6.119-24.027-.001l-39.718 35.482c-4.498 4.017-4.886 10.92-.869 15.418 4.017 4.496 10.919 4.887 15.418.869l26.264-23.462v134.331c0 6.031 4.888 10.919 10.919 10.919 6.03 0 10.919-4.888 10.919-10.919V312.876l26.265 23.463a10.873 10.873 0 0 0 7.27 2.776 10.89 10.89 0 0 0 8.148-3.645c4.015-4.498 3.626-11.4-.871-15.418z"></path></svg><svg width="21.614" height="23.409" viewBox="0 0 21.614 23.409" id="user" y="13727"><path data-name="Path 10787" d="M10.38 13.553a7.42 7.42 0 0 0 .818 0 9.185 9.185 0 0 1 8.817 9.076v.044a.8.8 0 0 0 .736.736.838.838 0 0 0 .583-.19.8.8 0 0 0 .277-.546 10.7 10.7 0 0 0-6.712-9.906l-.5-.2.433-.319a6.784 6.784 0 0 0 0-10.919 6.785 6.785 0 1 0-8.057 10.92l.432.318-.5.2a10.691 10.691 0 0 0-6.708 9.926.8.8 0 0 0 .735.712.847.847 0 0 0 .581-.19.791.791 0 0 0 .278-.546 9.171 9.171 0 0 1 8.787-9.116zM5.625 7.142a5.19 5.19 0 1 1 5.81 4.8v.042l-.391-.014c-.08 0-.162-.007-.241-.007l-.33.006a5.213 5.213 0 0 1-4.848-4.827z"></path></svg><svg viewBox="0 0 50 50" width="50" height="50" id="vk--color" y="13751"><path d="M45 1H5C2.8 1 1 2.8 1 5v40c0 2.2 1.8 4 4 4h40c2.2 0 4-1.8 4-4V5c0-2.2-1.8-4-4-4z" fill="#54769B"></path><path d="M26 34c1 0 1-1.4 1-2 0-1 1-2 2-2s2.7 1.7 4 3c1 1 1 1 2 1h3s2-.1 2-2c0-.6-.7-1.7-3-4-2-2-3-1 0-5 1.8-2.5 3.2-4.7 3-5.3-.2-.6-5.3-1.6-6-.7-2 3-2.4 3.7-3 5-1 2-1.1 3-2 3-.9 0-1-1.9-1-3 0-3.3.5-5.6-1-6h-3c-1.6 0-3 1-3 1s-1.2 1-1 1c.3 0 2-.4 2 1v2s0 4-1 4-3-4-5-7c-.8-1.2-1-1-2-1h-3c-1 0-1.1.6-1 1 2 5 3.4 8.1 7.2 12.1 3.5 3.6 5.8 3.8 7.8 3.9h1z" fill="#FFF"></path></svg></svg>