<svg xmlns="http://www.w3.org/2000/svg" width="110" height="128.989" viewBox="0 0 110 128.989">
  <g id="Group_3552" data-name="Group 3552" transform="translate(-1686 -335.999)">
    <path id="_Path_" data-name="&lt;Path&gt;" d="M21.133,115.6c3.356,9.437,57.627,27.516,87.239-23.3,30.413-52.19-12.093-96.278-24.76-89.632C70.446,9.558,88.55,40.8,70.97,71.865,54.489,101,17.253,104.692,21.133,115.6Z" transform="translate(1665.148 334)" fill="#d4d4d4"/>
    <path id="_Path_2" data-name="&lt;Path&gt;" d="M96.3,195.224A41.538,41.538,0,0,1,81.641,175.11a32.383,32.383,0,0,1-1.476-6.55,91.96,91.96,0,0,1-16.3,11.811c11.287,7.89,11.085,21.883-1.879,27.9a61.573,61.573,0,0,0,41.357-7.054A38.535,38.535,0,0,1,96.3,195.224Z" transform="translate(1644.743 251.363)" fill="#b4b4b4"/>
    <path id="_Path_3" data-name="&lt;Path&gt;" d="M153.021,10.74c4.761,6.782,3.794,17.932-6.55,20.941a12.191,12.191,0,0,1-11.619-2.146c.479,8.062,1.008,17.635-.912,27.712,15.579,2.111,29.224,12.209,36.621,26.614C183.349,49.986,167.195,21.341,153.021,10.74Z" transform="translate(1609.041 329.663)" fill="#b4b4b4"/>
    <path id="_Path_4" data-name="&lt;Path&gt;" d="M71.5,180.4s-1.743-3.618-1.078-5.467l14.048-2.015L102.94,209.8l-7.885,5.991a37.164,37.164,0,0,1-7.462-5.22s1.849-.7,3.184-1.27c.962-5.981-2.237-21.8-16.834-30.081C73.258,179.44,72.683,179.843,71.5,180.4Z" transform="translate(1640.63 249.2)" fill="#e5e5e5"/>
    <path id="_Path_5" data-name="&lt;Path&gt;" d="M70.57,118.521S92.916,122.9,95.2,159.374c0,0,26.024-3.27,45.927-35.114,17.907-28.645,5.235-58.4,5.235-58.4S125.254,51.674,99,64.749C99,64.749,100.147,97.167,70.57,118.521Z" transform="translate(1640.481 305.614)" fill="#d4d4d4"/>
    <path id="_Path_6" data-name="&lt;Path&gt;" d="M170.2,115.291c10.742-25.561.6-49.429.6-49.429s-21.112-14.189-47.363-1.114A62.917,62.917,0,0,1,119.8,85.155C141.486,82.253,161.681,95.207,170.2,115.291Z" transform="translate(1616.056 305.614)" fill="#b4b4b4"/>
    <path id="_Path_7" data-name="&lt;Path&gt;" d="M105.872,145.733a25.475,25.475,0,0,1-2.822-1.643c-6.706,8.2-16.411,14.567-14.5,16.234s18.3.836,28.816-11.085a24.216,24.216,0,0,1-11.493-3.507Z" transform="translate(1631.682 263.503)" fill="#f1f1f1"/>
    <path id="_Path_8" data-name="&lt;Path&gt;" d="M161.462,176.74a45.7,45.7,0,0,1-3.5,5.719c-14.688,20.406-32.751,23.238-41.785,23.309a75.544,75.544,0,0,1,1.653,11.916s26.024-3.27,45.927-35.114c1.008-1.622,1.925-3.255,2.751-4.882a44.58,44.58,0,0,1-5.049-.947Z" transform="translate(1617.852 247.305)" fill="#b4b4b4"/>
    <path id="_Path_9" data-name="&lt;Path&gt;" d="M88.916,153.566l-3.477,3.225s-.5-4.852.317-7.442c0,0,26.579-3.346,39.85,9.906s7.306,36.666,7.306,36.666a70.071,70.071,0,0,1-9.5-.907l4.031-3.134S125.9,164.551,88.916,153.566Z" transform="translate(1633.18 261.081)" fill="#e5e5e5"/>
    <path id="_Path_10" data-name="&lt;Path&gt;" d="M86.22,121.942s40.153,5.7,47.156,46.572c0,0,32.353-22.674,29.753-53.792,0,0-26.357-31.426-62.534-17.373C100.6,97.348,94.6,112.429,86.22,121.942Z" transform="translate(1632.717 288.488)" fill="#d4d4d4"/>
    <path id="_Path_11" data-name="&lt;Path&gt;" d="M178.719,100.58a37.336,37.336,0,0,1,8.742,14.2c5.371,15.776-3.96,33.5-18.462,40.43a58.216,58.216,0,0,1,5.452,16.728S206.8,149.263,204.2,118.145A67.608,67.608,0,0,0,178.719,100.58Z" transform="translate(1591.646 285.09)" fill="#b4b4b4"/>
    <path id="_Path_12" data-name="&lt;Path&gt;" d="M114.424,106.37c-1.27,0-1.547,2.111-5.341,9.725s-5.311,9.12-4.565,10.113c1.512,2.015,10.833.388,13.781-5.779C121.166,114.427,116.914,106.345,114.424,106.37Z" transform="translate(1623.729 282.218)" fill="#f1f1f1"/>
    <g id="_Group_" data-name="&lt;Group&gt;" transform="translate(1729.543 386.335)">
      <path id="_Path_13" data-name="&lt;Path&gt;" d="M136.071,135.633c-2.172.63-5.855-.65-11.654-2.665-3.2-1.108-7.19-2.494-11.866-3.895a1.519,1.519,0,1,1,.867-2.912c4.741,1.421,8.767,2.822,12,3.94,4.394,1.527,8.928,3.089,9.8,2.585a.962.962,0,0,0,0-.726c-.978-3.023-9.76-7.5-16.174-10.747-8.828-4.479-12.682-6.55-11.589-9.276,1.008-2.519,5.825-2.519,17.449-1.874a98.844,98.844,0,0,0,9.992.257c-1.567-1.733-6.394-5.134-14.763-5.4a1.512,1.512,0,1,1,.1-3.023c10.1.317,15.857,4.792,17.489,7.109a3.008,3.008,0,0,1,.66,2.645c-.64,1.96-3.154,2.015-13.64,1.456-4.434-.242-11.528-.63-13.962-.045,1.552,1.34,6.167,3.678,9.664,5.452,9.573,4.852,16.426,8.566,17.7,12.531a3.915,3.915,0,0,1-.232,3.074A2.857,2.857,0,0,1,136.071,135.633Z" transform="translate(-107.27 -101.898)" fill="#44322d"/>
    </g>
    <g id="_Group_2" data-name="&lt;Group&gt;" transform="translate(1741.857 374.325)">
      <path id="_Path_14" data-name="&lt;Path&gt;" d="M153.522,82.223a1.476,1.476,0,0,1-.862,0c-5.452-1.643-12.2-1.461-19.011.5a1.516,1.516,0,1,1-.846-2.912c7.361-2.146,14.728-2.328,20.734-.5a1.512,1.512,0,0,1,0,2.912Z" transform="translate(-131.71 -78.063)" fill="#44322d"/>
    </g>
    <g id="_Group_3" data-name="&lt;Group&gt;" transform="translate(1724.126 419.131)">
      <path id="_Path_15" data-name="&lt;Path&gt;" d="M110.32,179.944a1.512,1.512,0,0,1-1.708-.655,25.448,25.448,0,0,0-11.12-9.367,1.517,1.517,0,1,1,1.088-2.832,28.206,28.206,0,0,1,12.6,10.581,1.512,1.512,0,0,1-.5,2.086A1.344,1.344,0,0,1,110.32,179.944Z" transform="translate(-96.519 -166.989)" fill="#44322d"/>
    </g>
  </g>
</svg>
