<svg xmlns="http://www.w3.org/2000/svg" width="101.375" height="50.5" viewBox="0 0 101.375 50.5">
  <g id="Group_3522" data-name="Group 3522" transform="translate(-74.999 -271.501)">
    <path id="Union_178" data-name="Union 178" d="M30.285,44.329c-.064-3.357,5.6-11.792,11.977-14.907l1.274-.617a1.778,1.778,0,0,0,.382-.222l.74-1.634a3.468,3.468,0,0,1-2.49,1.578A1.959,1.959,0,0,1,41,28.206a2.884,2.884,0,0,1-1.688-1.47,5.343,5.343,0,0,1-.568-1.867,15.124,15.124,0,0,1-1.117,2.411,2.957,2.957,0,0,1-1.97,1.624,1.35,1.35,0,0,1-1.036-.232,2.866,2.866,0,0,1-.757-.859,5.441,5.441,0,0,1-.518-1.152,6.8,6.8,0,0,1-.283-1.121c-.027-.222-.055-.478-.074-.763a5.721,5.721,0,0,1,.038-.914l-.01-.084-.148.455a17.553,17.553,0,0,1-1.8,4.186,2.993,2.993,0,0,1-1.959,1.448,1.934,1.934,0,0,1-1.475-.3A3.265,3.265,0,0,1,26.119,28.2a7.9,7.9,0,0,1-.494,1.536,1.906,1.906,0,0,1-.831,1.01l-.078.035.3,0a3.652,3.652,0,0,1-2.9.112,4.491,4.491,0,0,1-2.267-2.379,14.76,14.76,0,0,1-1.218-5.893,49.621,49.621,0,0,1,.47-8.348q.365-2.56.765-4.445a29.654,29.654,0,0,1,.9-3.345A13.713,13.713,0,0,1,21.9,3.92a14.165,14.165,0,0,1,1.492-2.089,3.844,3.844,0,0,1,.3-.549c.107-.169.213-.339.32-.518a8.112,8.112,0,0,0-4.327,2.279A13.486,13.486,0,0,0,16.741,7.65a27.1,27.1,0,0,0-1.632,6.545,53.01,53.01,0,0,0-.41,8.054q.065,2.637.026,5.124a23.273,23.273,0,0,1-.51,4.66,11.867,11.867,0,0,1-1.567,3.862,7.623,7.623,0,0,1-3.159,2.722,6.283,6.283,0,0,1-2.558.7,6.124,6.124,0,0,1-2.367-.358,5.924,5.924,0,0,1-1.986-1.236A6.532,6.532,0,0,1,1.142,35.78,11.071,11.071,0,0,1,.106,31.319a12.889,12.889,0,0,1,.585-4.046A10.111,10.111,0,0,1,2.33,24.086a6.418,6.418,0,0,1,2.16-1.9,3.67,3.67,0,0,1,2.767-.314,3.33,3.33,0,0,1,2.033,1.853,6.051,6.051,0,0,1,.6,2.244,7.451,7.451,0,0,1-.148,2.312,5.98,5.98,0,0,1-.837,2.007,3.665,3.665,0,0,1-1.436,1.324,1.752,1.752,0,0,1-1.027.2.772.772,0,0,1-.636-.377.222.222,0,0,1,.052-.309.2.2,0,0,1,.066-.033c.05-.029.123-.012.209.039l.23.078c.213.18.532.168.937-.035a3.3,3.3,0,0,0,1.2-1.233,6.046,6.046,0,0,0,.7-1.87,7.652,7.652,0,0,0,.112-2.127,5.433,5.433,0,0,0-.538-2.015A2.731,2.731,0,0,0,7.01,22.37a3.383,3.383,0,0,0-2.374.316,5.164,5.164,0,0,0-1.853,1.746,10.986,10.986,0,0,0-1.436,2.925,11.645,11.645,0,0,0-.592,3.428,6.882,6.882,0,0,0,.685,3.278,3.585,3.585,0,0,0,1.117,1.353,3.99,3.99,0,0,0,1.549.691,4.839,4.839,0,0,0,1.8.016,5.581,5.581,0,0,0,1.849-.652,6.3,6.3,0,0,0,2.941-2.425A13.628,13.628,0,0,0,12.4,29.163a35.731,35.731,0,0,0,.942-4.894c.215-1.775.428-3.587.624-5.444s.432-3.7.712-5.541a27.34,27.34,0,0,1,1.3-5.138A15.887,15.887,0,0,1,18.314,3.88,9.793,9.793,0,0,1,22.1.943a12.352,12.352,0,0,1,1.2-.5A11.8,11.8,0,0,1,24.515.108a4.682,4.682,0,0,1,1-.108c.271,0,.439.062.49.162a.194.194,0,0,1-.062.268A.149.149,0,0,1,25.9.449l-.365.039a1.541,1.541,0,0,0-.726.17c-.358.172-.691.824-.982,1.959a32.106,32.106,0,0,0-.774,4.422q-.322,2.737-.478,6.324-.152,3.6-.084,7.613c.039,2.458.129,4.315.283,5.577a8.982,8.982,0,0,0,.689,2.846,1.884,1.884,0,0,0,.579.74.554.554,0,0,0,.6.107c.5-.252.859-1.021,1.049-2.3.023-.148.042-.3.064-.467a7.861,7.861,0,0,1-.49-1.814,11.124,11.124,0,0,1,.174-4.09,15.3,15.3,0,0,1,1.442-3.98,12.48,12.48,0,0,1,2.286-3.115,5.055,5.055,0,0,1,2.749-1.5.559.559,0,0,1,.252,0,3.811,3.811,0,0,1,.624-.18q1.858-.285,2.209,2l.064.42.852-2.9,3.671-.561-3.129,10.8q-.328,1-.6,2.053c-.178.7-.319,1.308-.41,1.814a6.123,6.123,0,0,0-.143,1.318c.061.393.257.568.592.511q.807-.118,1.957-2.458c.1-.248.2-.507.31-.78s.23-.629.382-1.056c.036-.1.074-.217.116-.337a10.415,10.415,0,0,1,.808-3.846A15.714,15.714,0,0,1,41.661,16a11.946,11.946,0,0,1,3.047-2.781,6.572,6.572,0,0,1,3.462-1.105c1.224-.024,1.841.762,1.87,2.357l.006.343,1.233-2.757,3.632-.056L48.65,25.56a14.212,14.212,0,0,0,4.081-4.728c.012-.083.027-.139.062-.161l.106-.2c.013-.02.03-.044.048-.074a2.945,2.945,0,0,1,.138-.268.118.118,0,0,1,.045-.042c.059-.1.127-.222.2-.362.222-.387.449-.769.694-1.144a28.941,28.941,0,0,1,3.065-4.407c.786-.852,1.459-1.246,2.027-1.172a1.379,1.379,0,0,1,1.073.791,4.383,4.383,0,0,1,.482,1.689,9.933,9.933,0,0,1-.007,2.044A9.126,9.126,0,0,1,60.3,19.37l-.359.814,3.564.388c.258-.461.518-.91.785-1.353s.546-.888.833-1.336l2.291-3.772,3.863.459-5.959,9.57c-.286.449-.565.91-.852,1.38s-.533.914-.765,1.348-.4.82-.561,1.161a2.821,2.821,0,0,0-.269.8c-.044.4.1.612.432.656.6.074,1.431-.549,2.5-1.849.174-.213.342-.437.511-.674s.391-.538.644-.913c.123-.171.255-.358.4-.565a11.255,11.255,0,0,1,1.871-3.459,15.193,15.193,0,0,1,3.007-2.97,12.389,12.389,0,0,1,3.407-1.828,5.014,5.014,0,0,1,3.127-.174.532.532,0,0,1,.236.112,4.7,4.7,0,0,1,.633.1c1.2.365,1.584,1.279,1.135,2.749l-.119.41,2.01-2.244,3.559,1.066-7.484,8.4c-.482.513-.949,1.044-1.413,1.6s-.854,1.049-1.152,1.459a5.334,5.334,0,0,0-.7,1.129c-.124.381-.01.623.313.723q.776.227,2.829-1.38c.2-.18.405-.37.612-.571s.478-.473.8-.788a11.615,11.615,0,0,1,1.058-.933,5.03,5.03,0,0,1,1.056-.766,4.179,4.179,0,0,1,1.538-.5,2.653,2.653,0,0,1,1.543.308A1.789,1.789,0,0,1,86.3,29.266a2.492,2.492,0,0,1-.271,1.549,2.226,2.226,0,0,1-.733.863,2.54,2.54,0,0,1-.905.394,2.469,2.469,0,0,1-.908.033,2.114,2.114,0,0,1-.707-.209,2.221,2.221,0,0,1-.937-.892,1.947,1.947,0,0,1-.23-1.206,2.041,2.041,0,0,0-1.359,1.212,3.935,3.935,0,0,0-.426,1.971,2.474,2.474,0,0,0,1,1.9,2.738,2.738,0,0,0,1.923.064,14.47,14.47,0,0,0,2.293-.895q1.195-.58,2.4-1.178a9.165,9.165,0,0,1,2.277-.808,2.556,2.556,0,0,1-1.169-.488,2.73,2.73,0,0,1-.825-.988,3.107,3.107,0,0,1-.325-1.324,3.449,3.449,0,0,1,.348-1.547A5.982,5.982,0,0,1,89.4,25.5a6.017,6.017,0,0,1,6.674-.7,2.36,2.36,0,0,1,.821.694,1.466,1.466,0,0,1,.3.949l-.023.23.674-.655,3.636,1.9-8.432,7.1c-.852.647-1.679,1.309-2.486,1.977a6.849,6.849,0,0,0-1.479,1.537c-.18.355-.126.614.18.769a1.311,1.311,0,0,0,.762.107,3.759,3.759,0,0,0,1.161-.376,17.325,17.325,0,0,0,1.7-.943q1-.615,2.387-1.615l1.941-1.4c.162-.136.3-.18.4-.123.129.061.148.172.074.323l-.2.186-1.084.78a19.907,19.907,0,0,1-4.944,3.222,3.474,3.474,0,0,1-2.784.207,1.578,1.578,0,0,1-.949-1.582,5.611,5.611,0,0,1,.686-2.223,11.035,11.035,0,0,1,1.459-2.149,9.617,9.617,0,0,1,1.448-1.386,5.454,5.454,0,0,0-2.583.65c-.925.461-1.879.927-2.845,1.4a18.329,18.329,0,0,1-2.851,1.109,3.471,3.471,0,0,1-2.548-.152,3.554,3.554,0,0,1-1.257-1.963,3.73,3.73,0,0,1,.416-2.487A14.993,14.993,0,0,1,77.78,32.42a2.982,2.982,0,0,1-2.482.611,1.335,1.335,0,0,1-.83-.652,2.9,2.9,0,0,1-.322-1.092,5.714,5.714,0,0,1,.029-1.262A6.741,6.741,0,0,1,74.4,28.89a7.523,7.523,0,0,1,.263-.723,6.158,6.158,0,0,1,.42-.808l.029-.084-.331.348a17.575,17.575,0,0,1-3.417,3,2.969,2.969,0,0,1-2.393.465,1.922,1.922,0,0,1-1.206-.9,3.26,3.26,0,0,1-.785-1.909A5.857,5.857,0,0,1,67,27.037a11.465,11.465,0,0,1-1.586,1.82A3.467,3.467,0,0,1,62.9,30.04a1.464,1.464,0,0,1-.916-.43,2.5,2.5,0,0,1-.584-.927,4.444,4.444,0,0,1-.263-1.234,7.253,7.253,0,0,1,.033-1.353,8.35,8.35,0,0,1,.652-2.155,25.344,25.344,0,0,1,1.405-2.846l-3.53-.375-.41.987-4.336,7.215-3.772-.449,3.311-5.448c.544-.916,1.084-1.849,1.627-2.794s1.026-1.842,1.448-2.663.792-1.538,1.084-2.151a5.4,5.4,0,0,0,.467-1.257c.039-.343-.051-.523-.283-.552-.444-.05-1.014.348-1.69,1.2a47,47,0,0,0-2.658,3.92l-.641,1.084a4.846,4.846,0,0,0-.331.561l-.213.4c-.015.02-.03.036-.045.055l-.074.132A13.347,13.347,0,0,1,51.372,23.7a14.326,14.326,0,0,1-2.464,2.329l-.629.439-.084.084-1.808,3.871c-.364.78-.644,1.383-.848,1.827s-2.976,5.827-3.124,6.114-.274.527-.37.712-.2.416-.352.666A21.63,21.63,0,0,1,38.622,43.7c-1.385,1.39-4.282,3.636-6.266,3.636C31.178,47.338,30.321,46.552,30.285,44.329Zm2.064-1.291a5.279,5.279,0,0,0-.814,2.468c.016.74.348,1.1,1,1.091.976-.013,2.11-.984,3.456-2.875A37.608,37.608,0,0,0,38.4,39.817c.825-1.54,4.147-8.093,4.815-9.643l.365-.859c-4.482,2.62-8.789,9.34-11.234,13.723ZM94.672,25.5a7.824,7.824,0,0,0-1.96.754,11.037,11.037,0,0,0-1.923,1.309,7.461,7.461,0,0,0-1.419,1.566,2.549,2.549,0,0,0-.49,1.453,1.2,1.2,0,0,0,.831,1.036,1.871,1.871,0,0,0,1.582-.135,11.27,11.27,0,0,0,1.812-1.07,16.061,16.061,0,0,0,1.549-1.265c.439-.41.7-.661.781-.746a4.847,4.847,0,0,0,.976-1.223,1.336,1.336,0,0,0,.178-.437,1.151,1.151,0,0,0,.074-.641.64.64,0,0,0-.354-.47,2,2,0,0,0-.943-.222,2.966,2.966,0,0,0-.694.091ZM77.039,19.026a23.5,23.5,0,0,0-3.94,3.543q-3.568,3.7-4.255,5.982a1.932,1.932,0,0,0-.029,1.263,1.064,1.064,0,0,0,.732.685c.706.222,1.891-.41,3.55-1.874q1.247-1.179,2.689-2.706c.962-1.021,1.835-2,2.627-2.959a9.518,9.518,0,0,0,1.886-3,1.928,1.928,0,0,0,.015-1.179.972.972,0,0,0-.666-.666,1.323,1.323,0,0,0-.323-.038A4.531,4.531,0,0,0,77.039,19.026ZM33.177,13.567c-.612.123-1.274.769-1.976,1.941A24.014,24.014,0,0,0,29.17,20.4q-1.628,4.874-1.263,7.24a1.961,1.961,0,0,0,.523,1.144,1.049,1.049,0,0,0,.953.31q1.1-.168,2.4-3.216c.417-1.072.831-2.272,1.263-3.608s.792-2.6,1.1-3.8a9.167,9.167,0,0,0,.41-3.514,1.92,1.92,0,0,0-.484-1.072.992.992,0,0,0-.729-.325,1.016,1.016,0,0,0-.164.012ZM48.4,12.926c-.579.006-1.3.567-2.173,1.679a24.866,24.866,0,0,0-2.717,4.552c-1.495,3.071-2.219,5.417-2.189,7.039a1.974,1.974,0,0,0,.331,1.166,1.052,1.052,0,0,0,.927.432c.571-.012,1.24-.544,2-1.611a34.142,34.142,0,0,0,2.84-5.3q.615-1.381,1.109-2.542a16.663,16.663,0,0,0,.726-2.016,6.049,6.049,0,0,0,.319-1.885,1.845,1.845,0,0,0-.343-1.109.971.971,0,0,0-.8-.41Z" transform="translate(74.895 274.663)" fill="#e31e24"/>
    <path id="Union_192" data-name="Union 192" d="M9798.248-719.033a.494.494,0,0,1-.288-.241.452.452,0,0,1,0-.374l.617-1.641-.688-.258a1.486,1.486,0,0,0-.834-.084,2.081,2.081,0,0,0-.792.371l-1.134.839a.494.494,0,0,1-.473.074.453.453,0,0,1-.253-.234.406.406,0,0,1-.024-.337.523.523,0,0,1,.185-.221l.745-.568a3,3,0,0,1,.743-.416,1.58,1.58,0,0,1,.7-.1,1.744,1.744,0,0,1-.891-.927,1.587,1.587,0,0,1,.029-1.09,1.635,1.635,0,0,1,.967-1.04,2.139,2.139,0,0,1,1.508.074l1.906.716a.481.481,0,0,1,.285.248.462.462,0,0,1,0,.366l-1.717,4.563a.47.47,0,0,1-.239.285.406.406,0,0,1-.167.035A.55.55,0,0,1,9798.248-719.033Zm-.9-5.495a.978.978,0,0,0-.607.644.908.908,0,0,0,.059.9,1.735,1.735,0,0,0,.819.566l1.205.455.76-2.017-1.229-.462a1.907,1.907,0,0,0-.663-.137A1.132,1.132,0,0,0,9797.353-724.528Zm-5.306,3.286a.46.46,0,0,1-.295-.221.479.479,0,0,1-.027-.366l.162-.546a1.684,1.684,0,0,1-.883.563,2.049,2.049,0,0,1-1.1-.034,2.338,2.338,0,0,1-.917-.507,1.81,1.81,0,0,1-.534-.812,1.572,1.572,0,0,1-.01-.927,1.451,1.451,0,0,1,.605-.878,2.008,2.008,0,0,1,1.19-.189,10.547,10.547,0,0,1,2.066.443l.25.071.111-.374a1.57,1.57,0,0,0,.017-1.08,1.2,1.2,0,0,0-.809-.585,3.486,3.486,0,0,0-1.692-.042,1.07,1.07,0,0,1-.487.066.3.3,0,0,1-.2-.17.391.391,0,0,1-.015-.288.437.437,0,0,1,.18-.248,1.129,1.129,0,0,1,.383-.153,3.79,3.79,0,0,1,1.009-.091,4.165,4.165,0,0,1,1.043.165,1.962,1.962,0,0,1,1.434,2.792l-.91,3.087a.47.47,0,0,1-.216.3.405.405,0,0,1-.2.053A.562.562,0,0,1,9792.047-721.242Zm-2.243-3.173a.779.779,0,0,0-.394.521.978.978,0,0,0,.108.826,1.219,1.219,0,0,0,.726.529,1.533,1.533,0,0,0,1.252-.13,1.716,1.716,0,0,0,.787-1.058l.1-.33-.2-.059a10.647,10.647,0,0,0-1.548-.364,2.7,2.7,0,0,0-.342-.024A1.141,1.141,0,0,0,9789.8-724.415Zm-4.255,1.365a.486.486,0,0,1-.312-.2.464.464,0,0,1-.057-.376l.47-2.1-3.027-.674-.473,2.125a.458.458,0,0,1-.2.3.482.482,0,0,1-.361.044.5.5,0,0,1-.319-.2.443.443,0,0,1-.052-.359l1.087-4.885a.469.469,0,0,1,.2-.307.481.481,0,0,1,.376-.049.459.459,0,0,1,.3.2.469.469,0,0,1,.055.364l-.45,2.01,3.027.674.448-2.01a.451.451,0,0,1,.206-.3.475.475,0,0,1,.369-.052.459.459,0,0,1,.308.2.457.457,0,0,1,.052.364l-1.07,4.865a.483.483,0,0,1-.206.317.431.431,0,0,1-.238.067A.639.639,0,0,1,9785.549-723.05Zm-30.045-1.316a.36.36,0,0,1-.135-.29.4.4,0,0,1,.047-.189l.826-1.788-2.352-5.062a.351.351,0,0,1-.047-.177.38.38,0,0,1,.16-.31.539.539,0,0,1,.347-.13.432.432,0,0,1,.231.071.433.433,0,0,1,.172.2l1.982,4.435,1.971-4.417a.431.431,0,0,1,.413-.285.48.48,0,0,1,.319.118.366.366,0,0,1,.143.3.364.364,0,0,1-.047.189l-3.315,7.177a.445.445,0,0,1-.172.2.43.43,0,0,1-.229.071A.49.49,0,0,1,9755.5-724.366Zm22.976-.15a.5.5,0,0,1-.332-.18.463.463,0,0,1-.076-.354l.3-1.845a3.371,3.371,0,0,1-.711.13,3.226,3.226,0,0,1-.826-.032,2.344,2.344,0,0,1-1.456-.7,1.786,1.786,0,0,1-.315-1.537l.246-1.53a.461.461,0,0,1,.182-.32.48.48,0,0,1,.372-.071.468.468,0,0,1,.317.182.469.469,0,0,1,.073.359l-.229,1.427a1.232,1.232,0,0,0,.177,1.011,1.414,1.414,0,0,0,.905.445,2.406,2.406,0,0,0,1.39-.135l.374-2.324a.458.458,0,0,1,.185-.317.476.476,0,0,1,.369-.074.455.455,0,0,1,.319.184.469.469,0,0,1,.074.359l-.8,4.944a.442.442,0,0,1-.183.31.436.436,0,0,1-.257.077A.627.627,0,0,1,9778.479-724.516Zm-8.325-1.129a2.771,2.771,0,0,1-1.393-.517,2.458,2.458,0,0,1-.844-1.141,3.518,3.518,0,0,1-.167-1.609,3.471,3.471,0,0,1,.5-1.535,2.425,2.425,0,0,1,1.063-.94,2.736,2.736,0,0,1,1.468-.214,2.8,2.8,0,0,1,1.4.517,2.422,2.422,0,0,1,.849,1.141,3.5,3.5,0,0,1,.17,1.606,3.547,3.547,0,0,1-.5,1.537,2.418,2.418,0,0,1-1.07.94,2.688,2.688,0,0,1-1.121.233A3.365,3.365,0,0,1,9770.154-725.645Zm-.81-4.732a2.538,2.538,0,0,0-.63,1.569,2.577,2.577,0,0,0,.28,1.673,1.581,1.581,0,0,0,1.242.7,1.586,1.586,0,0,0,1.36-.421,2.557,2.557,0,0,0,.625-1.582,2.556,2.556,0,0,0-.288-1.668,1.578,1.578,0,0,0-1.234-.708,2.241,2.241,0,0,0-.235-.013A1.512,1.512,0,0,0,9769.345-730.377Zm-4.258,4.26a.463.463,0,0,1-.337-.148.439.439,0,0,1-.113-.337l.231-4.6-2.258-.116-.032.686a8.358,8.358,0,0,1-.531,2.841,2.774,2.774,0,0,1-1.333,1.427.512.512,0,0,1-.2.025.406.406,0,0,1-.285-.121.36.36,0,0,1-.1-.278.456.456,0,0,1,.071-.221.4.4,0,0,1,.185-.157,1.8,1.8,0,0,0,.7-.627,3.1,3.1,0,0,0,.4-1.087,13.4,13.4,0,0,0,.194-1.832l.05-.959a.489.489,0,0,1,.147-.359.475.475,0,0,1,.361-.113l3.131.16a.5.5,0,0,1,.354.148.472.472,0,0,1,.118.362l-.246,4.87a.445.445,0,0,1-.152.325.479.479,0,0,1-.32.112Zm-16.688-.4a2.747,2.747,0,0,1-.981-1.188,4.773,4.773,0,0,1-.386-1.628,8.753,8.753,0,0,1,.091-2.285,3.235,3.235,0,0,1,.6-1.4,3.5,3.5,0,0,1,1.1-.881,8.736,8.736,0,0,1,1.119-.477,11.572,11.572,0,0,0,1.3-.561.575.575,0,0,1,.222-.062.375.375,0,0,1,.29.094.374.374,0,0,1,.125.258.414.414,0,0,1-.057.236.509.509,0,0,1-.2.2,3.387,3.387,0,0,1-.6.325c-.219.093-.5.2-.836.327-.533.209-.849.337-.949.384a2.3,2.3,0,0,0-1.122.969,3.262,3.262,0,0,0-.319,1.771,2.384,2.384,0,0,1,.753-1.075,2.254,2.254,0,0,1,1.348-.5,2.332,2.332,0,0,1,1.825.615,3.055,3.055,0,0,1,.836,2.125,3.379,3.379,0,0,1-.229,1.5,2.6,2.6,0,0,1-.878,1.139,2.684,2.684,0,0,1-1.449.5q-.12.008-.234.008A2.38,2.38,0,0,1,9748.4-726.516Zm1.38-4.683a1.686,1.686,0,0,0-1.014.381,1.866,1.866,0,0,0-.565.844,2.664,2.664,0,0,0-.136,1.023,2.678,2.678,0,0,0,.515,1.491,1.485,1.485,0,0,0,1.375.531,1.491,1.491,0,0,0,1.3-.743,2.707,2.707,0,0,0,.324-1.523,2.486,2.486,0,0,0-.538-1.525,1.438,1.438,0,0,0-1.127-.484Q9749.849-731.2,9749.778-731.2Z" transform="translate(-9637.258 1007.001)" stroke="rgba(0,0,0,0)" stroke-miterlimit="10" stroke-width="1"/>
  </g>
</svg>
