<svg id="g4158" xmlns="http://www.w3.org/2000/svg" width="57.191" height="18.506" viewBox="0 0 57.191 18.506">
  <path id="polygon9" d="M438.14,128.642h-4.633l2.9-17.919h4.632Z" transform="translate(-413.357 -110.401)" fill="#00579f"/>
  <path id="path11" d="M579.076,105.81a11.414,11.414,0,0,0-4.155-.763c-4.575,0-7.8,2.44-7.817,5.927-.038,2.573,2.307,4,4.06,4.858,1.792.877,2.4,1.449,2.4,2.23-.018,1.2-1.447,1.753-2.782,1.753a9.221,9.221,0,0,1-4.347-.953l-.61-.286-.649,4.022a14.1,14.1,0,0,0,5.167.953c4.858,0,8.025-2.4,8.063-6.118.019-2.039-1.22-3.6-3.888-4.879-1.619-.82-2.613-1.372-2.613-2.212.019-.762.841-1.542,2.668-1.542a7.87,7.87,0,0,1,3.449.686l.42.19.63-3.87Z" transform="translate(-537.499 -105.047)" fill="#00579f"/>
  <path id="path13" d="M797.689,122.294c.381-1.029,1.851-5.013,1.851-5.013-.019.038.381-1.048.61-1.715l.324,1.542s.878,4.291,1.067,5.184Zm5.72-11.567h-3.585a2.286,2.286,0,0,0-2.422,1.487l-6.88,16.426h4.858l.972-2.687h5.95c.133.629.553,2.687.553,2.687h4.291l-3.737-17.919h0Z" transform="translate(-749.957 -110.399)" fill="#00579f"/>
  <path id="path15" d="M177.274,110.727l-4.537,12.217-.5-2.478a13.713,13.713,0,0,0-6.4-7.51L170,128.623h4.9l7.281-17.9h-4.9Z" transform="translate(-160.994 -110.401)" fill="#00579f"/>
  <path id="path17" d="M88.7,110.724H81.241l-.077.362c5.814,1.487,9.664,5.07,11.247,9.378l-1.619-8.234a1.917,1.917,0,0,0-2.1-1.506Z" transform="translate(-81.164 -110.398)" fill="#faa61a"/>
</svg>
