<svg id="mir" xmlns="http://www.w3.org/2000/svg" xmlns:xlink="http://www.w3.org/1999/xlink" width="61.45" height="17.736" viewBox="0 0 61.45 17.736">
  <defs>
    <linearGradient id="linear-gradient" x2="1" gradientUnits="objectBoundingBox">
      <stop offset="0" stop-color="#00b4e6"/>
      <stop offset="0.3" stop-color="#00b4e6"/>
      <stop offset="1" stop-color="#088ccb"/>
    </linearGradient>
  </defs>
  <path id="Path_4962" data-name="Path 4962" d="M60.64,25H48.857c.634,3.927,4.434,7.6,8.615,7.6h9.375a4.311,4.311,0,0,0,.126-1.266A6.273,6.273,0,0,0,60.64,25Z" transform="translate(-5.529 -25)" fill-rule="evenodd" fill="url(#linear-gradient)"/>
  <path id="Path_4963" data-name="Path 4963" d="M50,34.286v9.5h5.7V38.72h5.068a6.273,6.273,0,0,0,5.955-4.434Z" transform="translate(-5.659 -26.05)" fill="#4db45f" fill-rule="evenodd"/>
  <path id="Path_4964" data-name="Path 4964" d="M27.143,25V42.737h5.068a2.25,2.25,0,0,0,1.9-1.266L38.545,32.6h.634V42.737h5.7V25H39.812a2.637,2.637,0,0,0-1.9,1.266l-4.434,8.868h-.634V25Z" transform="translate(-3.072 -25)" fill="#4db45f" fill-rule="evenodd"/>
  <path id="Path_4965" data-name="Path 4965" d="M0,42.737V25H5.7s1.647,0,2.534,2.534c2.281,6.715,2.534,7.6,2.534,7.6s.507-1.647,2.534-7.6C14.189,25,15.837,25,15.837,25h5.7V42.737h-5.7v-9.5H15.2l-3.167,9.5H9.5l-3.168-9.5H5.7v9.5Z" transform="translate(0 -25)" fill="#4db45f" fill-rule="evenodd"/>
</svg>
