<svg xmlns="http://www.w3.org/2000/svg" width="110" height="93.923" viewBox="0 0 110 93.923">
  <g id="Group_3145" data-name="Group 3145" transform="translate(-990.755 -592.726)">
    <g id="Group_3142" data-name="Group 3142" transform="translate(990.755 592.726)">
      <g id="Group_3141" data-name="Group 3141">
        <path id="Path_4967" data-name="Path 4967" d="M1100.7,637.993a57.347,57.347,0,0,0-3.641-17.316c-1.022-2.783-2.23-5.747-2.272-8.752a9.76,9.76,0,0,1,.836-4.042,2.772,2.772,0,0,0-.177-2.958c-1.432-1.846-3.881-1.327-5.642-.368-1.218.664-2.293,1.3-3.712.88a8.585,8.585,0,0,1-3.216-2.148,39.96,39.96,0,0,0-5.859-5.08,28.324,28.324,0,0,0-7.423-3.15c-10.731-3-22.578-2.879-33.478-.941a82.644,82.644,0,0,0-31.566,12.694c-2.335,1.57-4.662,3.921-7.4,4.734-1.771.526-4.687-.746-6.008.973a2.32,2.32,0,0,0-.035,2.522,9.149,9.149,0,0,1,1.125,4.4c-.03,3.1-.656,6.214-.9,9.3a129.331,129.331,0,0,0,.015,20.3c.43,5.4,1.27,10.949,3.452,15.943a23.127,23.127,0,0,0,2.821,4.773,15.236,15.236,0,0,1-2.411,5.448.989.989,0,0,0,.153,1.185,2.112,2.112,0,0,0,2.329.524,3.717,3.717,0,0,0,1.167-.685c.769-.62,1.053-1.333,1.961-.438.881.87,1.548,1.986,2.431,2.876a25.162,25.162,0,0,0,2.861,2.456c4.812,3.578,10.476,4.877,16.375,5.183,12.837.665,25.892.621,38.416-2.58a90.554,90.554,0,0,0,16.949-6.2c2.745-1.326,5.4-2.812,8-4.394a18.937,18.937,0,0,1,4.064-2.063,6.359,6.359,0,0,1,2.24-.322,4.111,4.111,0,0,0,1.888-.016,1.8,1.8,0,0,0,1.022-2.062,15.6,15.6,0,0,1-.395-1.951,7.009,7.009,0,0,1,.6-2.512c1.122-2.891,2.441-5.639,3.318-8.63A54.172,54.172,0,0,0,1100.7,637.993Z" transform="translate(-990.755 -592.726)" fill="#fff"/>
        <g id="Group_3137" data-name="Group 3137" transform="translate(3.22 23.032)">
          <path id="Path_4968" data-name="Path 4968" d="M1004.23,687.829c.281.8.583,2.03,1.418,2.441a1.365,1.365,0,0,0,1.725-.441c1.729-1.522,2.7-3.941,3.466-6.061a25.964,25.964,0,0,0,1.506-7.312c.12-2.054-.044-4.424-1.853-5.745a3.352,3.352,0,0,0-4.491.434c-1.429,1.452-2.066,3.76-2.469,5.693a20.853,20.853,0,0,0-.215,7.237A19.772,19.772,0,0,0,1004.23,687.829Z" transform="translate(-1002.643 -670.04)" fill="#54d9da"/>
          <path id="Path_4969" data-name="Path 4969" d="M1011.915,752.814a16.116,16.116,0,0,0-.827-7.121c-.55-1.53-1.445-3.331-3.251-3.553a2.818,2.818,0,0,0-2.144.674l0,0a1.49,1.49,0,0,0-.5,1.061,9.511,9.511,0,0,1-1.208,1.952,10.817,10.817,0,0,0-1.6,2.611,9.941,9.941,0,0,0-.578,6.058c.759,3.29,4.552,6.459,7.82,3.988C1011.286,757.228,1011.705,754.755,1011.915,752.814Z" transform="translate(-1001.565 -720.649)" fill="#54d9da"/>
          <path id="Path_4970" data-name="Path 4970" d="M1029.164,807.71c-.7-1.825-2.224-5.087-4.72-4.3a.79.79,0,0,0-.26,1.362c-.738,2.168-.06,5.287.552,7.261.5,1.629,1.778,4.975,3.842,2.779C1030.283,813,1029.977,809.828,1029.164,807.71Z" transform="translate(-1017.219 -763.593)" fill="#54d9da"/>
        </g>
        <g id="Group_3138" data-name="Group 3138" transform="translate(4.526 41.984)">
          <path id="Path_4971" data-name="Path 4971" d="M1010.634,737.449a1.855,1.855,0,0,0,.3-.928,1.89,1.89,0,0,0-.044-1,2.5,2.5,0,0,0-1.743-1.743l-.142-.027c-.013,0-.026-.01-.039-.014a1.739,1.739,0,0,0-.915-.041,1.706,1.706,0,0,0-.853.272,2.333,2.333,0,0,0-.3.214,1.831,1.831,0,0,0-.343.347c-.014.017-.027.036-.04.054s-.029.037-.042.057a1.862,1.862,0,0,0-.442.84,2.552,2.552,0,0,0,.249,1.9,3.146,3.146,0,0,0,.438.567,2.479,2.479,0,0,0,2.429.642A2.608,2.608,0,0,0,1010.634,737.449Z" transform="translate(-1005.949 -733.658)" fill="#f70"/>
          <path id="Path_4972" data-name="Path 4972" d="M1022.571,796.949a2.092,2.092,0,0,0-2.959,0,2.327,2.327,0,0,0-.613,1.479,2.113,2.113,0,0,0,.613,1.479,2.092,2.092,0,0,0,2.959,0,2.328,2.328,0,0,0,.613-1.479A2.113,2.113,0,0,0,1022.571,796.949Z" transform="translate(-1015.111 -777.664)" fill="#f70"/>
        </g>
        <g id="Group_3139" data-name="Group 3139" transform="translate(3.222 25.614)">
          <path id="Path_4973" data-name="Path 4973" d="M1016.022,776.536c.091-.511.155-1.016.206-1.489.045-.417.068-.837.08-1.258-1.631.9-2.919,2.15-4.372,3.037a31.461,31.461,0,0,0-4.228,2.9,6.7,6.7,0,0,0,.808.761,64.344,64.344,0,0,0,6.193-3.187C1015.113,777.061,1015.566,776.8,1016.022,776.536Z" transform="translate(-1005.88 -745.464)" fill="#1ab3b0"/>
          <path id="Path_4974" data-name="Path 4974" d="M1006.865,763.089c1.542-.92,3.461-1.787,4.983-2.76a15.857,15.857,0,0,0-.355-1.785c-3.165.948-5.66,2.8-7.924,4.231-.54.343-1.262.747-2,1.185a9.3,9.3,0,0,0,.234,2.068q.038.162.085.323c.675-.4,1.272-.934,1.644-1.177C1004.617,764.467,1005.722,763.77,1006.865,763.089Z" transform="translate(-1001.571 -734.76)" fill="#1ab3b0"/>
          <path id="Path_4975" data-name="Path 4975" d="M1032.3,824.994a21.331,21.331,0,0,0-3.437,2.058c-.4.281-.884.589-1.3.9a10.092,10.092,0,0,0,.572,1.319,14.14,14.14,0,0,0,3.141-1.825c.37-.235.753-.472,1.131-.711A8.894,8.894,0,0,0,1032.3,824.994Z" transform="translate(-1019.82 -781.414)" fill="#1ab3b0"/>
          <path id="Path_4976" data-name="Path 4976" d="M1006.668,704.841c-.951.4-2.092.824-3.137,1.289.027.243.055.487.09.729.05.346.11.69.177,1.032,1.542-.448,2.954-1.123,4.271-1.646,1.188-.472,2.422-.934,3.628-1.412.22-.771.4-1.552.549-2.34C1010.306,703.217,1008.509,704.06,1006.668,704.841Z" transform="translate(-1002.947 -695.407)" fill="#1ab3b0"/>
          <path id="Path_4977" data-name="Path 4977" d="M1029.385,818.175c.3-.207.671-.443,1.045-.691a9.975,9.975,0,0,0-.361-1.159c-.091-.235-.195-.495-.313-.766a19.411,19.411,0,0,0-3.076,2.182c-.469.339-1.015.691-1.529,1.05.131.6.281,1.157.43,1.656A18.678,18.678,0,0,0,1029.385,818.175Z" transform="translate(-1018.127 -774.79)" fill="#1ab3b0"/>
          <path id="Path_4978" data-name="Path 4978" d="M1011.946,678.707c-1.951.113-3.705,1.229-5.117,1.844-.944.411-2.021.835-3.031,1.3-.091.366-.172.727-.245,1.075-.065.31-.121.621-.171.933,1.734-.547,3.286-1.342,4.794-1.977.307-.129.669-.262,1.056-.4-.844.391-1.627.792-2.317,1.111-1.164.537-2.452,1.116-3.6,1.751a20.712,20.712,0,0,0-.185,2.2c2.109-.831,3.89-2,5.841-2.894.978-.45,2.241-.869,3.406-1.329a12.319,12.319,0,0,0-.05-2c-.133.034-.267.067-.4.105.137-.066.264-.135.387-.2A6.5,6.5,0,0,0,1011.946,678.707Z" transform="translate(-1002.665 -678.707)" fill="#1ab3b0"/>
          <path id="Path_4979" data-name="Path 4979" d="M1007.4,753.538c.68-.4,1.362-.8,2.06-1.191a14.8,14.8,0,0,0,1.768-.921c-.119-.329-.255-.669-.412-1a2.4,2.4,0,0,0-1.26.01c-2.734.911-4.929,2.717-6.918,4.026l-.273.179a10.346,10.346,0,0,0-.579,2.414C1003.73,755.9,1005.506,754.652,1007.4,753.538Z" transform="translate(-1001.724 -729.003)" fill="#1ab3b0"/>
        </g>
        <g id="Group_3140" data-name="Group 3140" transform="translate(29.717 60.954)">
          <path id="Path_4980" data-name="Path 4980" d="M1110.722,815.825a3.52,3.52,0,0,0-1.66,1.955c-.068.149-.137.3-.215.448a6.651,6.651,0,0,1-1.51,1.877,14.285,14.285,0,0,1-5.518,2.745,5.742,5.742,0,0,1-5-1.03,12.456,12.456,0,0,1-3.472-4.352,1.459,1.459,0,0,0-1.348-.7,1.371,1.371,0,0,0-1.184.828c-.564,1.32-.6,3.421,2.149,6.135l-.041.064-.147.227c-.064.1-.133.2-.2.3a3.709,3.709,0,0,0-.891,2.327,1.7,1.7,0,0,0,.809,1.382,1.782,1.782,0,0,0,1.653.087,3.6,3.6,0,0,0,1.6-1.778c.052-.1.1-.194.155-.285l.034-.059a9.884,9.884,0,0,0,2.428.96c-.037.474-.041.94-.044,1.374,0,.27,0,.537-.015.8-.009.22-.03.458-.052.709a4.776,4.776,0,0,0,.679,3.611,1.459,1.459,0,0,0,1.1.535h.048a1.506,1.506,0,0,0,1.124-.486,4.779,4.779,0,0,0,.865-3.589c-.009-.257-.018-.5-.015-.72,0-.256.016-.516.027-.778.02-.448.04-.9.029-1.366a15.992,15.992,0,0,0,2.343-.626l.019.035.02.036c.048.089.1.206.152.329a2.882,2.882,0,0,0,1.183,1.517,1.7,1.7,0,0,0,2.467-1,2.96,2.96,0,0,0-.542-2.42,17.967,17.967,0,0,0,2.05-1.359c.346-.267,3.386-2.684,3.56-5.187a2.838,2.838,0,0,0-.818-2.24A1.565,1.565,0,0,0,1110.722,815.825Z" transform="translate(-1090.509 -810.2)" fill="#25252b"/>
          <path id="Path_4981" data-name="Path 4981" d="M1224.195,797.713h0a1.562,1.562,0,0,0-1.842-.141,3.644,3.644,0,0,0-1.34,1.954,4.508,4.508,0,0,1-.3.677,8.261,8.261,0,0,1-2.469,2.421,24.991,24.991,0,0,1-7.252,3.623,10.627,10.627,0,0,1-6.862-.143,8.008,8.008,0,0,1-2.775-1.839,8.5,8.5,0,0,1-1.094-1.565c-.247-.415-.5-.845-.815-1.268a1.488,1.488,0,0,0-1.529-.557,1.344,1.344,0,0,0-1.026,1.106c-.477,2.865,1.941,5.673,4.548,7.186a11.929,11.929,0,0,0,3.051,1.241c-.109.312-.205.624-.3.932l-.038.124c-.047.149-.105.305-.165.466-.31.831-.829,2.223.147,3.354a1.485,1.485,0,0,0,1.638.406,2.956,2.956,0,0,0,1.659-2.543c.035-.188.067-.365.108-.519.06-.23.127-.46.193-.69.106-.369.215-.745.3-1.133a15.625,15.625,0,0,0,2.378-.231,35.614,35.614,0,0,0,1.3,5.281,1.867,1.867,0,0,0,1.8,1.373,2.033,2.033,0,0,0,.493-.062,1.938,1.938,0,0,0,1.445-2.287c-.161-.818-.354-1.633-.54-2.423-.124-.526-.248-1.053-.364-1.581-.046-.209-.089-.419-.133-.63-.051-.25-.1-.5-.161-.759a26.45,26.45,0,0,0,2.716-1.228c.1.215.213.419.313.607.082.153.159.3.223.43.055.114.109.241.166.375.366.855.979,2.286,2.495,2.341a1.529,1.529,0,0,0,1.344-.735c.742-1.215-.035-2.52-.5-3.3-.088-.149-.172-.288-.237-.414-.081-.157-.156-.332-.235-.512-.1-.239-.215-.491-.344-.74q.415-.286.815-.581a11.581,11.581,0,0,0,3.166-3.251C1225.394,800.438,1225.4,798.7,1224.195,797.713Z" transform="translate(-1165.16 -797.334)" fill="#25252b"/>
        </g>
      </g>
    </g>
    <g id="Group_3144" data-name="Group 3144" transform="translate(1053.864 618.427)">
      <g id="Group_3143" data-name="Group 3143" transform="translate(0 0)">
        <path id="Path_4982" data-name="Path 4982" d="M1216.92,737.773c-2.42-.034-4.841-.037-7.259.067-1.177.051-2.363.106-3.532.242a14.529,14.529,0,0,0-1.509.211,8.937,8.937,0,0,0-1.6.692c-.722.309-.41,1.334.2,1.54a7.5,7.5,0,0,0,1.779.54c.515.054,1.039.1,1.555.128,1.119.067,2.25.065,3.37.1q.9.027,1.8.058c-2.548,2.022-5.084,4.06-7.653,6.056a1.976,1.976,0,0,0-.308,2.386,2.042,2.042,0,0,0,2.224.9c1.725-.341,3.5-.507,5.25-.705a46.941,46.941,0,0,0,5.343-.57,1.982,1.982,0,0,0,1.427-2.185,2.036,2.036,0,0,0-1.956-1.727,13.622,13.622,0,0,0-3.293.066c1.864-1.485,3.708-2.994,5.506-4.555C1219.554,739.9,1218.478,737.795,1216.92,737.773Z" transform="translate(-1202.597 -720.25)" fill="#f70"/>
        <path id="Path_4983" data-name="Path 4983" d="M1260.815,706.963c-.683.141-1.349.313-2.007.505.142-.29.284-.581.432-.869.717-1.393,1.929-2.863,1.514-4.493a1.713,1.713,0,0,0-2.05-1.164,42.889,42.889,0,0,0-6.451,1.087,1.38,1.38,0,0,0,.365,2.7,19.761,19.761,0,0,0,3.548-.164q-.386.7-.742,1.411c-.689,1.388-1.3,2.815-1.856,4.26-.667,1.724,1.444,2.678,2.756,2.118a30.314,30.314,0,0,1,5.517-1.668C1264.272,710.163,1263.24,706.46,1260.815,706.963Z" transform="translate(-1236.776 -694.385)" fill="#ff9100"/>
        <path id="Path_4984" data-name="Path 4984" d="M1290.921,682.52a5.175,5.175,0,0,0-2.707-.341c-.219.007-.439.008-.66.008a12.089,12.089,0,0,0,1.468-1.95.829.829,0,0,0-.71-1.237c-1.5.03-4.871-.225-5.8,1.232a.312.312,0,0,0,.109.417c.729.532,1.544.286,2.408.2q.563-.053,1.124-.1a13.1,13.1,0,0,1-1.754,1.626,1.216,1.216,0,0,0,.287,2.192c1.833.481,4.888.732,6.434-.54A.97.97,0,0,0,1290.921,682.52Z" transform="translate(-1258.672 -679)" fill="#ffc400"/>
      </g>
    </g>
  </g>
</svg>
